<svg width="1440" height="1024" viewBox="0 0 1440 1024" fill="none" xmlns="http://www.w3.org/2000/svg">
<rect width="1440" height="1024" fill="#1D2126" fill-opacity="0.25"/>
<rect x="420" y="292.034" width="600" height="352" fill="#F0F0F0"/>
<path d="M509.136 383.818V379.761H528.25V383.818H521.125V403.034H516.261V383.818H509.136ZM529.494 403.034V385.58H534.188V388.625H534.369C534.688 387.542 535.222 386.724 535.972 386.171C536.722 385.61 537.585 385.33 538.563 385.33C538.805 385.33 539.066 385.345 539.347 385.375C539.627 385.405 539.873 385.447 540.085 385.5V389.796C539.858 389.727 539.544 389.667 539.142 389.614C538.741 389.561 538.373 389.534 538.04 389.534C537.328 389.534 536.691 389.689 536.131 390C535.578 390.303 535.138 390.727 534.813 391.273C534.494 391.818 534.335 392.447 534.335 393.159V403.034H529.494ZM547.065 403.364C545.952 403.364 544.959 403.171 544.088 402.784C543.217 402.39 542.527 401.811 542.02 401.046C541.52 400.273 541.27 399.311 541.27 398.159C541.27 397.189 541.448 396.375 541.804 395.716C542.16 395.057 542.645 394.527 543.259 394.125C543.872 393.724 544.569 393.421 545.349 393.216C546.137 393.011 546.963 392.868 547.827 392.784C548.842 392.678 549.66 392.58 550.281 392.489C550.902 392.39 551.353 392.246 551.634 392.057C551.914 391.868 552.054 391.587 552.054 391.216V391.148C552.054 390.428 551.827 389.871 551.372 389.477C550.925 389.083 550.289 388.886 549.463 388.886C548.592 388.886 547.899 389.08 547.384 389.466C546.868 389.845 546.527 390.322 546.361 390.898L541.884 390.534C542.111 389.474 542.558 388.557 543.224 387.784C543.891 387.004 544.751 386.405 545.804 385.989C546.865 385.564 548.092 385.352 549.486 385.352C550.456 385.352 551.384 385.466 552.27 385.693C553.164 385.921 553.956 386.273 554.645 386.75C555.342 387.227 555.891 387.841 556.293 388.591C556.694 389.333 556.895 390.224 556.895 391.261V403.034H552.304V400.614H552.168C551.887 401.159 551.512 401.64 551.043 402.057C550.573 402.466 550.009 402.788 549.349 403.023C548.69 403.25 547.929 403.364 547.065 403.364ZM548.452 400.023C549.164 400.023 549.793 399.883 550.338 399.602C550.884 399.314 551.312 398.928 551.622 398.443C551.933 397.958 552.088 397.409 552.088 396.796V394.943C551.937 395.042 551.728 395.133 551.463 395.216C551.206 395.292 550.914 395.364 550.588 395.432C550.262 395.493 549.937 395.549 549.611 395.602C549.285 395.648 548.99 395.689 548.724 395.727C548.156 395.811 547.66 395.943 547.236 396.125C546.812 396.307 546.482 396.553 546.247 396.864C546.012 397.167 545.895 397.546 545.895 398C545.895 398.659 546.134 399.163 546.611 399.511C547.096 399.852 547.709 400.023 548.452 400.023ZM568.537 403.375C566.749 403.375 565.211 402.996 563.923 402.239C562.643 401.474 561.658 400.413 560.969 399.057C560.287 397.701 559.946 396.14 559.946 394.375C559.946 392.587 560.291 391.019 560.98 389.671C561.677 388.314 562.666 387.258 563.946 386.5C565.226 385.735 566.749 385.352 568.514 385.352C570.037 385.352 571.37 385.629 572.514 386.182C573.658 386.735 574.563 387.511 575.23 388.511C575.897 389.511 576.264 390.686 576.332 392.034H571.764C571.635 391.163 571.295 390.462 570.742 389.932C570.196 389.394 569.48 389.125 568.594 389.125C567.844 389.125 567.188 389.33 566.628 389.739C566.075 390.14 565.643 390.727 565.332 391.5C565.022 392.273 564.867 393.208 564.867 394.307C564.867 395.421 565.018 396.368 565.321 397.148C565.632 397.928 566.067 398.523 566.628 398.932C567.188 399.341 567.844 399.546 568.594 399.546C569.147 399.546 569.643 399.432 570.082 399.205C570.529 398.977 570.897 398.648 571.185 398.216C571.48 397.777 571.673 397.25 571.764 396.636H576.332C576.257 397.97 575.893 399.144 575.242 400.159C574.598 401.167 573.707 401.955 572.571 402.523C571.435 403.091 570.09 403.375 568.537 403.375ZM583.818 398.011L583.83 392.205H584.534L590.125 385.58H595.682L588.17 394.352H587.023L583.818 398.011ZM579.432 403.034V379.761H584.273V403.034H579.432ZM590.341 403.034L585.205 395.432L588.432 392.011L596.011 403.034H590.341ZM604.19 379.761H609.702L615.009 389.784H615.236L620.543 379.761H626.054L617.565 394.807V403.034H612.679V394.807L604.19 379.761ZM632.881 403.375C631.116 403.375 629.589 403 628.301 402.25C627.021 401.493 626.032 400.439 625.335 399.091C624.638 397.735 624.29 396.163 624.29 394.375C624.29 392.572 624.638 390.996 625.335 389.648C626.032 388.292 627.021 387.239 628.301 386.489C629.589 385.731 631.116 385.352 632.881 385.352C634.646 385.352 636.169 385.731 637.449 386.489C638.737 387.239 639.729 388.292 640.426 389.648C641.123 390.996 641.472 392.572 641.472 394.375C641.472 396.163 641.123 397.735 640.426 399.091C639.729 400.439 638.737 401.493 637.449 402.25C636.169 403 634.646 403.375 632.881 403.375ZM632.903 399.625C633.706 399.625 634.377 399.398 634.915 398.943C635.453 398.481 635.858 397.852 636.131 397.057C636.411 396.261 636.551 395.356 636.551 394.341C636.551 393.326 636.411 392.421 636.131 391.625C635.858 390.83 635.453 390.201 634.915 389.739C634.377 389.277 633.706 389.046 632.903 389.046C632.093 389.046 631.411 389.277 630.858 389.739C630.313 390.201 629.9 390.83 629.619 391.625C629.347 392.421 629.21 393.326 629.21 394.341C629.21 395.356 629.347 396.261 629.619 397.057C629.9 397.852 630.313 398.481 630.858 398.943C631.411 399.398 632.093 399.625 632.903 399.625ZM655.813 395.602V385.58H660.653V403.034H656.006V399.864H655.824C655.43 400.886 654.775 401.708 653.858 402.33C652.949 402.951 651.839 403.261 650.528 403.261C649.362 403.261 648.335 402.996 647.449 402.466C646.563 401.936 645.869 401.182 645.369 400.205C644.877 399.227 644.627 398.057 644.619 396.693V385.58H649.46V395.83C649.468 396.86 649.744 397.674 650.29 398.273C650.835 398.871 651.566 399.171 652.483 399.171C653.066 399.171 653.612 399.038 654.119 398.773C654.627 398.5 655.036 398.099 655.347 397.568C655.665 397.038 655.82 396.383 655.813 395.602ZM664.526 403.034V385.58H669.219V388.625H669.401C669.719 387.542 670.253 386.724 671.003 386.171C671.753 385.61 672.617 385.33 673.594 385.33C673.836 385.33 674.098 385.345 674.378 385.375C674.658 385.405 674.904 385.447 675.117 385.5V389.796C674.889 389.727 674.575 389.667 674.173 389.614C673.772 389.561 673.404 389.534 673.071 389.534C672.359 389.534 671.723 389.689 671.162 390C670.609 390.303 670.17 390.727 669.844 391.273C669.526 391.818 669.367 392.447 669.367 393.159V403.034H664.526ZM706.503 391.398C706.503 393.936 706.022 396.095 705.06 397.875C704.105 399.655 702.802 401.015 701.151 401.955C699.507 402.886 697.658 403.352 695.605 403.352C693.537 403.352 691.681 402.883 690.037 401.943C688.393 401.004 687.094 399.644 686.139 397.864C685.185 396.083 684.707 393.928 684.707 391.398C684.707 388.86 685.185 386.701 686.139 384.921C687.094 383.14 688.393 381.784 690.037 380.852C691.681 379.913 693.537 379.443 695.605 379.443C697.658 379.443 699.507 379.913 701.151 380.852C702.802 381.784 704.105 383.14 705.06 384.921C706.022 386.701 706.503 388.86 706.503 391.398ZM701.514 391.398C701.514 389.754 701.268 388.368 700.776 387.239C700.291 386.11 699.605 385.254 698.719 384.671C697.832 384.087 696.795 383.796 695.605 383.796C694.416 383.796 693.378 384.087 692.492 384.671C691.605 385.254 690.916 386.11 690.423 387.239C689.938 388.368 689.696 389.754 689.696 391.398C689.696 393.042 689.938 394.428 690.423 395.557C690.916 396.686 691.605 397.542 692.492 398.125C693.378 398.708 694.416 399 695.605 399C696.795 399 697.832 398.708 698.719 398.125C699.605 397.542 700.291 396.686 700.776 395.557C701.268 394.428 701.514 393.042 701.514 391.398ZM710.057 403.034V385.58H714.75V388.625H714.932C715.25 387.542 715.784 386.724 716.534 386.171C717.284 385.61 718.148 385.33 719.125 385.33C719.367 385.33 719.629 385.345 719.909 385.375C720.189 385.405 720.436 385.447 720.648 385.5V389.796C720.42 389.727 720.106 389.667 719.705 389.614C719.303 389.561 718.936 389.534 718.602 389.534C717.89 389.534 717.254 389.689 716.693 390C716.14 390.303 715.701 390.727 715.375 391.273C715.057 391.818 714.898 392.447 714.898 393.159V403.034H710.057ZM728.77 403.318C727.444 403.318 726.243 402.977 725.168 402.296C724.099 401.606 723.251 400.595 722.622 399.261C722.001 397.921 721.69 396.277 721.69 394.33C721.69 392.33 722.012 390.667 722.656 389.341C723.3 388.008 724.156 387.011 725.224 386.352C726.3 385.686 727.478 385.352 728.759 385.352C729.736 385.352 730.55 385.519 731.202 385.852C731.861 386.178 732.391 386.587 732.793 387.08C733.202 387.564 733.512 388.042 733.724 388.511H733.872V379.761H738.702V403.034H733.929V400.239H733.724C733.497 400.724 733.175 401.205 732.759 401.682C732.349 402.152 731.815 402.542 731.156 402.852C730.505 403.163 729.709 403.318 728.77 403.318ZM730.304 399.466C731.084 399.466 731.743 399.254 732.281 398.83C732.827 398.398 733.243 397.796 733.531 397.023C733.827 396.25 733.974 395.345 733.974 394.307C733.974 393.269 733.831 392.368 733.543 391.602C733.255 390.837 732.838 390.246 732.293 389.83C731.747 389.413 731.084 389.205 730.304 389.205C729.509 389.205 728.838 389.421 728.293 389.852C727.747 390.284 727.334 390.883 727.054 391.648C726.774 392.413 726.634 393.299 726.634 394.307C726.634 395.322 726.774 396.22 727.054 397C727.342 397.773 727.755 398.379 728.293 398.818C728.838 399.25 729.509 399.466 730.304 399.466ZM750.636 403.375C748.841 403.375 747.295 403.011 746 402.284C744.712 401.549 743.72 400.511 743.023 399.171C742.326 397.822 741.977 396.227 741.977 394.386C741.977 392.591 742.326 391.015 743.023 389.659C743.72 388.303 744.701 387.246 745.966 386.489C747.239 385.731 748.731 385.352 750.443 385.352C751.595 385.352 752.667 385.538 753.659 385.909C754.659 386.273 755.53 386.822 756.273 387.557C757.023 388.292 757.606 389.216 758.023 390.33C758.439 391.436 758.648 392.731 758.648 394.216V395.546H743.909V392.546H754.091C754.091 391.849 753.939 391.231 753.636 390.693C753.333 390.155 752.913 389.735 752.375 389.432C751.845 389.121 751.227 388.966 750.523 388.966C749.788 388.966 749.136 389.136 748.568 389.477C748.008 389.811 747.568 390.261 747.25 390.83C746.932 391.39 746.769 392.015 746.761 392.705V395.557C746.761 396.421 746.92 397.167 747.239 397.796C747.564 398.424 748.023 398.909 748.614 399.25C749.205 399.591 749.905 399.761 750.716 399.761C751.254 399.761 751.746 399.686 752.193 399.534C752.64 399.383 753.023 399.155 753.341 398.852C753.659 398.549 753.902 398.178 754.068 397.739L758.545 398.034C758.318 399.11 757.852 400.049 757.148 400.852C756.451 401.648 755.549 402.269 754.443 402.716C753.345 403.155 752.076 403.375 750.636 403.375ZM761.807 403.034V385.58H766.5V388.625H766.682C767 387.542 767.534 386.724 768.284 386.171C769.034 385.61 769.898 385.33 770.875 385.33C771.117 385.33 771.379 385.345 771.659 385.375C771.939 385.405 772.186 385.447 772.398 385.5V389.796C772.17 389.727 771.856 389.667 771.455 389.614C771.053 389.561 770.686 389.534 770.352 389.534C769.64 389.534 769.004 389.689 768.443 390C767.89 390.303 767.451 390.727 767.125 391.273C766.807 391.818 766.648 392.447 766.648 393.159V403.034H761.807Z" fill="#FF8B13"/>
<path d="M530.318 462.307C530.318 464.188 529.966 465.798 529.261 467.139C528.563 468.475 527.608 469.497 526.398 470.207C525.193 470.918 523.827 471.273 522.298 471.273C520.77 471.273 519.401 470.918 518.19 470.207C516.986 469.492 516.031 468.466 515.327 467.131C514.628 465.79 514.278 464.182 514.278 462.307C514.278 460.426 514.628 458.818 515.327 457.483C516.031 456.142 516.986 455.117 518.19 454.406C519.401 453.696 520.77 453.341 522.298 453.341C523.827 453.341 525.193 453.696 526.398 454.406C527.608 455.117 528.563 456.142 529.261 457.483C529.966 458.818 530.318 460.426 530.318 462.307ZM527.139 462.307C527.139 460.983 526.932 459.867 526.517 458.957C526.108 458.043 525.54 457.352 524.813 456.886C524.085 456.415 523.247 456.179 522.298 456.179C521.349 456.179 520.511 456.415 519.784 456.886C519.057 457.352 518.486 458.043 518.071 458.957C517.662 459.867 517.457 460.983 517.457 462.307C517.457 463.631 517.662 464.75 518.071 465.665C518.486 466.574 519.057 467.264 519.784 467.736C520.511 468.202 521.349 468.435 522.298 468.435C523.247 468.435 524.085 468.202 524.813 467.736C525.54 467.264 526.108 466.574 526.517 465.665C526.932 464.75 527.139 463.631 527.139 462.307ZM533.171 471.034V457.943H536.163V460.125H536.299C536.538 459.369 536.947 458.787 537.526 458.378C538.112 457.963 538.779 457.756 539.529 457.756C539.7 457.756 539.89 457.764 540.1 457.781C540.316 457.793 540.495 457.813 540.637 457.841V460.679C540.506 460.634 540.299 460.594 540.015 460.56C539.737 460.52 539.467 460.5 539.205 460.5C538.643 460.5 538.137 460.622 537.688 460.867C537.245 461.105 536.896 461.438 536.64 461.864C536.384 462.29 536.256 462.781 536.256 463.338V471.034H533.171ZM547.006 471.264C545.977 471.264 545.057 471 544.244 470.472C543.432 469.943 542.79 469.176 542.318 468.171C541.847 467.165 541.611 465.943 541.611 464.506C541.611 463.051 541.849 461.824 542.327 460.824C542.81 459.818 543.46 459.06 544.278 458.548C545.097 458.031 546.009 457.773 547.014 457.773C547.781 457.773 548.412 457.903 548.906 458.165C549.401 458.421 549.793 458.73 550.082 459.094C550.372 459.452 550.597 459.79 550.756 460.108H550.884V453.58H553.977V471.034H550.943V468.972H550.756C550.597 469.29 550.367 469.628 550.065 469.986C549.764 470.338 549.367 470.639 548.872 470.889C548.378 471.139 547.756 471.264 547.006 471.264ZM547.867 468.733C548.52 468.733 549.077 468.557 549.537 468.205C549.997 467.847 550.347 467.35 550.585 466.713C550.824 466.077 550.943 465.335 550.943 464.489C550.943 463.642 550.824 462.906 550.585 462.281C550.352 461.656 550.006 461.171 549.545 460.824C549.091 460.477 548.531 460.304 547.867 460.304C547.179 460.304 546.605 460.483 546.145 460.841C545.685 461.199 545.338 461.693 545.105 462.324C544.872 462.955 544.756 463.676 544.756 464.489C544.756 465.307 544.872 466.037 545.105 466.679C545.344 467.315 545.693 467.818 546.153 468.188C546.619 468.551 547.19 468.733 547.867 468.733ZM563.06 471.29C561.748 471.29 560.614 471.017 559.66 470.472C558.711 469.921 557.981 469.142 557.469 468.136C556.958 467.125 556.702 465.935 556.702 464.565C556.702 463.219 556.958 462.037 557.469 461.02C557.987 459.997 558.708 459.202 559.634 458.634C560.56 458.06 561.648 457.773 562.898 457.773C563.705 457.773 564.467 457.903 565.183 458.165C565.904 458.421 566.541 458.818 567.092 459.358C567.648 459.898 568.086 460.585 568.404 461.421C568.722 462.25 568.881 463.239 568.881 464.386V465.332H558.151V463.253H565.924C565.918 462.662 565.791 462.136 565.541 461.676C565.291 461.21 564.941 460.844 564.492 460.577C564.049 460.31 563.532 460.176 562.941 460.176C562.31 460.176 561.756 460.33 561.279 460.636C560.802 460.938 560.43 461.335 560.163 461.83C559.901 462.318 559.768 462.855 559.762 463.44V465.256C559.762 466.017 559.901 466.671 560.18 467.216C560.458 467.756 560.847 468.171 561.347 468.46C561.847 468.744 562.433 468.886 563.103 468.886C563.552 468.886 563.958 468.824 564.322 468.699C564.685 468.568 565.001 468.378 565.268 468.128C565.535 467.878 565.737 467.568 565.873 467.199L568.754 467.523C568.572 468.284 568.225 468.949 567.714 469.517C567.208 470.08 566.56 470.517 565.771 470.83C564.981 471.136 564.077 471.29 563.06 471.29ZM571.492 471.034V457.943H574.483V460.125H574.619C574.858 459.369 575.267 458.787 575.847 458.378C576.432 457.963 577.099 457.756 577.849 457.756C578.02 457.756 578.21 457.764 578.42 457.781C578.636 457.793 578.815 457.813 578.957 457.841V460.679C578.827 460.634 578.619 460.594 578.335 460.56C578.057 460.52 577.787 460.5 577.526 460.5C576.963 460.5 576.457 460.622 576.009 460.867C575.565 461.105 575.216 461.438 574.96 461.864C574.705 462.29 574.577 462.781 574.577 463.338V471.034H571.492ZM590.259 453.58V471.034H587.097V453.58H590.259ZM599.597 471.034H593.683V453.58H599.717C601.45 453.58 602.938 453.929 604.183 454.628C605.433 455.321 606.393 456.318 607.063 457.619C607.734 458.921 608.069 460.477 608.069 462.29C608.069 464.108 607.731 465.671 607.055 466.977C606.384 468.284 605.416 469.287 604.148 469.986C602.887 470.685 601.37 471.034 599.597 471.034ZM596.844 468.298H599.444C600.66 468.298 601.674 468.077 602.487 467.634C603.299 467.185 603.91 466.517 604.319 465.631C604.728 464.739 604.933 463.625 604.933 462.29C604.933 460.955 604.728 459.847 604.319 458.966C603.91 458.08 603.305 457.418 602.504 456.98C601.708 456.537 600.719 456.315 599.538 456.315H596.844V468.298Z" fill="#1D2126"/>
<rect opacity="0.4" x="514" y="488.034" width="413" height="38" rx="4" fill="white" stroke="#CCCCCC" stroke-width="2"/>
<rect x="508" y="540.034" width="425" height="35" rx="17.5" fill="#1D2126"/>
<path d="M693.671 553.849V551.313H705.617V553.849H701.164V565.859H698.124V553.849H693.671ZM706.395 565.859V554.95H709.328V556.853H709.442C709.641 556.176 709.974 555.665 710.443 555.319C710.912 554.969 711.452 554.794 712.063 554.794C712.214 554.794 712.377 554.803 712.553 554.822C712.728 554.841 712.882 554.867 713.014 554.9V557.585C712.872 557.542 712.676 557.504 712.425 557.471C712.174 557.438 711.944 557.421 711.736 557.421C711.291 557.421 710.893 557.518 710.543 557.713C710.197 557.902 709.922 558.167 709.719 558.508C709.52 558.849 709.42 559.242 709.42 559.687V565.859H706.395ZM717.377 566.065C716.681 566.065 716.061 565.944 715.516 565.703C714.972 565.456 714.541 565.094 714.223 564.616C713.911 564.133 713.755 563.532 713.755 562.812C713.755 562.206 713.866 561.697 714.088 561.285C714.311 560.873 714.614 560.542 714.998 560.291C715.381 560.04 715.817 559.85 716.304 559.723C716.797 559.595 717.313 559.505 717.853 559.453C718.487 559.386 718.998 559.325 719.387 559.268C719.775 559.206 720.057 559.116 720.232 558.998C720.407 558.88 720.495 558.705 720.495 558.473V558.43C720.495 557.98 720.353 557.632 720.069 557.386C719.789 557.14 719.391 557.017 718.875 557.017C718.331 557.017 717.898 557.137 717.576 557.379C717.254 557.616 717.041 557.914 716.936 558.274L714.138 558.046C714.28 557.384 714.56 556.811 714.976 556.328C715.393 555.84 715.93 555.466 716.588 555.205C717.251 554.94 718.018 554.808 718.89 554.808C719.496 554.808 720.076 554.879 720.63 555.021C721.188 555.163 721.683 555.383 722.114 555.681C722.55 555.98 722.893 556.363 723.144 556.832C723.395 557.296 723.52 557.852 723.52 558.501V565.859H720.651V564.346H720.566C720.391 564.687 720.156 564.988 719.863 565.248C719.569 565.504 719.216 565.705 718.804 565.852C718.392 565.994 717.917 566.065 717.377 566.065ZM718.243 563.977C718.688 563.977 719.081 563.889 719.422 563.714C719.763 563.534 720.031 563.293 720.225 562.99C720.419 562.687 720.516 562.343 720.516 561.96V560.802C720.421 560.864 720.291 560.92 720.125 560.973C719.964 561.02 719.782 561.065 719.579 561.107C719.375 561.145 719.171 561.181 718.968 561.214C718.764 561.242 718.579 561.268 718.414 561.292C718.059 561.344 717.748 561.427 717.483 561.541C717.218 561.654 717.012 561.808 716.865 562.002C716.719 562.192 716.645 562.428 716.645 562.713C716.645 563.125 716.794 563.439 717.093 563.657C717.396 563.87 717.779 563.977 718.243 563.977ZM730.797 566.072C729.679 566.072 728.718 565.835 727.913 565.362C727.113 564.884 726.497 564.221 726.066 563.373C725.64 562.526 725.427 561.55 725.427 560.447C725.427 559.33 725.643 558.349 726.074 557.507C726.509 556.659 727.127 555.999 727.927 555.525C728.727 555.047 729.679 554.808 730.782 554.808C731.734 554.808 732.567 554.981 733.282 555.326C733.997 555.672 734.563 556.157 734.98 556.782C735.396 557.407 735.626 558.141 735.669 558.984H732.814C732.733 558.439 732.52 558.001 732.174 557.67C731.833 557.334 731.386 557.166 730.832 557.166C730.363 557.166 729.954 557.294 729.603 557.549C729.258 557.8 728.988 558.167 728.794 558.65C728.6 559.133 728.503 559.718 728.503 560.404C728.503 561.1 728.597 561.692 728.787 562.18C728.981 562.668 729.253 563.039 729.603 563.295C729.954 563.551 730.363 563.678 730.832 563.678C731.178 563.678 731.488 563.607 731.762 563.465C732.042 563.323 732.271 563.117 732.451 562.848C732.636 562.573 732.757 562.244 732.814 561.86H735.669C735.621 562.694 735.394 563.428 734.987 564.062C734.584 564.692 734.028 565.184 733.318 565.539C732.608 565.894 731.767 566.072 730.797 566.072ZM740.347 562.72L740.354 559.09H740.795L744.289 554.95H747.762L743.068 560.433H742.35L740.347 562.72ZM737.606 565.859V551.313H740.631V565.859H737.606ZM744.424 565.859L741.214 561.107L743.231 558.97L747.968 565.859H744.424Z" fill="white"/>
</svg>
