<svg width="1440" height="1024" viewBox="0 0 1440 1024" fill="none" xmlns="http://www.w3.org/2000/svg">
<rect width="1440" height="1024" fill="#F0F0F0"/>
<path d="M601.205 415.167C563.349 393.373 525.511 371.535 487.715 349.63C485.724 348.478 484.318 348.377 482.264 349.567C444.29 371.565 406.27 393.491 368.216 415.358C366.488 416.353 366.225 417.543 366.229 419.284C366.263 459.714 366.284 500.149 366.191 540.579C366.187 543.345 366.886 544.09 369.673 544.086C415.16 543.993 460.643 544.006 506.13 544.023C508.951 544.023 511.776 544.247 514.597 544.366C515.418 543.514 516.486 543.794 517.464 543.794C546.052 543.79 574.641 543.798 603.229 543.807C603.305 543.214 603.449 542.616 603.449 542.024C603.458 500.988 603.445 459.947 603.5 418.911C603.504 417.014 602.793 416.082 601.205 415.167ZM472.214 534.768C441.076 534.654 409.938 534.663 378.8 534.76C376.204 534.768 375.691 534.002 375.7 531.55C375.78 495.965 375.763 460.375 375.729 424.79C375.729 423.083 375.907 421.876 377.656 420.868C409.675 402.466 441.643 383.979 473.624 365.513C474.039 365.271 474.484 365.081 475.407 364.619C475.407 366.182 475.407 367.186 475.407 368.189C475.407 422.579 475.395 476.969 475.462 531.359C475.471 533.896 475.026 534.777 472.214 534.768ZM553.532 468.024C555.23 474.551 556.772 481.12 558.53 487.629C559.025 489.459 558.648 489.921 556.814 489.878C552.579 489.781 548.335 489.849 544.096 489.849C544.096 489.853 544.096 489.861 544.096 489.866C540.258 489.866 536.417 489.717 532.592 489.916C530.017 490.052 529.28 489.497 530.039 486.812C531.754 480.713 533.05 474.496 534.765 468.397C535.337 466.36 535.045 465.208 533.465 463.738C528.247 458.893 526.993 451.545 530.039 445.454C533.071 439.385 539.949 435.611 546.188 436.594C553.489 437.746 558.885 443.095 559.847 450.367C560.558 455.742 558.809 460.384 554.76 463.933C553.29 465.216 553.087 466.322 553.532 468.024Z" fill="#FF8B13"/>
<path d="M514.601 544.37L514.66 544.421C514.707 544.421 514.757 544.421 514.804 544.421C514.736 544.404 514.668 544.391 514.601 544.37Z" fill="#F58520"/>
<path d="M598.346 544.692C598.35 544.738 598.354 544.785 598.362 544.831C591.514 545.899 584.67 546.987 577.821 548.033C570.287 549.181 562.743 550.295 555.205 551.413C546.374 552.726 537.556 554.09 528.713 555.305C524.045 555.945 519.45 557.152 514.698 557.173C514.66 568.985 514.668 580.802 514.55 592.614C514.524 595.113 515.028 595.266 517.133 594.042C541.465 579.921 565.865 565.919 590.193 551.794C594.597 549.236 599.29 547.127 603.233 543.807C601.954 544.488 600.594 544.696 599.146 544.692C598.875 544.692 598.612 544.692 598.346 544.692Z" fill="#FF8B13"/>
<path d="M517.464 543.798C516.485 543.798 515.418 543.519 514.597 544.37C514.664 544.391 514.732 544.404 514.8 544.421C542.071 544.421 569.346 544.421 596.618 544.421C596.571 544.273 596.651 544.323 596.753 544.421C597.274 544.421 597.791 544.421 598.312 544.421C598.32 544.51 598.333 544.603 598.341 544.692C598.608 544.692 598.871 544.692 599.138 544.692C600.586 544.696 601.946 544.489 603.225 543.807C574.641 543.802 546.052 543.79 517.464 543.798Z" fill="#F58520"/>
<path d="M586.728 545.687C588.066 545.492 589.413 545.365 590.79 545.251C589.299 545.323 587.808 545.331 586.317 545.331C563.98 545.348 541.643 545.348 519.306 545.327C517.709 545.327 516.041 545.568 514.66 544.416C514.673 548.669 514.685 552.921 514.698 557.169C517.193 555.555 520.124 555.678 522.877 555.276C544.172 552.154 565.424 548.758 586.728 545.687Z" fill="#DB3D28"/>
<path d="M593.873 544.997C594.843 544.912 595.838 544.815 596.863 544.692C596.495 544.692 596.122 544.692 595.754 544.692C595.131 544.81 594.504 544.916 593.873 544.997Z" fill="#DB3D28"/>
<path d="M596.495 544.539C596.249 544.594 595.999 544.641 595.754 544.687C596.122 544.687 596.495 544.687 596.863 544.687C596.923 544.679 596.978 544.675 597.037 544.666C597.007 544.671 596.872 544.522 596.757 544.416C596.711 544.416 596.664 544.416 596.622 544.416C596.626 544.425 596.622 544.429 596.626 544.442C596.643 544.484 596.596 544.518 596.495 544.539Z" fill="#DB3D28"/>
<path d="M519.306 545.331C541.643 545.348 563.98 545.348 586.317 545.336C587.808 545.336 589.303 545.327 590.79 545.255C591.798 545.17 592.823 545.09 593.873 545.001C594.5 544.921 595.127 544.815 595.754 544.692C570.007 544.641 544.261 544.675 518.514 544.662C517.273 544.662 516.024 544.734 514.804 544.421C514.757 544.421 514.707 544.421 514.66 544.421C516.041 545.573 517.709 545.331 519.306 545.331Z" fill="#DB3D28"/>
<path d="M593.873 544.997C592.823 545.09 591.798 545.166 590.79 545.251C591.823 545.204 592.848 545.128 593.873 544.997Z" fill="#DB3D28"/>
<path d="M555.205 551.413C562.743 550.295 570.287 549.181 577.821 548.034C584.674 546.992 591.518 545.899 598.362 544.832C598.358 544.785 598.354 544.738 598.345 544.692C597.85 544.692 597.359 544.692 596.863 544.688C595.838 544.81 594.843 544.908 593.873 544.993C592.848 545.124 591.819 545.2 590.79 545.247C589.413 545.361 588.066 545.488 586.728 545.683C565.424 548.754 544.167 552.15 522.872 555.276C520.119 555.678 517.188 555.555 514.694 557.169C519.446 557.148 524.041 555.941 528.709 555.301C537.552 554.094 546.374 552.726 555.205 551.413Z" fill="#DB3D28"/>
<path d="M518.514 544.662C544.261 544.675 570.007 544.641 595.754 544.692C595.999 544.645 596.249 544.599 596.495 544.544C596.596 544.522 596.639 544.488 596.626 544.45C596.622 544.438 596.622 544.433 596.622 544.425C569.351 544.425 542.075 544.425 514.804 544.425C516.024 544.734 517.273 544.658 518.514 544.662Z" fill="#DB3D28"/>
<path d="M596.863 544.692C597.359 544.692 597.85 544.692 598.346 544.696C598.337 544.607 598.324 544.514 598.316 544.425C597.795 544.425 597.278 544.425 596.757 544.425C596.867 544.531 597.003 544.679 597.037 544.675C596.978 544.679 596.923 544.683 596.863 544.692Z" fill="#DB3D28"/>
<path d="M596.622 544.42C596.668 544.42 596.714 544.42 596.756 544.42C596.655 544.323 596.575 544.273 596.622 544.42Z" fill="#FAAC17"/>
<path d="M382.832 469.608C382.79 471.493 383.107 472.149 385.166 471.472C412.217 462.548 439.28 453.671 466.357 444.832C467.907 444.328 468.631 443.692 468.542 441.909C468.373 438.483 468.491 435.044 468.495 431.613C468.495 428.178 468.402 424.744 468.529 421.317C468.61 419.14 468.254 418.425 465.895 419.403C438.933 430.614 411.937 441.748 384.937 452.862C383.433 453.48 382.777 454.268 382.823 455.983C382.951 460.519 382.938 465.068 382.832 469.608Z" fill="#FF8B13"/>
<path d="M382.862 493.805C382.862 499.836 382.866 499.869 388.893 498.887C414.665 494.673 440.428 490.408 466.213 486.257C468.034 485.965 468.589 485.355 468.538 483.597C468.432 480.061 468.508 476.52 468.508 472.984C468.504 472.984 468.495 472.984 468.491 472.984C468.491 470.354 468.491 467.728 468.491 465.098C468.491 460.151 468.487 460.125 463.633 461.332C437.611 467.808 411.598 474.314 385.559 480.739C383.421 481.268 382.671 482.204 382.815 484.406C383.014 487.524 382.866 490.67 382.862 493.805Z" fill="#FF8B13"/>
<path d="M386.851 442.451C396.804 437.572 406.761 432.702 416.706 427.81C433.262 419.665 449.809 411.504 466.365 403.359C467.47 402.817 468.525 402.394 468.516 400.818C468.47 392.966 468.495 385.11 468.495 376.639C461.808 380.476 455.692 383.958 449.597 387.486C428.044 399.95 406.494 412.432 384.945 424.909C384.106 425.396 382.916 425.599 382.912 426.874C382.887 432.57 382.899 438.267 382.899 444.345C384.517 443.565 385.69 443.019 386.851 442.451Z" fill="#FF8B13"/>
<path d="M465.162 502.059C454.519 503.148 443.854 504.033 433.198 504.96C417.108 506.362 401.018 507.781 384.916 509.073C383.048 509.221 382.819 509.979 382.84 511.5C382.9 515.743 383.014 519.996 382.806 524.231C382.679 526.81 383.289 527.662 386.08 527.623C399.218 527.454 412.36 527.547 425.498 527.547C438.941 527.547 452.384 527.501 465.827 527.594C467.953 527.607 468.576 526.997 468.538 524.879C468.411 518.31 468.347 511.737 468.559 505.172C468.648 502.402 467.86 501.784 465.162 502.059Z" fill="#FF8B13"/>
<path d="M258.5 582.814L265.73 582.111C266.166 584.538 267.047 586.321 268.377 587.46C269.707 588.599 271.502 589.167 273.764 589.167C276.157 589.167 277.961 588.659 279.177 587.646C280.392 586.634 280.998 585.448 280.998 584.093C280.998 583.225 280.744 582.483 280.231 581.869C279.719 581.259 278.829 580.726 277.559 580.277C276.686 579.976 274.704 579.438 271.608 578.672C267.623 577.685 264.828 576.469 263.222 575.029C260.961 573.005 259.834 570.536 259.834 567.622C259.834 565.745 260.364 563.992 261.427 562.361C262.49 560.731 264.023 559.486 266.022 558.634C268.021 557.779 270.435 557.355 273.264 557.355C277.885 557.355 281.362 558.368 283.696 560.392C286.03 562.417 287.258 565.123 287.376 568.503L279.943 568.829C279.626 566.936 278.944 565.576 277.898 564.75C276.852 563.92 275.28 563.509 273.188 563.509C271.028 563.509 269.338 563.954 268.114 564.839C267.326 565.407 266.933 566.169 266.933 567.122C266.933 567.994 267.301 568.736 268.038 569.358C268.974 570.146 271.253 570.963 274.869 571.819C278.486 572.674 281.159 573.555 282.891 574.466C284.623 575.377 285.979 576.626 286.957 578.206C287.935 579.79 288.427 581.742 288.427 584.067C288.427 586.177 287.842 588.15 286.669 589.993C285.496 591.835 283.84 593.203 281.697 594.097C279.554 594.99 276.885 595.439 273.688 595.439C269.033 595.439 265.459 594.363 262.968 592.212C260.474 590.065 258.983 586.931 258.5 582.814Z" fill="#FF8B13"/>
<path d="M302.967 594.791V564.208H292.044V557.982H321.293V564.208H310.395V594.791H302.967Z" fill="#FF8B13"/>
<path d="M324.583 576.613C324.583 572.865 325.143 569.718 326.265 567.173C327.104 565.297 328.243 563.615 329.691 562.124C331.14 560.633 332.724 559.528 334.448 558.808C336.739 557.838 339.386 557.351 342.38 557.351C347.801 557.351 352.143 559.032 355.4 562.4C358.657 565.762 360.283 570.442 360.283 576.435C360.283 582.378 358.669 587.028 355.438 590.382C352.206 593.737 347.89 595.418 342.482 595.418C337.01 595.418 332.656 593.749 329.424 590.408C326.197 587.07 324.583 582.471 324.583 576.613ZM332.241 576.359C332.241 580.527 333.202 583.686 335.129 585.838C337.052 587.989 339.496 589.065 342.461 589.065C345.425 589.065 347.857 587.998 349.754 585.863C351.651 583.729 352.604 580.527 352.604 576.257C352.604 572.039 351.681 568.892 349.83 566.817C347.979 564.742 345.523 563.704 342.461 563.704C339.399 563.704 336.929 564.754 335.053 566.855C333.181 568.956 332.241 572.124 332.241 576.359Z" fill="#FF8B13"/>
<path d="M366.111 594.791V557.982H381.752C385.686 557.982 388.545 558.313 390.328 558.973C392.111 559.634 393.539 560.811 394.61 562.501C395.682 564.191 396.215 566.127 396.215 568.299C396.215 571.061 395.402 573.344 393.78 575.139C392.158 576.939 389.731 578.074 386.5 578.54C388.105 579.476 389.435 580.506 390.481 581.628C391.527 582.75 392.937 584.741 394.712 587.604L399.206 594.787H390.316L384.941 586.778C383.031 583.915 381.726 582.111 381.023 581.365C380.32 580.62 379.575 580.112 378.787 579.832C377.999 579.557 376.754 579.417 375.047 579.417H373.54V594.783H366.111V594.791ZM373.544 573.547H379.041C382.607 573.547 384.831 573.394 385.72 573.094C386.606 572.793 387.3 572.272 387.804 571.535C388.308 570.798 388.558 569.879 388.558 568.774C388.558 567.537 388.228 566.533 387.567 565.775C386.906 565.013 385.974 564.534 384.767 564.331C384.166 564.246 382.358 564.204 379.342 564.204H373.544V573.547Z" fill="#FF8B13"/>
<path d="M436.417 594.791H428.332L425.117 586.431H410.404L407.367 594.791H399.485L413.822 557.982H421.682L436.417 594.791ZM422.733 580.226L417.659 566.567L412.686 580.226H422.733Z" fill="#FF8B13"/>
<path d="M457.479 581.255V575.055H473.497V589.717C471.939 591.225 469.685 592.551 466.729 593.699C463.773 594.846 460.783 595.418 457.754 595.418C453.905 595.418 450.55 594.609 447.687 592.995C444.824 591.382 442.673 589.069 441.233 586.067C439.793 583.064 439.073 579.794 439.073 576.262C439.073 572.429 439.877 569.024 441.482 566.042C443.088 563.065 445.442 560.777 448.538 559.189C450.897 557.969 453.837 557.355 457.352 557.355C461.922 557.355 465.492 558.313 468.059 560.231C470.63 562.15 472.282 564.797 473.019 568.177L465.636 569.557C465.115 567.749 464.141 566.321 462.71 565.275C461.278 564.229 459.491 563.704 457.348 563.704C454.099 563.704 451.52 564.733 449.601 566.792C447.683 568.85 446.726 571.904 446.726 575.957C446.726 580.328 447.696 583.602 449.64 585.787C451.579 587.972 454.125 589.065 457.272 589.065C458.83 589.065 460.389 588.76 461.956 588.15C463.519 587.54 464.866 586.799 465.984 585.927V581.255H457.479Z" fill="#FF8B13"/>
<path d="M480.354 594.791V557.982H507.646V564.208H487.787V572.37H506.266V578.57H487.787V588.587H508.35V594.787H480.354V594.791Z" fill="#FF8B13"/>
<path d="M260.385 644.281V607.472H272.307C276.826 607.472 279.774 607.658 281.146 608.022C283.255 608.573 285.022 609.776 286.445 611.627C287.868 613.477 288.579 615.866 288.579 618.793C288.579 621.054 288.168 622.952 287.351 624.494C286.529 626.035 285.487 627.242 284.225 628.123C282.963 629.004 281.676 629.584 280.371 629.868C278.597 630.22 276.026 630.398 272.663 630.398H267.813V644.281H260.385ZM267.813 613.698V624.142H271.879C274.81 624.142 276.767 623.951 277.754 623.566C278.741 623.181 279.516 622.579 280.075 621.758C280.634 620.936 280.917 619.983 280.917 618.894C280.917 617.556 280.524 616.451 279.736 615.578C278.948 614.71 277.953 614.164 276.75 613.948C275.861 613.782 274.082 613.698 271.401 613.698H267.813Z" fill="#1D2126"/>
<path d="M327.875 644.281H319.789L316.575 635.92H301.861L298.825 644.281H290.938L305.275 607.472H313.136L327.875 644.281ZM314.19 629.716L309.116 616.057L304.144 629.716H314.19Z" fill="#1D2126"/>
<path d="M331.839 644.281V607.472H347.48C351.414 607.472 354.273 607.802 356.056 608.463C357.839 609.124 359.266 610.301 360.338 611.991C361.41 613.681 361.943 615.616 361.943 617.789C361.943 620.55 361.13 622.833 359.508 624.629C357.886 626.429 355.459 627.564 352.227 628.03C353.833 628.966 355.162 629.995 356.209 631.118C357.255 632.24 358.665 634.23 360.44 637.094L364.933 644.277H356.043L350.669 636.268C348.759 633.405 347.454 631.6 346.751 630.855C346.048 630.11 345.303 629.601 344.515 629.322C343.727 629.046 342.482 628.907 340.775 628.907H339.267V644.272H331.839V644.281ZM339.272 623.041H344.769C348.335 623.041 350.559 622.888 351.448 622.588C352.333 622.287 353.028 621.766 353.532 621.029C354.036 620.292 354.286 619.373 354.286 618.268C354.286 617.031 353.955 616.027 353.295 615.269C352.634 614.507 351.702 614.028 350.495 613.825C349.894 613.74 348.085 613.698 345.07 613.698H339.272V623.041Z" fill="#1D2126"/>
<path d="M369.05 644.281V607.472H376.483V623.816L391.497 607.472H401.488L387.63 621.808L402.242 644.281H392.624L382.506 627.005L376.479 633.155V644.277H369.05V644.281Z" fill="#1D2126"/>
<path d="M760.534 343L754.083 320.455H759.29L763.022 336.12H763.21L767.327 320.455H771.785L775.891 336.153H776.089L779.821 320.455H785.028L778.577 343H773.932L769.638 328.26H769.462L765.18 343H760.534ZM787.58 343V320.455H802.771V324.385H792.346V329.757H801.99V333.687H792.346V339.07H802.815V343H787.58ZM806.561 343V320.455H811.328V339.07H820.993V343H806.561ZM843.164 328.348H838.343C838.255 327.724 838.075 327.17 837.803 326.685C837.532 326.194 837.183 325.775 836.757 325.43C836.332 325.085 835.84 324.821 835.282 324.638C834.732 324.454 834.134 324.363 833.488 324.363C832.321 324.363 831.305 324.652 830.439 325.232C829.573 325.805 828.901 326.641 828.424 327.742C827.947 328.836 827.708 330.164 827.708 331.727C827.708 333.335 827.947 334.685 828.424 335.778C828.908 336.872 829.584 337.698 830.45 338.255C831.316 338.813 832.317 339.092 833.455 339.092C834.093 339.092 834.684 339.008 835.227 338.839C835.778 338.67 836.266 338.424 836.691 338.101C837.117 337.771 837.469 337.371 837.748 336.901C838.034 336.432 838.233 335.896 838.343 335.294L843.164 335.316C843.04 336.351 842.728 337.349 842.229 338.31C841.737 339.264 841.073 340.119 840.236 340.875C839.407 341.624 838.416 342.218 837.264 342.659C836.119 343.092 834.824 343.308 833.378 343.308C831.367 343.308 829.569 342.853 827.984 341.943C826.406 341.033 825.158 339.716 824.241 337.991C823.331 336.266 822.876 334.179 822.876 331.727C822.876 329.269 823.338 327.177 824.263 325.452C825.188 323.728 826.442 322.414 828.028 321.511C829.613 320.601 831.396 320.146 833.378 320.146C834.684 320.146 835.895 320.33 837.011 320.697C838.134 321.064 839.128 321.599 839.994 322.304C840.86 323.001 841.565 323.856 842.108 324.869C842.658 325.882 843.01 327.041 843.164 328.348ZM867.301 331.727C867.301 334.186 866.835 336.277 865.903 338.002C864.978 339.727 863.715 341.044 862.116 341.954C860.523 342.857 858.732 343.308 856.743 343.308C854.74 343.308 852.942 342.853 851.349 341.943C849.757 341.033 848.498 339.716 847.573 337.991C846.649 336.266 846.186 334.179 846.186 331.727C846.186 329.269 846.649 327.177 847.573 325.452C848.498 323.728 849.757 322.414 851.349 321.511C852.942 320.601 854.74 320.146 856.743 320.146C858.732 320.146 860.523 320.601 862.116 321.511C863.715 322.414 864.978 323.728 865.903 325.452C866.835 327.177 867.301 329.269 867.301 331.727ZM862.468 331.727C862.468 330.135 862.229 328.792 861.752 327.698C861.283 326.605 860.618 325.775 859.76 325.21C858.901 324.645 857.896 324.363 856.743 324.363C855.591 324.363 854.586 324.645 853.727 325.21C852.868 325.775 852.201 326.605 851.724 327.698C851.254 328.792 851.019 330.135 851.019 331.727C851.019 333.32 851.254 334.663 851.724 335.756C852.201 336.85 852.868 337.679 853.727 338.244C854.586 338.809 855.591 339.092 856.743 339.092C857.896 339.092 858.901 338.809 859.76 338.244C860.618 337.679 861.283 336.85 861.752 335.756C862.229 334.663 862.468 333.32 862.468 331.727ZM870.832 320.455H876.71L882.919 335.602H883.183L889.392 320.455H895.271V343H890.647V328.326H890.46L884.625 342.89H881.477L875.642 328.271H875.455V343H870.832V320.455ZM899.198 343V320.455H914.39V324.385H903.964V329.757H913.608V333.687H903.964V339.07H914.434V343H899.198ZM925.354 343V320.455H934.381C936.04 320.455 937.423 320.7 938.531 321.192C939.639 321.684 940.472 322.366 941.03 323.24C941.588 324.106 941.867 325.104 941.867 326.234C941.867 327.115 941.691 327.889 941.338 328.557C940.986 329.217 940.502 329.76 939.885 330.186C939.276 330.604 938.579 330.902 937.794 331.078V331.298C938.652 331.335 939.456 331.577 940.205 332.025C940.96 332.472 941.573 333.1 942.043 333.907C942.513 334.707 942.748 335.661 942.748 336.769C942.748 337.965 942.45 339.033 941.856 339.973C941.269 340.905 940.399 341.642 939.247 342.185C938.095 342.728 936.674 343 934.987 343H925.354ZM930.121 339.103H934.007C935.335 339.103 936.304 338.85 936.913 338.343C937.522 337.83 937.827 337.147 937.827 336.296C937.827 335.672 937.676 335.122 937.375 334.645C937.074 334.167 936.645 333.793 936.087 333.522C935.537 333.25 934.88 333.114 934.117 333.114H930.121V339.103ZM930.121 329.889H933.654C934.308 329.889 934.887 329.775 935.394 329.548C935.908 329.313 936.311 328.982 936.605 328.557C936.906 328.131 937.056 327.621 937.056 327.027C937.056 326.212 936.766 325.555 936.186 325.056C935.614 324.557 934.799 324.308 933.743 324.308H930.121V329.889ZM949.735 343H944.627L952.41 320.455H958.553L966.325 343H961.217L955.57 325.607H955.394L949.735 343ZM949.416 334.138H961.481V337.859H949.416V334.138ZM987.871 328.348H983.05C982.962 327.724 982.782 327.17 982.51 326.685C982.239 326.194 981.89 325.775 981.464 325.43C981.039 325.085 980.547 324.821 979.989 324.638C979.439 324.454 978.841 324.363 978.195 324.363C977.028 324.363 976.012 324.652 975.146 325.232C974.28 325.805 973.608 326.641 973.131 327.742C972.654 328.836 972.415 330.164 972.415 331.727C972.415 333.335 972.654 334.685 973.131 335.778C973.615 336.872 974.291 337.698 975.157 338.255C976.023 338.813 977.024 339.092 978.162 339.092C978.8 339.092 979.391 339.008 979.934 338.839C980.485 338.67 980.973 338.424 981.398 338.101C981.824 337.771 982.176 337.371 982.455 336.901C982.741 336.432 982.94 335.896 983.05 335.294L987.871 335.316C987.747 336.351 987.435 337.349 986.936 338.31C986.444 339.264 985.78 340.119 984.943 340.875C984.114 341.624 983.123 342.218 981.971 342.659C980.826 343.092 979.531 343.308 978.085 343.308C976.074 343.308 974.276 342.853 972.691 341.943C971.113 341.033 969.865 339.716 968.948 337.991C968.038 336.266 967.583 334.179 967.583 331.727C967.583 329.269 968.045 327.177 968.97 325.452C969.895 323.728 971.15 322.414 972.735 321.511C974.32 320.601 976.103 320.146 978.085 320.146C979.391 320.146 980.602 320.33 981.718 320.697C982.841 321.064 983.835 321.599 984.701 322.304C985.567 323.001 986.272 323.856 986.815 324.869C987.365 325.882 987.717 327.041 987.871 328.348ZM991.29 343V320.455H996.056V330.395H996.354L1004.47 320.455H1010.18L1001.81 330.549L1010.28 343H1004.58L998.401 333.731L996.056 336.593V343H991.29ZM1018.18 320.455L1017.75 336.241H1013.72L1013.28 320.455H1018.18ZM1015.73 343.286C1015.01 343.286 1014.38 343.029 1013.86 342.516C1013.34 341.995 1013.08 341.371 1013.09 340.644C1013.08 339.925 1013.34 339.308 1013.86 338.795C1014.38 338.281 1015.01 338.024 1015.73 338.024C1016.43 338.024 1017.04 338.281 1017.57 338.795C1018.1 339.308 1018.37 339.925 1018.38 340.644C1018.37 341.129 1018.24 341.573 1017.99 341.976C1017.75 342.373 1017.43 342.692 1017.03 342.934C1016.64 343.169 1016.2 343.286 1015.73 343.286Z" fill="#1D2126"/>
<path d="M756.362 372L753.777 362.545H754.94L756.916 370.246H757.009L759.021 362.545H760.314L762.327 370.246H762.419L764.395 362.545H765.558L762.973 372H761.791L759.705 364.466H759.631L757.544 372H756.362ZM766.985 372V362.545H772.691V363.561H768.13V366.756H772.395V367.771H768.13V370.984H772.765V372H766.985ZM786.018 365.5H784.874C784.806 365.171 784.687 364.881 784.518 364.632C784.352 364.383 784.149 364.174 783.909 364.004C783.672 363.832 783.409 363.703 783.119 363.616C782.83 363.53 782.528 363.487 782.214 363.487C781.642 363.487 781.123 363.632 780.659 363.921C780.197 364.21 779.829 364.637 779.555 365.2C779.285 365.763 779.149 366.454 779.149 367.273C779.149 368.091 779.285 368.782 779.555 369.346C779.829 369.909 780.197 370.335 780.659 370.624C781.123 370.914 781.642 371.058 782.214 371.058C782.528 371.058 782.83 371.015 783.119 370.929C783.409 370.843 783.672 370.715 783.909 370.546C784.149 370.373 784.352 370.163 784.518 369.913C784.687 369.661 784.806 369.372 784.874 369.045H786.018C785.932 369.529 785.775 369.961 785.548 370.343C785.32 370.724 785.037 371.049 784.698 371.317C784.36 371.581 783.98 371.783 783.558 371.922C783.139 372.06 782.692 372.129 782.214 372.129C781.408 372.129 780.691 371.932 780.063 371.538C779.435 371.144 778.941 370.584 778.581 369.858C778.221 369.132 778.041 368.27 778.041 367.273C778.041 366.276 778.221 365.414 778.581 364.688C778.941 363.961 779.435 363.401 780.063 363.007C780.691 362.613 781.408 362.416 782.214 362.416C782.692 362.416 783.139 362.485 783.558 362.624C783.98 362.762 784.36 362.966 784.698 363.233C785.037 363.498 785.32 363.821 785.548 364.203C785.775 364.581 785.932 365.014 786.018 365.5ZM788.256 372H787.056L790.528 362.545H791.709L795.181 372H793.981L791.155 364.041H791.082L788.256 372ZM788.699 368.307H793.538V369.322H788.699V368.307ZM804.151 362.545V372H803.043L797.891 364.577H797.799V372H796.654V362.545H797.762L802.932 369.987H803.024V362.545H804.151ZM807.254 362.545V363.376C807.254 363.629 807.208 363.898 807.116 364.184C807.027 364.467 806.894 364.743 806.719 365.011C806.546 365.275 806.337 365.506 806.091 365.703L805.5 365.223C805.694 364.946 805.862 364.658 806.003 364.36C806.148 364.058 806.22 363.737 806.22 363.395V362.545H807.254ZM808.324 363.561V362.545H815.415V363.561H812.442V372H811.297V363.561H808.324ZM822.556 372L819.97 362.545H821.134L823.11 370.246H823.202L825.215 362.545H826.507L828.52 370.246H828.612L830.588 362.545H831.752L829.166 372H827.985L825.898 364.466H825.824L823.737 372H822.556ZM832.83 372H831.629L835.101 362.545H836.283L839.754 372H838.554L835.729 364.041H835.655L832.83 372ZM833.273 368.307H838.111V369.322H833.273V368.307ZM842.372 362.545V372H841.227V362.545H842.372ZM844.15 363.561V362.545H851.241V363.561H848.268V372H847.123V363.561H844.15ZM856.664 372V362.545H862.333V363.561H857.809V366.756H861.909V367.771H857.809V372H856.664ZM872.272 367.273C872.272 368.27 872.092 369.132 871.731 369.858C871.371 370.584 870.877 371.144 870.25 371.538C869.622 371.932 868.905 372.129 868.098 372.129C867.292 372.129 866.575 371.932 865.947 371.538C865.319 371.144 864.825 370.584 864.465 369.858C864.105 369.132 863.925 368.27 863.925 367.273C863.925 366.276 864.105 365.414 864.465 364.688C864.825 363.961 865.319 363.401 865.947 363.007C866.575 362.613 867.292 362.416 868.098 362.416C868.905 362.416 869.622 362.613 870.25 363.007C870.877 363.401 871.371 363.961 871.731 364.688C872.092 365.414 872.272 366.276 872.272 367.273ZM871.164 367.273C871.164 366.454 871.027 365.763 870.753 365.2C870.482 364.637 870.114 364.21 869.649 363.921C869.188 363.632 868.671 363.487 868.098 363.487C867.526 363.487 867.007 363.632 866.543 363.921C866.081 364.21 865.713 364.637 865.439 365.2C865.168 365.763 865.033 366.454 865.033 367.273C865.033 368.091 865.168 368.782 865.439 369.346C865.713 369.909 866.081 370.335 866.543 370.624C867.007 370.914 867.526 371.058 868.098 371.058C868.671 371.058 869.188 370.914 869.649 370.624C870.114 370.335 870.482 369.909 870.753 369.346C871.027 368.782 871.164 368.091 871.164 367.273ZM874.197 372V362.545H877.391C878.13 362.545 878.736 362.672 879.21 362.924C879.684 363.173 880.035 363.516 880.263 363.953C880.49 364.391 880.604 364.888 880.604 365.445C880.604 366.002 880.49 366.496 880.263 366.926C880.035 367.357 879.686 367.696 879.215 367.942C878.744 368.185 878.142 368.307 877.41 368.307H874.824V367.273H877.373C877.878 367.273 878.284 367.199 878.592 367.051C878.902 366.903 879.127 366.694 879.266 366.423C879.407 366.149 879.478 365.823 879.478 365.445C879.478 365.066 879.407 364.735 879.266 364.452C879.124 364.169 878.898 363.95 878.587 363.797C878.276 363.64 877.865 363.561 877.354 363.561H875.342V372H874.197ZM878.647 367.753L880.974 372H879.644L877.354 367.753H878.647ZM885.356 362.545H886.667L889.289 366.959H889.4L892.022 362.545H893.333L889.917 368.104V372H888.772V368.104L885.356 362.545ZM902.347 367.273C902.347 368.27 902.167 369.132 901.807 369.858C901.447 370.584 900.953 371.144 900.325 371.538C899.697 371.932 898.98 372.129 898.173 372.129C897.367 372.129 896.65 371.932 896.022 371.538C895.394 371.144 894.9 370.584 894.54 369.858C894.18 369.132 894 368.27 894 367.273C894 366.276 894.18 365.414 894.54 364.688C894.9 363.961 895.394 363.401 896.022 363.007C896.65 362.613 897.367 362.416 898.173 362.416C898.98 362.416 899.697 362.613 900.325 363.007C900.953 363.401 901.447 363.961 901.807 364.688C902.167 365.414 902.347 366.276 902.347 367.273ZM901.239 367.273C901.239 366.454 901.102 365.763 900.828 365.2C900.557 364.637 900.189 364.21 899.725 363.921C899.263 363.632 898.746 363.487 898.173 363.487C897.601 363.487 897.082 363.632 896.618 363.921C896.156 364.21 895.788 364.637 895.514 365.2C895.244 365.763 895.108 366.454 895.108 367.273C895.108 368.091 895.244 368.782 895.514 369.346C895.788 369.909 896.156 370.335 896.618 370.624C897.082 370.914 897.601 371.058 898.173 371.058C898.746 371.058 899.263 370.914 899.725 370.624C900.189 370.335 900.557 369.909 900.828 369.346C901.102 368.782 901.239 368.091 901.239 367.273ZM910.476 362.545H911.621V368.805C911.621 369.452 911.469 370.029 911.164 370.537C910.863 371.041 910.436 371.44 909.885 371.732C909.335 372.022 908.688 372.166 907.947 372.166C907.205 372.166 906.559 372.022 906.008 371.732C905.457 371.44 905.029 371.041 904.724 370.537C904.423 370.029 904.272 369.452 904.272 368.805V362.545H905.417V368.713C905.417 369.175 905.518 369.586 905.721 369.946C905.925 370.303 906.214 370.584 906.589 370.79C906.968 370.994 907.42 371.095 907.947 371.095C908.473 371.095 908.925 370.994 909.304 370.79C909.682 370.584 909.972 370.303 910.172 369.946C910.375 369.586 910.476 369.175 910.476 368.713V362.545ZM917.047 363.561V362.545H924.138V363.561H921.165V372H920.02V363.561H917.047ZM933.488 367.273C933.488 368.27 933.308 369.132 932.948 369.858C932.588 370.584 932.094 371.144 931.466 371.538C930.839 371.932 930.121 372.129 929.315 372.129C928.509 372.129 927.792 371.932 927.164 371.538C926.536 371.144 926.042 370.584 925.682 369.858C925.322 369.132 925.142 368.27 925.142 367.273C925.142 366.276 925.322 365.414 925.682 364.688C926.042 363.961 926.536 363.401 927.164 363.007C927.792 362.613 928.509 362.416 929.315 362.416C930.121 362.416 930.839 362.613 931.466 363.007C932.094 363.401 932.588 363.961 932.948 364.688C933.308 365.414 933.488 366.276 933.488 367.273ZM932.38 367.273C932.38 366.454 932.243 365.763 931.97 365.2C931.699 364.637 931.331 364.21 930.866 363.921C930.405 363.632 929.888 363.487 929.315 363.487C928.743 363.487 928.224 363.632 927.759 363.921C927.298 364.21 926.93 364.637 926.656 365.2C926.385 365.763 926.25 366.454 926.25 367.273C926.25 368.091 926.385 368.782 926.656 369.346C926.93 369.909 927.298 370.335 927.759 370.624C928.224 370.914 928.743 371.058 929.315 371.058C929.888 371.058 930.405 370.914 930.866 370.624C931.331 370.335 931.699 369.909 931.97 369.346C932.243 368.782 932.38 368.091 932.38 367.273ZM944.24 364.909C944.185 364.441 943.96 364.078 943.566 363.82C943.172 363.561 942.689 363.432 942.117 363.432C941.698 363.432 941.332 363.5 941.018 363.635C940.707 363.77 940.464 363.957 940.288 364.194C940.116 364.431 940.03 364.7 940.03 365.001C940.03 365.254 940.09 365.471 940.21 365.652C940.333 365.831 940.49 365.98 940.681 366.1C940.872 366.217 941.072 366.314 941.281 366.391C941.49 366.465 941.683 366.525 941.858 366.571L942.818 366.83C943.064 366.894 943.338 366.983 943.64 367.097C943.945 367.211 944.236 367.367 944.513 367.564C944.793 367.757 945.023 368.007 945.205 368.311C945.387 368.616 945.477 368.99 945.477 369.433C945.477 369.944 945.343 370.406 945.076 370.818C944.811 371.231 944.423 371.558 943.912 371.801C943.405 372.045 942.787 372.166 942.061 372.166C941.384 372.166 940.798 372.057 940.302 371.838C939.81 371.62 939.422 371.315 939.139 370.924C938.859 370.533 938.7 370.08 938.663 369.562H939.845C939.876 369.92 939.996 370.215 940.205 370.449C940.418 370.68 940.685 370.852 941.009 370.966C941.335 371.077 941.686 371.132 942.061 371.132C942.498 371.132 942.891 371.061 943.238 370.92C943.586 370.775 943.862 370.575 944.065 370.32C944.268 370.061 944.369 369.759 944.369 369.415C944.369 369.101 944.282 368.845 944.106 368.648C943.931 368.451 943.7 368.291 943.414 368.168C943.128 368.045 942.818 367.937 942.486 367.845L941.323 367.513C940.584 367.3 939.999 366.997 939.568 366.603C939.137 366.209 938.922 365.694 938.922 365.057C938.922 364.527 939.065 364.066 939.351 363.672C939.641 363.275 940.028 362.967 940.515 362.749C941.004 362.527 941.55 362.416 942.153 362.416C942.763 362.416 943.305 362.525 943.778 362.744C944.252 362.959 944.628 363.255 944.905 363.63C945.185 364.006 945.333 364.432 945.348 364.909H944.24ZM947.36 372V362.545H953.066V363.561H948.505V366.756H952.77V367.771H948.505V370.984H953.14V372H947.36ZM955.129 372V362.545H960.835V363.561H956.274V366.756H960.54V367.771H956.274V370.984H960.909V372H955.129ZM968.272 372L965.687 362.545H966.85L968.826 370.246H968.919L970.931 362.545H972.224L974.237 370.246H974.329L976.305 362.545H977.468L974.883 372H973.701L971.615 364.466H971.541L969.454 372H968.272ZM978.895 372V362.545H980.04V366.756H985.081V362.545H986.226V372H985.081V367.771H980.04V372H978.895ZM988.906 372H987.705L991.177 362.545H992.359L995.83 372H994.63L991.805 364.041H991.731L988.906 372ZM989.349 368.307H994.187V369.322H989.349V368.307ZM995.682 363.561V362.545H1002.77V363.561H999.799V372H998.655V363.561H995.682ZM1005.35 362.545V363.376C1005.35 363.629 1005.31 363.898 1005.21 364.184C1005.12 364.467 1004.99 364.743 1004.82 365.011C1004.64 365.275 1004.43 365.506 1004.19 365.703L1003.6 365.223C1003.79 364.946 1003.96 364.658 1004.1 364.36C1004.25 364.058 1004.32 363.737 1004.32 363.395V362.545H1005.35ZM1012.11 364.909C1012.05 364.441 1011.83 364.078 1011.44 363.82C1011.04 363.561 1010.56 363.432 1009.99 363.432C1009.57 363.432 1009.2 363.5 1008.89 363.635C1008.58 363.77 1008.33 363.957 1008.16 364.194C1007.99 364.431 1007.9 364.7 1007.9 365.001C1007.9 365.254 1007.96 365.471 1008.08 365.652C1008.2 365.831 1008.36 365.98 1008.55 366.1C1008.74 366.217 1008.94 366.314 1009.15 366.391C1009.36 366.465 1009.55 366.525 1009.73 366.571L1010.69 366.83C1010.93 366.894 1011.21 366.983 1011.51 367.097C1011.81 367.211 1012.1 367.367 1012.38 367.564C1012.66 367.757 1012.89 368.007 1013.07 368.311C1013.26 368.616 1013.35 368.99 1013.35 369.433C1013.35 369.944 1013.21 370.406 1012.94 370.818C1012.68 371.231 1012.29 371.558 1011.78 371.801C1011.27 372.045 1010.66 372.166 1009.93 372.166C1009.25 372.166 1008.67 372.057 1008.17 371.838C1007.68 371.62 1007.29 371.315 1007.01 370.924C1006.73 370.533 1006.57 370.08 1006.53 369.562H1007.71C1007.75 369.92 1007.87 370.215 1008.07 370.449C1008.29 370.68 1008.55 370.852 1008.88 370.966C1009.2 371.077 1009.55 371.132 1009.93 371.132C1010.37 371.132 1010.76 371.061 1011.11 370.92C1011.46 370.775 1011.73 370.575 1011.93 370.32C1012.14 370.061 1012.24 369.759 1012.24 369.415C1012.24 369.101 1012.15 368.845 1011.98 368.648C1011.8 368.451 1011.57 368.291 1011.28 368.168C1011 368.045 1010.69 367.937 1010.36 367.845L1009.19 367.513C1008.45 367.3 1007.87 366.997 1007.44 366.603C1007.01 366.209 1006.79 365.694 1006.79 365.057C1006.79 364.527 1006.93 364.066 1007.22 363.672C1007.51 363.275 1007.9 362.967 1008.38 362.749C1008.87 362.527 1009.42 362.416 1010.02 362.416C1010.63 362.416 1011.17 362.525 1011.65 362.744C1012.12 362.959 1012.5 363.255 1012.77 363.63C1013.05 364.006 1013.2 364.432 1013.22 364.909H1012.11ZM1026.38 362.545V372H1025.27L1020.12 364.577H1020.03V372H1018.89V362.545H1019.99L1025.16 369.987H1025.26V362.545H1026.38ZM1028.67 372V362.545H1034.38V363.561H1029.82V366.756H1034.08V367.771H1029.82V370.984H1034.45V372H1028.67ZM1038.16 372L1035.57 362.545H1036.74L1038.71 370.246H1038.81L1040.82 362.545H1042.11L1044.12 370.246H1044.22L1046.19 362.545H1047.36L1044.77 372H1043.59L1041.5 364.466H1041.43L1039.34 372H1038.16ZM1048.17 372.074C1047.94 372.074 1047.75 371.992 1047.59 371.829C1047.42 371.666 1047.34 371.471 1047.34 371.243C1047.34 371.015 1047.42 370.82 1047.59 370.657C1047.75 370.493 1047.94 370.412 1048.17 370.412C1048.4 370.412 1048.6 370.493 1048.76 370.657C1048.92 370.82 1049 371.015 1049 371.243C1049 371.394 1048.96 371.532 1048.89 371.658C1048.81 371.785 1048.71 371.886 1048.59 371.963C1048.46 372.037 1048.33 372.074 1048.17 372.074ZM1054.76 372V362.545H1055.91V366.756H1060.95V362.545H1062.09V372H1060.95V367.771H1055.91V372H1054.76ZM1064.77 372H1063.57L1067.04 362.545H1068.23L1071.7 372H1070.5L1067.67 364.041H1067.6L1064.77 372ZM1065.22 368.307H1070.05V369.322H1065.22V368.307ZM1073.17 372V362.545H1076.36C1077.11 362.545 1077.71 362.679 1078.18 362.947C1078.66 363.212 1079.01 363.57 1079.24 364.023C1079.46 364.475 1079.58 364.98 1079.58 365.537C1079.58 366.094 1079.46 366.6 1079.24 367.056C1079.01 367.511 1078.66 367.874 1078.19 368.145C1077.72 368.413 1077.12 368.547 1076.38 368.547H1074.09V367.531H1076.35C1076.85 367.531 1077.26 367.444 1077.57 367.268C1077.88 367.093 1078.1 366.856 1078.24 366.557C1078.38 366.256 1078.45 365.915 1078.45 365.537C1078.45 365.158 1078.38 364.82 1078.24 364.521C1078.1 364.223 1077.88 363.989 1077.57 363.82C1077.25 363.647 1076.84 363.561 1076.33 363.561H1074.32V372H1073.17ZM1081.42 372V362.545H1084.62C1085.36 362.545 1085.96 362.679 1086.44 362.947C1086.91 363.212 1087.26 363.57 1087.49 364.023C1087.72 364.475 1087.83 364.98 1087.83 365.537C1087.83 366.094 1087.72 366.6 1087.49 367.056C1087.26 367.511 1086.92 367.874 1086.44 368.145C1085.97 368.413 1085.37 368.547 1084.64 368.547H1082.35V367.531H1084.6C1085.11 367.531 1085.51 367.444 1085.82 367.268C1086.13 367.093 1086.35 366.856 1086.49 366.557C1086.63 366.256 1086.7 365.915 1086.7 365.537C1086.7 365.158 1086.63 364.82 1086.49 364.521C1086.35 364.223 1086.13 363.989 1085.82 363.82C1085.51 363.647 1085.09 363.561 1084.58 363.561H1082.57V372H1081.42ZM1088.86 362.545H1090.17L1092.79 366.959H1092.91L1095.53 362.545H1096.84L1093.42 368.104V372H1092.28V368.104L1088.86 362.545ZM1107.15 364.909C1107.09 364.441 1106.87 364.078 1106.47 363.82C1106.08 363.561 1105.6 363.432 1105.02 363.432C1104.6 363.432 1104.24 363.5 1103.92 363.635C1103.61 363.77 1103.37 363.957 1103.19 364.194C1103.02 364.431 1102.94 364.7 1102.94 365.001C1102.94 365.254 1103 365.471 1103.12 365.652C1103.24 365.831 1103.4 365.98 1103.59 366.1C1103.78 366.217 1103.98 366.314 1104.19 366.391C1104.4 366.465 1104.59 366.525 1104.76 366.571L1105.72 366.83C1105.97 366.894 1106.24 366.983 1106.55 367.097C1106.85 367.211 1107.14 367.367 1107.42 367.564C1107.7 367.757 1107.93 368.007 1108.11 368.311C1108.29 368.616 1108.38 368.99 1108.38 369.433C1108.38 369.944 1108.25 370.406 1107.98 370.818C1107.72 371.231 1107.33 371.558 1106.82 371.801C1106.31 372.045 1105.69 372.166 1104.97 372.166C1104.29 372.166 1103.7 372.057 1103.21 371.838C1102.72 371.62 1102.33 371.315 1102.05 370.924C1101.77 370.533 1101.61 370.08 1101.57 369.562H1102.75C1102.78 369.92 1102.9 370.215 1103.11 370.449C1103.32 370.68 1103.59 370.852 1103.91 370.966C1104.24 371.077 1104.59 371.132 1104.97 371.132C1105.4 371.132 1105.8 371.061 1106.14 370.92C1106.49 370.775 1106.77 370.575 1106.97 370.32C1107.17 370.061 1107.28 369.759 1107.28 369.415C1107.28 369.101 1107.19 368.845 1107.01 368.648C1106.84 368.451 1106.61 368.291 1106.32 368.168C1106.03 368.045 1105.72 367.937 1105.39 367.845L1104.23 367.513C1103.49 367.3 1102.91 366.997 1102.47 366.603C1102.04 366.209 1101.83 365.694 1101.83 365.057C1101.83 364.527 1101.97 364.066 1102.26 363.672C1102.55 363.275 1102.93 362.967 1103.42 362.749C1103.91 362.527 1104.46 362.416 1105.06 362.416C1105.67 362.416 1106.21 362.525 1106.68 362.744C1107.16 362.959 1107.53 363.255 1107.81 363.63C1108.09 364.006 1108.24 364.432 1108.25 364.909H1107.15ZM1110.27 372V362.545H1111.41V366.756H1116.45V362.545H1117.6V372H1116.45V367.771H1111.41V372H1110.27ZM1121.03 362.545V372H1119.89V362.545H1121.03ZM1123.33 372V362.545H1126.52C1127.27 362.545 1127.87 362.679 1128.34 362.947C1128.82 363.212 1129.17 363.57 1129.4 364.023C1129.62 364.475 1129.74 364.98 1129.74 365.537C1129.74 366.094 1129.62 366.6 1129.4 367.056C1129.17 367.511 1128.82 367.874 1128.35 368.145C1127.88 368.413 1127.28 368.547 1126.54 368.547H1124.25V367.531H1126.51C1127.01 367.531 1127.42 367.444 1127.73 367.268C1128.04 367.093 1128.26 366.856 1128.4 366.557C1128.54 366.256 1128.61 365.915 1128.61 365.537C1128.61 365.158 1128.54 364.82 1128.4 364.521C1128.26 364.223 1128.04 363.989 1127.72 363.82C1127.41 363.647 1127 363.561 1126.49 363.561H1124.47V372H1123.33ZM1131.58 372V362.545H1134.78C1135.52 362.545 1136.12 362.679 1136.59 362.947C1137.07 363.212 1137.42 363.57 1137.65 364.023C1137.88 364.475 1137.99 364.98 1137.99 365.537C1137.99 366.094 1137.88 366.6 1137.65 367.056C1137.42 367.511 1137.08 367.874 1136.6 368.145C1136.13 368.413 1135.53 368.547 1134.79 368.547H1132.5V367.531H1134.76C1135.27 367.531 1135.67 367.444 1135.98 367.268C1136.29 367.093 1136.51 366.856 1136.65 366.557C1136.79 366.256 1136.86 365.915 1136.86 365.537C1136.86 365.158 1136.79 364.82 1136.65 364.521C1136.51 364.223 1136.29 363.989 1135.98 363.82C1135.67 363.647 1135.25 363.561 1134.74 363.561H1132.73V372H1131.58ZM1140.98 362.545V372H1139.83V362.545H1140.98ZM1150.77 362.545V372H1149.66L1144.51 364.577H1144.42V372H1143.27V362.545H1144.38L1149.55 369.987H1149.64V362.545H1150.77ZM1159.52 365.5C1159.42 365.189 1159.29 364.911 1159.12 364.664C1158.96 364.415 1158.76 364.203 1158.54 364.027C1158.31 363.852 1158.06 363.718 1157.77 363.626C1157.48 363.533 1157.17 363.487 1156.83 363.487C1156.27 363.487 1155.76 363.632 1155.3 363.921C1154.84 364.21 1154.48 364.637 1154.21 365.2C1153.94 365.763 1153.8 366.454 1153.8 367.273C1153.8 368.091 1153.94 368.782 1154.21 369.346C1154.49 369.909 1154.86 370.335 1155.32 370.624C1155.79 370.914 1156.32 371.058 1156.9 371.058C1157.44 371.058 1157.92 370.943 1158.33 370.712C1158.75 370.478 1159.07 370.149 1159.3 369.724C1159.54 369.296 1159.65 368.793 1159.65 368.214L1160.01 368.288H1157.16V367.273H1160.76V368.288C1160.76 369.067 1160.6 369.744 1160.26 370.32C1159.93 370.895 1159.48 371.341 1158.9 371.658C1158.32 371.972 1157.65 372.129 1156.9 372.129C1156.07 372.129 1155.33 371.932 1154.7 371.538C1154.07 371.144 1153.57 370.584 1153.22 369.858C1152.87 369.132 1152.69 368.27 1152.69 367.273C1152.69 366.525 1152.79 365.852 1152.99 365.255C1153.2 364.655 1153.48 364.144 1153.85 363.723C1154.22 363.301 1154.66 362.978 1155.16 362.753C1155.67 362.529 1156.22 362.416 1156.83 362.416C1157.33 362.416 1157.79 362.492 1158.22 362.642C1158.66 362.79 1159.04 363.001 1159.38 363.275C1159.72 363.546 1160.01 363.87 1160.24 364.249C1160.46 364.624 1160.62 365.041 1160.71 365.5H1159.52Z" fill="#1D2126"/>
<path d="M755.222 441V423.545H766.574V426.196H758.384V430.935H765.986V433.585H758.384V438.349H766.642V441H755.222ZM769.663 441V427.909H772.612V430.134H772.766C773.038 429.384 773.49 428.798 774.121 428.378C774.751 427.952 775.504 427.739 776.379 427.739C777.266 427.739 778.013 427.955 778.621 428.386C779.234 428.812 779.666 429.395 779.916 430.134H780.053C780.342 429.406 780.831 428.827 781.518 428.395C782.212 427.957 783.033 427.739 783.982 427.739C785.186 427.739 786.169 428.119 786.93 428.881C787.692 429.642 788.072 430.753 788.072 432.213V441H784.979V432.69C784.979 431.878 784.763 431.284 784.331 430.909C783.899 430.528 783.371 430.338 782.746 430.338C782.001 430.338 781.419 430.571 780.999 431.037C780.584 431.497 780.376 432.097 780.376 432.835V441H777.351V432.562C777.351 431.886 777.146 431.347 776.737 430.943C776.334 430.54 775.805 430.338 775.152 430.338C774.709 430.338 774.305 430.452 773.942 430.679C773.578 430.901 773.288 431.216 773.072 431.625C772.857 432.028 772.749 432.5 772.749 433.04V441H769.663ZM794.969 441.264C794.14 441.264 793.393 441.116 792.728 440.821C792.069 440.52 791.546 440.077 791.16 439.491C790.779 438.906 790.589 438.185 790.589 437.327C790.589 436.588 790.725 435.977 790.998 435.494C791.271 435.011 791.643 434.625 792.114 434.335C792.586 434.045 793.117 433.827 793.708 433.679C794.305 433.526 794.921 433.415 795.558 433.347C796.325 433.267 796.947 433.196 797.424 433.134C797.901 433.065 798.248 432.963 798.464 432.827C798.685 432.685 798.796 432.466 798.796 432.17V432.119C798.796 431.477 798.606 430.98 798.225 430.628C797.844 430.276 797.296 430.099 796.58 430.099C795.825 430.099 795.225 430.264 794.782 430.594C794.344 430.923 794.049 431.312 793.896 431.761L791.015 431.352C791.242 430.557 791.617 429.892 792.14 429.358C792.663 428.818 793.302 428.415 794.058 428.148C794.813 427.875 795.648 427.739 796.563 427.739C797.194 427.739 797.822 427.812 798.447 427.96C799.072 428.108 799.643 428.352 800.16 428.693C800.677 429.028 801.092 429.486 801.404 430.065C801.722 430.645 801.881 431.369 801.881 432.239V441H798.915V439.202H798.813C798.626 439.565 798.362 439.906 798.021 440.224C797.685 440.537 797.262 440.79 796.751 440.983C796.245 441.17 795.651 441.264 794.969 441.264ZM795.771 438.997C796.39 438.997 796.927 438.875 797.381 438.631C797.836 438.381 798.185 438.051 798.43 437.642C798.68 437.233 798.805 436.787 798.805 436.304V434.761C798.708 434.841 798.543 434.915 798.31 434.983C798.083 435.051 797.827 435.111 797.543 435.162C797.259 435.213 796.978 435.259 796.7 435.298C796.421 435.338 796.18 435.372 795.975 435.401C795.515 435.463 795.103 435.565 794.739 435.707C794.376 435.849 794.089 436.048 793.879 436.304C793.668 436.554 793.563 436.878 793.563 437.276C793.563 437.844 793.771 438.273 794.185 438.562C794.6 438.852 795.129 438.997 795.771 438.997ZM804.984 441V427.909H808.069V441H804.984ZM806.535 426.051C806.046 426.051 805.626 425.889 805.273 425.565C804.921 425.236 804.745 424.841 804.745 424.381C804.745 423.915 804.921 423.52 805.273 423.196C805.626 422.866 806.046 422.702 806.535 422.702C807.029 422.702 807.45 422.866 807.796 423.196C808.148 423.52 808.325 423.915 808.325 424.381C808.325 424.841 808.148 425.236 807.796 425.565C807.45 425.889 807.029 426.051 806.535 426.051ZM814.327 423.545V441H811.241V423.545H814.327Z" fill="#1D2126"/>
<rect opacity="0.4" x="754.5" y="458" width="413" height="38" rx="4" fill="white" stroke="#CCCCCC" stroke-width="2"/>
<path d="M755.222 528V510.545H761.767C763.108 510.545 764.233 510.795 765.142 511.295C766.057 511.795 766.747 512.483 767.213 513.358C767.685 514.227 767.92 515.216 767.92 516.324C767.92 517.443 767.685 518.437 767.213 519.307C766.741 520.176 766.045 520.861 765.125 521.361C764.205 521.855 763.071 522.102 761.724 522.102H757.386V519.503H761.298C762.082 519.503 762.724 519.366 763.224 519.094C763.724 518.821 764.094 518.446 764.332 517.969C764.577 517.491 764.699 516.943 764.699 516.324C764.699 515.705 764.577 515.159 764.332 514.688C764.094 514.216 763.722 513.849 763.216 513.588C762.716 513.321 762.071 513.188 761.281 513.188H758.384V528H755.222ZM774.063 528.264C773.234 528.264 772.487 528.116 771.822 527.821C771.163 527.52 770.64 527.077 770.254 526.491C769.873 525.906 769.683 525.185 769.683 524.327C769.683 523.588 769.819 522.977 770.092 522.494C770.364 522.011 770.737 521.625 771.208 521.335C771.68 521.045 772.211 520.827 772.802 520.679C773.398 520.526 774.015 520.415 774.651 520.347C775.418 520.267 776.04 520.196 776.518 520.134C776.995 520.065 777.342 519.963 777.558 519.827C777.779 519.685 777.89 519.466 777.89 519.17V519.119C777.89 518.477 777.7 517.98 777.319 517.628C776.938 517.276 776.39 517.099 775.674 517.099C774.918 517.099 774.319 517.264 773.876 517.594C773.438 517.923 773.143 518.312 772.989 518.761L770.109 518.352C770.336 517.557 770.711 516.892 771.234 516.358C771.756 515.818 772.396 515.415 773.151 515.148C773.907 514.875 774.742 514.739 775.657 514.739C776.288 514.739 776.915 514.812 777.54 514.96C778.165 515.108 778.737 515.352 779.254 515.693C779.771 516.028 780.185 516.486 780.498 517.065C780.816 517.645 780.975 518.369 780.975 519.239V528H778.009V526.202H777.907C777.719 526.565 777.455 526.906 777.114 527.224C776.779 527.537 776.356 527.79 775.844 527.983C775.339 528.17 774.745 528.264 774.063 528.264ZM774.864 525.997C775.484 525.997 776.021 525.875 776.475 525.631C776.93 525.381 777.279 525.051 777.523 524.642C777.773 524.233 777.898 523.787 777.898 523.304V521.761C777.802 521.841 777.637 521.915 777.404 521.983C777.177 522.051 776.921 522.111 776.637 522.162C776.353 522.213 776.072 522.259 775.793 522.298C775.515 522.338 775.273 522.372 775.069 522.401C774.609 522.463 774.197 522.565 773.833 522.707C773.469 522.849 773.183 523.048 772.972 523.304C772.762 523.554 772.657 523.878 772.657 524.276C772.657 524.844 772.864 525.273 773.279 525.562C773.694 525.852 774.222 525.997 774.864 525.997ZM794.424 518.369L791.612 518.676C791.532 518.392 791.393 518.125 791.194 517.875C791.001 517.625 790.739 517.423 790.41 517.27C790.08 517.116 789.677 517.04 789.2 517.04C788.558 517.04 788.018 517.179 787.58 517.457C787.148 517.736 786.935 518.097 786.941 518.54C786.935 518.92 787.075 519.23 787.359 519.469C787.648 519.707 788.126 519.903 788.79 520.057L791.023 520.534C792.262 520.801 793.183 521.224 793.785 521.804C794.393 522.384 794.7 523.142 794.705 524.08C794.7 524.903 794.458 525.631 793.981 526.261C793.509 526.886 792.853 527.375 792.012 527.727C791.171 528.08 790.205 528.256 789.114 528.256C787.512 528.256 786.222 527.92 785.245 527.25C784.268 526.574 783.685 525.634 783.498 524.429L786.506 524.139C786.643 524.73 786.933 525.176 787.376 525.477C787.819 525.778 788.396 525.929 789.106 525.929C789.839 525.929 790.427 525.778 790.87 525.477C791.319 525.176 791.543 524.804 791.543 524.361C791.543 523.986 791.398 523.676 791.109 523.432C790.825 523.187 790.381 523 789.779 522.869L787.546 522.401C786.29 522.139 785.362 521.699 784.759 521.08C784.157 520.455 783.859 519.665 783.864 518.71C783.859 517.903 784.077 517.205 784.521 516.614C784.969 516.017 785.592 515.557 786.387 515.233C787.188 514.903 788.112 514.739 789.157 514.739C790.691 514.739 791.898 515.065 792.779 515.719C793.665 516.372 794.214 517.256 794.424 518.369ZM807.596 518.369L804.783 518.676C804.704 518.392 804.565 518.125 804.366 517.875C804.173 517.625 803.911 517.423 803.582 517.27C803.252 517.116 802.849 517.04 802.371 517.04C801.729 517.04 801.19 517.179 800.752 517.457C800.32 517.736 800.107 518.097 800.113 518.54C800.107 518.92 800.246 519.23 800.531 519.469C800.82 519.707 801.298 519.903 801.962 520.057L804.195 520.534C805.434 520.801 806.354 521.224 806.957 521.804C807.565 522.384 807.871 523.142 807.877 524.08C807.871 524.903 807.63 525.631 807.153 526.261C806.681 526.886 806.025 527.375 805.184 527.727C804.343 528.08 803.377 528.256 802.286 528.256C800.684 528.256 799.394 527.92 798.417 527.25C797.44 526.574 796.857 525.634 796.67 524.429L799.678 524.139C799.815 524.73 800.104 525.176 800.548 525.477C800.991 525.778 801.567 525.929 802.278 525.929C803.011 525.929 803.599 525.778 804.042 525.477C804.491 525.176 804.715 524.804 804.715 524.361C804.715 523.986 804.57 523.676 804.281 523.432C803.996 523.187 803.553 523 802.951 522.869L800.718 522.401C799.462 522.139 798.533 521.699 797.931 521.08C797.329 520.455 797.031 519.665 797.036 518.71C797.031 517.903 797.249 517.205 797.692 516.614C798.141 516.017 798.763 515.557 799.559 515.233C800.36 514.903 801.283 514.739 802.329 514.739C803.863 514.739 805.07 515.065 805.951 515.719C806.837 516.372 807.386 517.256 807.596 518.369ZM813.123 528L809.424 514.909H812.569L814.87 524.114H814.989L817.342 514.909H820.452L822.805 524.062H822.933L825.2 514.909H828.353L824.646 528H821.433L818.978 519.153H818.799L816.344 528H813.123ZM835.842 528.256C834.564 528.256 833.456 527.974 832.518 527.412C831.581 526.849 830.854 526.062 830.337 525.051C829.825 524.04 829.57 522.858 829.57 521.506C829.57 520.153 829.825 518.969 830.337 517.952C830.854 516.935 831.581 516.145 832.518 515.582C833.456 515.02 834.564 514.739 835.842 514.739C837.121 514.739 838.229 515.02 839.166 515.582C840.104 516.145 840.828 516.935 841.339 517.952C841.857 518.969 842.115 520.153 842.115 521.506C842.115 522.858 841.857 524.04 841.339 525.051C840.828 526.062 840.104 526.849 839.166 527.412C838.229 527.974 837.121 528.256 835.842 528.256ZM835.859 525.784C836.553 525.784 837.132 525.594 837.598 525.213C838.064 524.827 838.411 524.31 838.638 523.662C838.871 523.014 838.987 522.293 838.987 521.497C838.987 520.696 838.871 519.972 838.638 519.324C838.411 518.67 838.064 518.151 837.598 517.764C837.132 517.378 836.553 517.185 835.859 517.185C835.149 517.185 834.558 517.378 834.087 517.764C833.621 518.151 833.271 518.67 833.038 519.324C832.811 519.972 832.697 520.696 832.697 521.497C832.697 522.293 832.811 523.014 833.038 523.662C833.271 524.31 833.621 524.827 834.087 525.213C834.558 525.594 835.149 525.784 835.859 525.784ZM844.734 528V514.909H847.725V517.091H847.862C848.1 516.335 848.509 515.753 849.089 515.344C849.674 514.929 850.342 514.722 851.092 514.722C851.262 514.722 851.452 514.73 851.663 514.747C851.879 514.759 852.058 514.778 852.2 514.807V517.645C852.069 517.599 851.862 517.56 851.577 517.526C851.299 517.486 851.029 517.466 850.768 517.466C850.205 517.466 849.7 517.588 849.251 517.832C848.808 518.071 848.458 518.403 848.202 518.83C847.947 519.256 847.819 519.747 847.819 520.304V528H844.734ZM858.568 528.23C857.54 528.23 856.619 527.966 855.807 527.438C854.994 526.909 854.352 526.142 853.881 525.136C853.409 524.131 853.173 522.909 853.173 521.472C853.173 520.017 853.412 518.79 853.889 517.79C854.372 516.784 855.023 516.026 855.841 515.514C856.659 514.997 857.571 514.739 858.577 514.739C859.344 514.739 859.974 514.869 860.469 515.131C860.963 515.386 861.355 515.696 861.645 516.06C861.935 516.418 862.159 516.756 862.318 517.074H862.446V510.545H865.54V528H862.506V525.938H862.318C862.159 526.256 861.929 526.594 861.628 526.952C861.327 527.304 860.929 527.605 860.435 527.855C859.94 528.105 859.318 528.23 858.568 528.23ZM859.429 525.699C860.082 525.699 860.639 525.523 861.099 525.17C861.56 524.812 861.909 524.315 862.148 523.679C862.386 523.043 862.506 522.301 862.506 521.455C862.506 520.608 862.386 519.872 862.148 519.247C861.915 518.622 861.568 518.136 861.108 517.79C860.653 517.443 860.094 517.27 859.429 517.27C858.741 517.27 858.168 517.449 857.707 517.807C857.247 518.165 856.901 518.659 856.668 519.29C856.435 519.92 856.318 520.642 856.318 521.455C856.318 522.273 856.435 523.003 856.668 523.645C856.906 524.281 857.256 524.784 857.716 525.153C858.182 525.517 858.753 525.699 859.429 525.699Z" fill="#1D2126"/>
<rect opacity="0.4" x="754.5" y="545" width="413" height="38" rx="4" fill="white" stroke="#CCCCCC" stroke-width="2"/>
<rect x="753.5" y="597" width="415" height="50" rx="25" fill="#1D2126"/>
<path d="M931.788 630V615.455H934.863V627.464H941.099V630H931.788ZM955.935 622.727C955.935 624.313 955.635 625.663 955.033 626.776C954.437 627.888 953.622 628.738 952.59 629.325C951.563 629.908 950.407 630.199 949.124 630.199C947.832 630.199 946.672 629.905 945.644 629.318C944.617 628.731 943.805 627.881 943.208 626.768C942.612 625.656 942.313 624.309 942.313 622.727C942.313 621.141 942.612 619.792 943.208 618.679C943.805 617.566 944.617 616.719 945.644 616.136C946.672 615.549 947.832 615.256 949.124 615.256C950.407 615.256 951.563 615.549 952.59 616.136C953.622 616.719 954.437 617.566 955.033 618.679C955.635 619.792 955.935 621.141 955.935 622.727ZM952.817 622.727C952.817 621.7 952.664 620.833 952.356 620.128C952.053 619.422 951.624 618.887 951.07 618.523C950.516 618.158 949.868 617.976 949.124 617.976C948.381 617.976 947.732 618.158 947.178 618.523C946.624 618.887 946.193 619.422 945.886 620.128C945.583 620.833 945.431 621.7 945.431 622.727C945.431 623.755 945.583 624.621 945.886 625.327C946.193 626.032 946.624 626.567 947.178 626.932C947.732 627.296 948.381 627.479 949.124 627.479C949.868 627.479 950.516 627.296 951.07 626.932C951.624 626.567 952.053 626.032 952.356 625.327C952.664 624.621 952.817 623.755 952.817 622.727ZM967.858 620.156C967.759 619.811 967.619 619.505 967.439 619.24C967.259 618.97 967.039 618.743 966.779 618.558C966.523 618.369 966.23 618.224 965.898 618.125C965.571 618.026 965.209 617.976 964.811 617.976C964.068 617.976 963.415 618.161 962.851 618.53C962.292 618.899 961.857 619.437 961.544 620.142C961.232 620.843 961.076 621.7 961.076 622.713C961.076 623.726 961.23 624.588 961.537 625.298C961.845 626.009 962.281 626.551 962.844 626.925C963.408 627.294 964.073 627.479 964.84 627.479C965.536 627.479 966.13 627.356 966.623 627.109C967.12 626.858 967.498 626.506 967.759 626.051C968.024 625.597 968.157 625.059 968.157 624.439L968.782 624.531H965.032V622.216H971.118V624.048C971.118 625.327 970.848 626.425 970.309 627.344C969.769 628.258 969.025 628.963 968.078 629.46C967.132 629.953 966.047 630.199 964.826 630.199C963.462 630.199 962.264 629.898 961.232 629.297C960.2 628.691 959.395 627.831 958.817 626.719C958.244 625.601 957.958 624.276 957.958 622.741C957.958 621.562 958.128 620.511 958.469 619.588C958.815 618.66 959.298 617.874 959.918 617.23C960.538 616.586 961.26 616.096 962.084 615.76C962.908 615.424 963.801 615.256 964.762 615.256C965.586 615.256 966.353 615.376 967.063 615.618C967.773 615.855 968.403 616.191 968.952 616.626C969.506 617.062 969.958 617.58 970.309 618.182C970.659 618.778 970.884 619.437 970.983 620.156H967.858ZM976.504 615.455V630H973.428V615.455H976.504ZM991.2 615.455V630H988.544L982.216 620.845H982.109V630H979.034V615.455H981.733L988.011 624.602H988.139V615.455H991.2Z" fill="white"/>
<path d="M798.065 676H794.198V665.091H798.097C799.195 665.091 800.139 665.309 800.931 665.746C801.723 666.179 802.332 666.803 802.758 667.616C803.188 668.429 803.403 669.402 803.403 670.535C803.403 671.671 803.188 672.648 802.758 673.464C802.332 674.281 801.719 674.908 800.92 675.345C800.125 675.782 799.173 676 798.065 676ZM796.505 674.024H797.969C798.651 674.024 799.225 673.903 799.69 673.662C800.159 673.417 800.51 673.038 800.745 672.527C800.983 672.012 801.102 671.348 801.102 670.535C801.102 669.729 800.983 669.07 800.745 668.559C800.51 668.047 800.161 667.671 799.695 667.429C799.23 667.188 798.657 667.067 797.975 667.067H796.505V674.024ZM815.136 670.545C815.136 671.735 814.911 672.747 814.46 673.582C814.012 674.416 813.401 675.054 812.627 675.494C811.857 675.931 810.99 676.149 810.028 676.149C809.058 676.149 808.188 675.929 807.418 675.489C806.647 675.048 806.038 674.411 805.591 673.576C805.143 672.742 804.919 671.732 804.919 670.545C804.919 669.356 805.143 668.344 805.591 667.509C806.038 666.675 806.647 666.039 807.418 665.602C808.188 665.162 809.058 664.942 810.028 664.942C810.99 664.942 811.857 665.162 812.627 665.602C813.401 666.039 814.012 666.675 814.46 667.509C814.911 668.344 815.136 669.356 815.136 670.545ZM812.798 670.545C812.798 669.775 812.682 669.125 812.451 668.596C812.224 668.067 811.903 667.665 811.487 667.392C811.072 667.119 810.585 666.982 810.028 666.982C809.47 666.982 808.984 667.119 808.568 667.392C808.153 667.665 807.83 668.067 807.599 668.596C807.372 669.125 807.258 669.775 807.258 670.545C807.258 671.316 807.372 671.966 807.599 672.495C807.83 673.024 808.153 673.425 808.568 673.699C808.984 673.972 809.47 674.109 810.028 674.109C810.585 674.109 811.072 673.972 811.487 673.699C811.903 673.425 812.224 673.024 812.451 672.495C812.682 671.966 812.798 671.316 812.798 670.545ZM825.969 665.091V676H823.977L819.231 669.134H819.151V676H816.845V665.091H818.869L823.578 671.952H823.673V665.091H825.969ZM829.734 665.091V666.241C829.734 666.568 829.67 666.902 829.542 667.243C829.418 667.58 829.251 667.9 829.041 668.202C828.832 668.5 828.603 668.754 828.354 668.963L827.353 668.372C827.53 668.092 827.687 667.781 827.822 667.44C827.96 667.099 828.029 666.703 828.029 666.252V665.091H829.734ZM830.873 666.993V665.091H839.832V666.993H836.492V676H834.212V666.993H830.873ZM844.779 676V665.091H847.086V669.592H851.768V665.091H854.069V676H851.768V671.494H847.086V676H844.779ZM857.851 676H855.379L859.145 665.091H862.118L865.878 676H863.407L860.674 667.584H860.589L857.851 676ZM857.696 671.712H863.535V673.512H857.696V671.712ZM867.8 665.091L870.437 673.379H870.538L873.18 665.091H875.737L871.976 676H869.004L865.238 665.091H867.8ZM877.05 676V665.091H884.401V666.993H879.356V669.592H884.022V671.494H879.356V674.098H884.422V676H877.05ZM891.586 676H889.115L892.881 665.091H895.853L899.614 676H897.142L894.409 667.584H894.324L891.586 676ZM891.432 671.712H897.27V673.512H891.432V671.712ZM910.051 665.091V676H908.059L903.313 669.134H903.233V676H900.927V665.091H902.951L907.66 671.952H907.756V665.091H910.051ZM917.309 676H914.837L918.603 665.091H921.576L925.336 676H922.865L920.132 667.584H920.047L917.309 676ZM917.154 671.712H922.993V673.512H917.154V671.712ZM935.762 668.91H933.429C933.386 668.608 933.299 668.34 933.168 668.106C933.036 667.868 932.868 667.665 932.662 667.499C932.456 667.332 932.218 667.204 931.948 667.115C931.682 667.026 931.392 666.982 931.08 666.982C930.515 666.982 930.023 667.122 929.604 667.403C929.185 667.68 928.86 668.085 928.63 668.617C928.399 669.146 928.283 669.789 928.283 670.545C928.283 671.323 928.399 671.977 928.63 672.506C928.864 673.035 929.191 673.434 929.61 673.704C930.029 673.974 930.513 674.109 931.064 674.109C931.373 674.109 931.659 674.068 931.921 673.987C932.188 673.905 932.424 673.786 932.63 673.63C932.836 673.47 933.006 673.276 933.141 673.049C933.28 672.822 933.376 672.562 933.429 672.271L935.762 672.282C935.702 672.783 935.551 673.266 935.309 673.731C935.071 674.192 934.75 674.606 934.345 674.972C933.944 675.334 933.464 675.622 932.907 675.835C932.353 676.044 931.726 676.149 931.027 676.149C930.054 676.149 929.184 675.929 928.416 675.489C927.653 675.048 927.049 674.411 926.605 673.576C926.165 672.742 925.945 671.732 925.945 670.545C925.945 669.356 926.169 668.344 926.616 667.509C927.063 666.675 927.671 666.039 928.438 665.602C929.205 665.162 930.068 664.942 931.027 664.942C931.659 664.942 932.245 665.031 932.784 665.208C933.328 665.386 933.809 665.645 934.228 665.986C934.647 666.323 934.988 666.737 935.251 667.227C935.517 667.717 935.687 668.278 935.762 668.91ZM947.041 668.91H944.708C944.666 668.608 944.579 668.34 944.447 668.106C944.316 667.868 944.147 667.665 943.941 667.499C943.735 667.332 943.497 667.204 943.227 667.115C942.961 667.026 942.672 666.982 942.359 666.982C941.794 666.982 941.303 667.122 940.884 667.403C940.465 667.68 940.14 668.085 939.909 668.617C939.678 669.146 939.563 669.789 939.563 670.545C939.563 671.323 939.678 671.977 939.909 672.506C940.143 673.035 940.47 673.434 940.889 673.704C941.308 673.974 941.793 674.109 942.343 674.109C942.652 674.109 942.938 674.068 943.201 673.987C943.467 673.905 943.703 673.786 943.909 673.63C944.115 673.47 944.286 673.276 944.421 673.049C944.559 672.822 944.655 672.562 944.708 672.271L947.041 672.282C946.981 672.783 946.83 673.266 946.589 673.731C946.351 674.192 946.029 674.606 945.624 674.972C945.223 675.334 944.744 675.622 944.186 675.835C943.632 676.044 943.005 676.149 942.306 676.149C941.333 676.149 940.463 675.929 939.696 675.489C938.932 675.048 938.329 674.411 937.885 673.576C937.444 672.742 937.224 671.732 937.224 670.545C937.224 669.356 937.448 668.344 937.895 667.509C938.343 666.675 938.95 666.039 939.717 665.602C940.484 665.162 941.347 664.942 942.306 664.942C942.938 664.942 943.524 665.031 944.064 665.208C944.607 665.386 945.088 665.645 945.507 665.986C945.926 666.323 946.267 666.737 946.53 667.227C946.796 667.717 946.967 668.278 947.041 668.91ZM958.72 670.545C958.72 671.735 958.495 672.747 958.044 673.582C957.596 674.416 956.985 675.054 956.211 675.494C955.441 675.931 954.574 676.149 953.612 676.149C952.642 676.149 951.772 675.929 951.002 675.489C950.231 675.048 949.622 674.411 949.175 673.576C948.727 672.742 948.503 671.732 948.503 670.545C948.503 669.356 948.727 668.344 949.175 667.509C949.622 666.675 950.231 666.039 951.002 665.602C951.772 665.162 952.642 664.942 953.612 664.942C954.574 664.942 955.441 665.162 956.211 665.602C956.985 666.039 957.596 666.675 958.044 667.509C958.495 668.344 958.72 669.356 958.72 670.545ZM956.382 670.545C956.382 669.775 956.266 669.125 956.035 668.596C955.808 668.067 955.487 667.665 955.071 667.392C954.656 667.119 954.169 666.982 953.612 666.982C953.054 666.982 952.568 667.119 952.152 667.392C951.737 667.665 951.414 668.067 951.183 668.596C950.956 669.125 950.842 669.775 950.842 670.545C950.842 671.316 950.956 671.966 951.183 672.495C951.414 673.024 951.737 673.425 952.152 673.699C952.568 673.972 953.054 674.109 953.612 674.109C954.169 674.109 954.656 673.972 955.071 673.699C955.487 673.425 955.808 673.024 956.035 672.495C956.266 671.966 956.382 671.316 956.382 670.545ZM967.167 665.091H969.473V672.175C969.473 672.971 969.283 673.667 968.903 674.263C968.527 674.86 968 675.325 967.321 675.659C966.643 675.989 965.853 676.154 964.951 676.154C964.045 676.154 963.254 675.989 962.575 675.659C961.897 675.325 961.37 674.86 960.993 674.263C960.617 673.667 960.429 672.971 960.429 672.175V665.091H962.735V671.978C962.735 672.394 962.826 672.763 963.007 673.086C963.191 673.409 963.451 673.663 963.784 673.848C964.118 674.033 964.507 674.125 964.951 674.125C965.398 674.125 965.787 674.033 966.118 673.848C966.451 673.663 966.709 673.409 966.89 673.086C967.075 672.763 967.167 672.394 967.167 671.978V665.091ZM980.496 665.091V676H978.503L973.757 669.134H973.677V676H971.371V665.091H973.395L978.104 671.952H978.2V665.091H980.496ZM981.986 666.993V665.091H990.945V666.993H987.605V676H985.326V666.993H981.986ZM994.328 672.729V672.548C994.331 671.927 994.386 671.431 994.493 671.062C994.603 670.693 994.763 670.395 994.972 670.167C995.182 669.94 995.434 669.734 995.729 669.549C995.949 669.407 996.146 669.26 996.32 669.107C996.494 668.955 996.632 668.786 996.735 668.601C996.838 668.413 996.89 668.203 996.89 667.973C996.89 667.728 996.831 667.513 996.714 667.328C996.597 667.143 996.439 667.001 996.24 666.902C996.045 666.803 995.828 666.753 995.59 666.753C995.359 666.753 995.141 666.804 994.935 666.907C994.729 667.007 994.56 667.156 994.429 667.355C994.298 667.55 994.227 667.793 994.216 668.085H992.043C992.06 667.374 992.231 666.788 992.554 666.327C992.877 665.862 993.305 665.515 993.838 665.288C994.37 665.057 994.958 664.942 995.601 664.942C996.308 664.942 996.933 665.059 997.476 665.293C998.019 665.524 998.445 665.86 998.754 666.3C999.063 666.74 999.218 667.271 999.218 667.893C999.218 668.308 999.148 668.678 999.01 669.001C998.875 669.32 998.685 669.604 998.44 669.853C998.195 670.098 997.906 670.32 997.572 670.519C997.291 670.686 997.06 670.86 996.879 671.041C996.702 671.222 996.569 671.431 996.48 671.669C996.395 671.907 996.35 672.2 996.347 672.548V672.729H994.328ZM995.382 676.138C995.027 676.138 994.724 676.014 994.472 675.766C994.223 675.513 994.1 675.212 994.104 674.86C994.1 674.512 994.223 674.214 994.472 673.965C994.724 673.717 995.027 673.592 995.382 673.592C995.72 673.592 996.016 673.717 996.272 673.965C996.528 674.214 996.657 674.512 996.661 674.86C996.657 675.094 996.595 675.309 996.474 675.505C996.357 675.696 996.203 675.851 996.011 675.968C995.819 676.082 995.61 676.138 995.382 676.138Z" fill="#1D2126"/>
<path d="M1011.56 668.617C1011.49 668.358 1011.38 668.129 1011.25 667.93C1011.11 667.728 1010.95 667.557 1010.75 667.419C1010.56 667.277 1010.34 667.168 1010.09 667.094C1009.85 667.019 1009.58 666.982 1009.28 666.982C1008.72 666.982 1008.23 667.12 1007.81 667.397C1007.39 667.674 1007.06 668.077 1006.83 668.607C1006.59 669.132 1006.48 669.775 1006.48 670.535C1006.48 671.295 1006.59 671.941 1006.82 672.474C1007.05 673.006 1007.38 673.413 1007.8 673.694C1008.23 673.971 1008.72 674.109 1009.3 674.109C1009.82 674.109 1010.27 674.017 1010.64 673.832C1011.01 673.644 1011.29 673.379 1011.49 673.038C1011.69 672.697 1011.79 672.294 1011.79 671.829L1012.26 671.898H1009.44V670.162H1014.01V671.536C1014.01 672.495 1013.81 673.319 1013.4 674.008C1013 674.693 1012.44 675.222 1011.73 675.595C1011.02 675.964 1010.21 676.149 1009.29 676.149C1008.27 676.149 1007.37 675.924 1006.59 675.473C1005.82 675.018 1005.22 674.374 1004.78 673.539C1004.35 672.701 1004.14 671.707 1004.14 670.556C1004.14 669.672 1004.27 668.884 1004.52 668.191C1004.78 667.495 1005.14 666.906 1005.61 666.423C1006.07 665.94 1006.62 665.572 1007.23 665.32C1007.85 665.068 1008.52 664.942 1009.24 664.942C1009.86 664.942 1010.43 665.032 1010.97 665.213C1011.5 665.391 1011.97 665.643 1012.38 665.97C1012.8 666.297 1013.14 666.685 1013.4 667.136C1013.66 667.584 1013.83 668.077 1013.91 668.617H1011.56ZM1015.74 676V665.091H1023.09V666.993H1018.05V669.592H1022.71V671.494H1018.05V674.098H1023.11V676H1015.74ZM1024.51 666.993V665.091H1033.47V666.993H1030.13V676H1027.85V666.993H1024.51ZM1044.33 668.228C1044.29 667.799 1044.11 667.465 1043.79 667.227C1043.46 666.989 1043.02 666.87 1042.47 666.87C1042.09 666.87 1041.78 666.923 1041.52 667.03C1041.26 667.133 1041.06 667.277 1040.92 667.461C1040.79 667.646 1040.72 667.855 1040.72 668.09C1040.71 668.285 1040.75 668.456 1040.84 668.601C1040.93 668.747 1041.06 668.873 1041.22 668.979C1041.38 669.082 1041.56 669.173 1041.77 669.251C1041.98 669.326 1042.21 669.39 1042.44 669.443L1043.42 669.677C1043.9 669.784 1044.34 669.926 1044.73 670.103C1045.13 670.281 1045.48 670.499 1045.77 670.759C1046.06 671.018 1046.28 671.323 1046.44 671.675C1046.61 672.026 1046.69 672.429 1046.69 672.884C1046.69 673.551 1046.52 674.13 1046.18 674.62C1045.85 675.107 1045.37 675.485 1044.73 675.755C1044.11 676.021 1043.35 676.154 1042.46 676.154C1041.58 676.154 1040.81 676.02 1040.16 675.75C1039.51 675.48 1039 675.08 1038.64 674.551C1038.27 674.018 1038.08 673.36 1038.07 672.575H1040.3C1040.32 672.941 1040.43 673.246 1040.61 673.491C1040.8 673.733 1041.05 673.915 1041.36 674.04C1041.68 674.161 1042.04 674.221 1042.43 674.221C1042.82 674.221 1043.16 674.164 1043.45 674.05C1043.74 673.937 1043.97 673.779 1044.13 673.576C1044.29 673.374 1044.37 673.141 1044.37 672.879C1044.37 672.634 1044.29 672.428 1044.15 672.261C1044.01 672.094 1043.8 671.952 1043.52 671.835C1043.25 671.717 1042.91 671.611 1042.51 671.515L1041.33 671.217C1040.41 670.993 1039.68 670.643 1039.15 670.167C1038.61 669.691 1038.35 669.05 1038.35 668.244C1038.35 667.584 1038.53 667.007 1038.88 666.513C1039.24 666.02 1039.73 665.634 1040.36 665.357C1040.98 665.08 1041.69 664.942 1042.49 664.942C1043.3 664.942 1044 665.08 1044.61 665.357C1045.21 665.634 1045.69 666.02 1046.02 666.513C1046.36 667.007 1046.53 667.578 1046.55 668.228H1044.33ZM1047.83 666.993V665.091H1056.79V666.993H1053.45V676H1051.17V666.993H1047.83ZM1058.81 676H1056.34L1060.11 665.091H1063.08L1066.84 676H1064.37L1061.64 667.584H1061.55L1058.81 676ZM1058.66 671.712H1064.5V673.512H1058.66V671.712ZM1068.15 676V665.091H1072.46C1073.28 665.091 1073.98 665.238 1074.57 665.533C1075.15 665.824 1075.6 666.238 1075.9 666.774C1076.21 667.307 1076.37 667.934 1076.37 668.654C1076.37 669.379 1076.21 670.002 1075.9 670.524C1075.59 671.043 1075.13 671.44 1074.54 671.717C1073.95 671.994 1073.24 672.133 1072.4 672.133H1069.52V670.279H1072.03C1072.47 670.279 1072.83 670.219 1073.12 670.098C1073.41 669.977 1073.63 669.796 1073.77 669.555C1073.92 669.313 1073.99 669.013 1073.99 668.654C1073.99 668.292 1073.92 667.987 1073.77 667.738C1073.63 667.49 1073.41 667.301 1073.12 667.174C1072.83 667.042 1072.46 666.977 1072.02 666.977H1070.46V676H1068.15ZM1074.04 671.036L1076.76 676H1074.21L1071.56 671.036H1074.04ZM1077.58 666.993V665.091H1086.54V666.993H1083.2V676H1080.92V666.993H1077.58ZM1100.61 665.091V676H1098.62L1093.87 669.134H1093.79V676H1091.49V665.091H1093.51L1098.22 671.952H1098.32V665.091H1100.61ZM1112.54 670.545C1112.54 671.735 1112.32 672.747 1111.87 673.582C1111.42 674.416 1110.81 675.054 1110.03 675.494C1109.26 675.931 1108.4 676.149 1107.44 676.149C1106.47 676.149 1105.6 675.929 1104.82 675.489C1104.05 675.048 1103.45 674.411 1103 673.576C1102.55 672.742 1102.33 671.732 1102.33 670.545C1102.33 669.356 1102.55 668.344 1103 667.509C1103.45 666.675 1104.05 666.039 1104.82 665.602C1105.6 665.162 1106.47 664.942 1107.44 664.942C1108.4 664.942 1109.26 665.162 1110.03 665.602C1110.81 666.039 1111.42 666.675 1111.87 667.509C1112.32 668.344 1112.54 669.356 1112.54 670.545ZM1110.2 670.545C1110.2 669.775 1110.09 669.125 1109.86 668.596C1109.63 668.067 1109.31 667.665 1108.89 667.392C1108.48 667.119 1107.99 666.982 1107.44 666.982C1106.88 666.982 1106.39 667.119 1105.98 667.392C1105.56 667.665 1105.24 668.067 1105.01 668.596C1104.78 669.125 1104.67 669.775 1104.67 670.545C1104.67 671.316 1104.78 671.966 1105.01 672.495C1105.24 673.024 1105.56 673.425 1105.98 673.699C1106.39 673.972 1106.88 674.109 1107.44 674.109C1107.99 674.109 1108.48 673.972 1108.89 673.699C1109.31 673.425 1109.63 673.024 1109.86 672.495C1110.09 671.966 1110.2 671.316 1110.2 670.545ZM1116.3 676L1113.18 665.091H1115.7L1117.5 672.671H1117.59L1119.58 665.091H1121.74L1123.73 672.687H1123.82L1125.63 665.091H1128.15L1125.03 676H1122.78L1120.7 668.868H1120.62L1118.55 676H1116.3Z" fill="#FF8B13"/>
<path d="M1003.38 678.983H1128.43V680.006H1003.38V678.983Z" fill="#FF8B13"/>
</svg>
