<svg width="1440" height="1024" viewBox="0 0 1440 1024" fill="none" xmlns="http://www.w3.org/2000/svg">
<rect width="1440" height="1024" fill="#F0F0F0"/>
<path d="M607.704 430.667C569.849 408.873 532.011 387.035 494.215 365.13C492.224 363.978 490.818 363.877 488.764 365.067C450.79 387.065 412.77 408.991 374.716 430.858C372.988 431.853 372.725 433.043 372.729 434.784C372.763 475.214 372.784 515.649 372.691 556.079C372.687 558.845 373.386 559.59 376.173 559.586C421.66 559.493 467.143 559.506 512.63 559.523C515.451 559.523 518.276 559.747 521.097 559.866C521.918 559.014 522.985 559.294 523.964 559.294C552.552 559.29 581.141 559.298 609.729 559.307C609.805 558.714 609.949 558.116 609.949 557.524C609.958 516.488 609.945 475.447 610 434.411C610.004 432.514 609.293 431.582 607.704 430.667ZM478.714 550.268C447.576 550.154 416.438 550.163 385.3 550.26C382.703 550.268 382.191 549.502 382.199 547.05C382.28 511.465 382.263 475.875 382.229 440.29C382.229 438.583 382.407 437.376 384.156 436.368C416.175 417.966 448.143 399.479 480.124 381.013C480.539 380.771 480.984 380.581 481.907 380.119C481.907 381.682 481.907 382.686 481.907 383.689C481.907 438.079 481.894 492.469 481.962 546.859C481.971 549.396 481.526 550.277 478.714 550.268ZM560.032 483.524C561.73 490.051 563.272 496.62 565.029 503.129C565.525 504.959 565.148 505.421 563.314 505.378C559.079 505.281 554.835 505.349 550.595 505.349C550.595 505.353 550.595 505.361 550.595 505.366C546.758 505.366 542.917 505.217 539.092 505.416C536.517 505.552 535.78 504.997 536.538 502.312C538.254 496.213 539.55 489.996 541.265 483.897C541.837 481.86 541.545 480.708 539.965 479.238C534.747 474.393 533.493 467.045 536.538 460.954C539.571 454.885 546.449 451.111 552.688 452.094C559.989 453.246 565.385 458.595 566.347 465.867C567.058 471.242 565.309 475.884 561.26 479.433C559.79 480.716 559.587 481.822 560.032 483.524Z" fill="#FF8B13"/>
<path d="M521.101 559.87L521.16 559.921C521.206 559.921 521.257 559.921 521.304 559.921C521.236 559.904 521.168 559.891 521.101 559.87Z" fill="#F58520"/>
<path d="M604.845 560.192C604.85 560.238 604.854 560.285 604.862 560.331C598.014 561.399 591.17 562.487 584.321 563.533C576.786 564.681 569.243 565.795 561.705 566.913C552.874 568.226 544.056 569.59 535.213 570.805C530.545 571.445 525.95 572.652 521.198 572.673C521.16 584.485 521.168 596.302 521.05 608.114C521.024 610.613 521.528 610.766 523.633 609.542C547.965 595.421 572.365 581.419 596.692 567.294C601.097 564.736 605.79 562.627 609.733 559.307C608.454 559.988 607.094 560.196 605.646 560.192C605.375 560.192 605.112 560.192 604.845 560.192Z" fill="#FF8B13"/>
<path d="M523.964 559.298C522.985 559.298 521.918 559.019 521.096 559.87C521.164 559.891 521.232 559.904 521.3 559.921C548.571 559.921 575.846 559.921 603.117 559.921C603.071 559.773 603.151 559.823 603.253 559.921C603.774 559.921 604.291 559.921 604.812 559.921C604.82 560.01 604.833 560.103 604.841 560.192C605.108 560.192 605.371 560.192 605.637 560.192C607.086 560.196 608.445 559.989 609.725 559.307C581.14 559.302 552.552 559.29 523.964 559.298Z" fill="#F58520"/>
<path d="M593.228 561.187C594.566 560.992 595.913 560.865 597.29 560.751C595.799 560.823 594.308 560.831 592.817 560.831C570.48 560.848 548.143 560.848 525.806 560.827C524.209 560.827 522.541 561.068 521.16 559.916C521.173 564.169 521.185 568.421 521.198 572.669C523.693 571.055 526.623 571.178 529.376 570.776C550.672 567.654 571.924 564.258 593.228 561.187Z" fill="#DB3D28"/>
<path d="M600.373 560.497C601.343 560.412 602.338 560.315 603.363 560.192C602.994 560.192 602.622 560.192 602.253 560.192C601.631 560.31 601.004 560.416 600.373 560.497Z" fill="#DB3D28"/>
<path d="M602.995 560.039C602.749 560.094 602.499 560.141 602.253 560.187C602.622 560.187 602.995 560.187 603.363 560.187C603.422 560.179 603.477 560.175 603.537 560.166C603.507 560.171 603.372 560.022 603.257 559.916C603.211 559.916 603.164 559.916 603.122 559.916C603.126 559.925 603.122 559.929 603.126 559.942C603.143 559.984 603.096 560.018 602.995 560.039Z" fill="#DB3D28"/>
<path d="M525.806 560.831C548.143 560.848 570.48 560.848 592.817 560.836C594.308 560.836 595.803 560.827 597.29 560.755C598.298 560.67 599.323 560.59 600.373 560.501C601 560.421 601.627 560.315 602.253 560.192C576.507 560.141 550.761 560.175 525.014 560.162C523.773 560.162 522.524 560.234 521.304 559.921C521.257 559.921 521.207 559.921 521.16 559.921C522.541 561.073 524.209 560.831 525.806 560.831Z" fill="#DB3D28"/>
<path d="M600.373 560.497C599.323 560.59 598.298 560.666 597.29 560.751C598.323 560.704 599.348 560.628 600.373 560.497Z" fill="#DB3D28"/>
<path d="M561.705 566.913C569.243 565.795 576.787 564.681 584.321 563.534C591.174 562.492 598.018 561.399 604.862 560.332C604.858 560.285 604.854 560.238 604.845 560.192C604.35 560.192 603.859 560.192 603.363 560.188C602.338 560.31 601.343 560.408 600.373 560.493C599.348 560.624 598.319 560.7 597.29 560.747C595.913 560.861 594.566 560.988 593.228 561.183C571.924 564.254 550.667 567.65 529.372 570.776C526.619 571.178 523.688 571.055 521.194 572.669C525.946 572.648 530.541 571.441 535.209 570.801C544.052 569.594 552.874 568.226 561.705 566.913Z" fill="#DB3D28"/>
<path d="M525.014 560.162C550.761 560.175 576.507 560.141 602.253 560.192C602.499 560.145 602.749 560.099 602.995 560.044C603.096 560.022 603.139 559.988 603.126 559.95C603.122 559.938 603.122 559.933 603.122 559.925C575.851 559.925 548.575 559.925 521.304 559.925C522.524 560.234 523.773 560.158 525.014 560.162Z" fill="#DB3D28"/>
<path d="M603.363 560.192C603.859 560.192 604.35 560.192 604.846 560.196C604.837 560.107 604.824 560.014 604.816 559.925C604.295 559.925 603.778 559.925 603.257 559.925C603.367 560.031 603.503 560.179 603.537 560.175C603.478 560.179 603.423 560.183 603.363 560.192Z" fill="#DB3D28"/>
<path d="M603.122 559.92C603.168 559.92 603.214 559.92 603.256 559.92C603.155 559.823 603.075 559.773 603.122 559.92Z" fill="#FAAC17"/>
<path d="M389.332 485.108C389.289 486.993 389.607 487.649 391.665 486.972C418.716 478.048 445.78 469.171 472.856 460.332C474.407 459.828 475.131 459.192 475.042 457.409C474.872 453.983 474.991 450.544 474.995 447.113C474.995 443.678 474.902 440.244 475.029 436.817C475.11 434.64 474.754 433.925 472.395 434.903C445.433 446.114 418.437 457.248 391.437 468.362C389.933 468.98 389.277 469.768 389.323 471.483C389.45 476.019 389.438 480.568 389.332 485.108Z" fill="#FF8B13"/>
<path d="M389.361 509.305C389.361 515.336 389.366 515.369 395.392 514.387C421.164 510.173 446.928 505.908 472.712 501.757C474.533 501.465 475.088 500.855 475.037 499.097C474.932 495.561 475.008 492.02 475.008 488.484C475.004 488.484 474.995 488.484 474.991 488.484C474.991 485.854 474.991 483.228 474.991 480.598C474.991 475.651 474.987 475.625 470.133 476.832C444.111 483.308 418.098 489.814 392.059 496.239C389.92 496.768 389.171 497.704 389.315 499.906C389.514 503.024 389.366 506.17 389.361 509.305Z" fill="#FF8B13"/>
<path d="M393.351 457.951C403.304 453.072 413.261 448.202 423.206 443.31C439.762 435.165 456.309 427.004 472.865 418.859C473.97 418.317 475.025 417.894 475.016 416.318C474.97 408.466 474.995 400.61 474.995 392.139C468.308 395.976 462.192 399.458 456.097 402.986C434.544 415.45 412.994 427.932 391.445 440.409C390.606 440.896 389.416 441.099 389.412 442.374C389.387 448.07 389.399 453.767 389.399 459.845C391.017 459.065 392.19 458.519 393.351 457.951Z" fill="#FF8B13"/>
<path d="M471.662 517.559C461.019 518.648 450.354 519.533 439.698 520.46C423.608 521.862 407.518 523.281 391.416 524.573C389.548 524.721 389.319 525.479 389.34 527C389.4 531.243 389.514 535.496 389.306 539.731C389.179 542.31 389.789 543.162 392.58 543.123C405.718 542.954 418.86 543.047 431.998 543.047C445.441 543.047 458.884 543.001 472.327 543.094C474.453 543.107 475.076 542.497 475.038 540.379C474.91 533.81 474.847 527.237 475.059 520.672C475.148 517.902 474.36 517.284 471.662 517.559Z" fill="#FF8B13"/>
<path d="M265 598.314L272.23 597.611C272.666 600.038 273.547 601.821 274.877 602.96C276.207 604.099 278.002 604.667 280.264 604.667C282.657 604.667 284.461 604.159 285.677 603.146C286.892 602.134 287.498 600.948 287.498 599.593C287.498 598.725 287.244 597.983 286.731 597.369C286.219 596.759 285.329 596.226 284.059 595.777C283.186 595.476 281.204 594.938 278.108 594.172C274.123 593.185 271.328 591.969 269.722 590.529C267.461 588.505 266.334 586.036 266.334 583.122C266.334 581.245 266.864 579.492 267.927 577.861C268.99 576.231 270.523 574.986 272.522 574.134C274.521 573.279 276.935 572.855 279.764 572.855C284.385 572.855 287.862 573.868 290.196 575.892C292.53 577.917 293.758 580.623 293.876 584.003L286.443 584.329C286.126 582.436 285.444 581.076 284.398 580.25C283.352 579.42 281.78 579.009 279.688 579.009C277.528 579.009 275.838 579.454 274.614 580.339C273.826 580.907 273.433 581.669 273.433 582.622C273.433 583.494 273.801 584.236 274.538 584.858C275.474 585.646 277.753 586.463 281.369 587.319C284.986 588.174 287.659 589.055 289.391 589.966C291.123 590.877 292.479 592.126 293.457 593.706C294.435 595.29 294.927 597.242 294.927 599.567C294.927 601.677 294.342 603.65 293.169 605.493C291.996 607.335 290.34 608.703 288.197 609.597C286.054 610.49 283.385 610.939 280.188 610.939C275.533 610.939 271.959 609.863 269.468 607.712C266.974 605.565 265.483 602.431 265 598.314Z" fill="#FF8B13"/>
<path d="M309.467 610.291V579.708H298.544V573.482H327.793V579.708H316.895V610.291H309.467Z" fill="#FF8B13"/>
<path d="M331.083 592.113C331.083 588.365 331.643 585.218 332.765 582.673C333.604 580.797 334.743 579.115 336.191 577.624C337.64 576.133 339.224 575.028 340.948 574.308C343.239 573.338 345.886 572.851 348.88 572.851C354.301 572.851 358.643 574.532 361.9 577.9C365.157 581.262 366.783 585.942 366.783 591.935C366.783 597.878 365.169 602.528 361.938 605.882C358.706 609.237 354.39 610.918 348.982 610.918C343.51 610.918 339.156 609.249 335.924 605.908C332.697 602.57 331.083 597.971 331.083 592.113ZM338.741 591.859C338.741 596.027 339.702 599.186 341.629 601.338C343.552 603.489 345.996 604.565 348.961 604.565C351.925 604.565 354.357 603.498 356.254 601.363C358.151 599.229 359.104 596.027 359.104 591.757C359.104 587.539 358.181 584.392 356.33 582.317C354.479 580.242 352.023 579.204 348.961 579.204C345.899 579.204 343.429 580.254 341.553 582.355C339.681 584.456 338.741 587.624 338.741 591.859Z" fill="#FF8B13"/>
<path d="M372.611 610.291V573.482H388.252C392.186 573.482 395.045 573.813 396.828 574.473C398.611 575.134 400.039 576.311 401.11 578.001C402.182 579.691 402.715 581.627 402.715 583.799C402.715 586.561 401.902 588.844 400.28 590.639C398.658 592.439 396.231 593.574 393 594.04C394.605 594.976 395.935 596.006 396.981 597.128C398.027 598.25 399.437 600.241 401.212 603.104L405.706 610.287H396.816L391.441 602.278C389.531 599.415 388.226 597.611 387.523 596.865C386.82 596.12 386.075 595.612 385.287 595.332C384.499 595.057 383.254 594.917 381.547 594.917H380.04V610.283H372.611V610.291ZM380.044 589.047H385.541C389.107 589.047 391.331 588.894 392.22 588.594C393.106 588.293 393.8 587.772 394.304 587.035C394.808 586.298 395.058 585.379 395.058 584.274C395.058 583.037 394.728 582.033 394.067 581.275C393.406 580.513 392.474 580.034 391.267 579.831C390.666 579.746 388.858 579.704 385.842 579.704H380.044V589.047Z" fill="#FF8B13"/>
<path d="M442.917 610.291H434.832L431.617 601.931H416.903L413.867 610.291H405.985L420.321 573.482H428.182L442.917 610.291ZM429.232 595.726L424.159 582.067L419.186 595.726H429.232Z" fill="#FF8B13"/>
<path d="M463.979 596.755V590.555H479.997V605.217C478.439 606.725 476.185 608.051 473.229 609.199C470.273 610.346 467.283 610.918 464.254 610.918C460.405 610.918 457.05 610.109 454.187 608.495C451.324 606.882 449.173 604.569 447.733 601.567C446.293 598.564 445.573 595.294 445.573 591.762C445.573 587.929 446.377 584.524 447.982 581.542C449.588 578.565 451.942 576.277 455.038 574.689C457.397 573.469 460.337 572.855 463.852 572.855C468.422 572.855 471.992 573.813 474.559 575.731C477.13 577.65 478.782 580.297 479.519 583.677L472.136 585.057C471.615 583.249 470.641 581.821 469.21 580.775C467.778 579.729 465.991 579.204 463.848 579.204C460.599 579.204 458.02 580.233 456.101 582.292C454.183 584.35 453.226 587.404 453.226 591.457C453.226 595.828 454.196 599.102 456.14 601.287C458.079 603.472 460.625 604.565 463.772 604.565C465.33 604.565 466.889 604.26 468.456 603.65C470.019 603.04 471.366 602.299 472.484 601.427V596.755H463.979Z" fill="#FF8B13"/>
<path d="M486.854 610.291V573.482H514.146V579.708H494.287V587.87H512.766V594.07H494.287V604.087H514.849V610.287H486.854V610.291Z" fill="#FF8B13"/>
<path d="M266.885 659.781V622.972H278.807C283.326 622.972 286.274 623.158 287.646 623.522C289.755 624.073 291.522 625.276 292.945 627.127C294.368 628.977 295.079 631.366 295.079 634.293C295.079 636.554 294.668 638.452 293.851 639.994C293.029 641.535 291.987 642.742 290.725 643.623C289.463 644.504 288.176 645.084 286.871 645.368C285.097 645.72 282.526 645.898 279.163 645.898H274.314V659.781H266.885ZM274.314 629.198V639.642H278.379C281.31 639.642 283.267 639.451 284.254 639.066C285.241 638.681 286.016 638.079 286.575 637.258C287.134 636.436 287.418 635.483 287.418 634.394C287.418 633.056 287.024 631.951 286.236 631.078C285.448 630.21 284.453 629.664 283.25 629.448C282.361 629.282 280.582 629.198 277.901 629.198H274.314Z" fill="#1D2126"/>
<path d="M334.374 659.781H326.289L323.075 651.42H308.361L305.324 659.781H297.438L311.775 622.972H319.635L334.374 659.781ZM320.69 645.216L315.616 631.557L310.644 645.216H320.69Z" fill="#1D2126"/>
<path d="M338.339 659.781V622.972H353.98C357.914 622.972 360.773 623.302 362.556 623.963C364.339 624.624 365.766 625.801 366.838 627.491C367.91 629.181 368.443 631.116 368.443 633.289C368.443 636.05 367.63 638.333 366.008 640.129C364.386 641.929 361.959 643.064 358.727 643.53C360.333 644.466 361.662 645.495 362.709 646.618C363.755 647.74 365.165 649.73 366.94 652.594L371.433 659.777H362.543L357.169 651.768C355.259 648.905 353.954 647.1 353.251 646.355C352.548 645.61 351.803 645.101 351.015 644.822C350.227 644.546 348.982 644.407 347.275 644.407H345.767V659.772H338.339V659.781ZM345.772 638.541H351.269C354.835 638.541 357.059 638.388 357.948 638.088C358.833 637.787 359.528 637.266 360.032 636.529C360.536 635.792 360.786 634.873 360.786 633.768C360.786 632.531 360.455 631.527 359.795 630.769C359.134 630.007 358.202 629.528 356.995 629.325C356.394 629.24 354.585 629.198 351.57 629.198H345.772V638.541Z" fill="#1D2126"/>
<path d="M375.55 659.781V622.972H382.983V639.316L397.997 622.972H407.988L394.13 637.308L408.742 659.781H399.124L389.006 642.505L382.979 648.655V659.777H375.55V659.781Z" fill="#1D2126"/>
<path d="M761.722 273.5V256.045H772.903V258.696H764.884V263.435H772.136V266.085H764.884V273.5H761.722ZM775.648 273.5V260.409H778.733V273.5H775.648ZM777.199 258.551C776.71 258.551 776.29 258.389 775.938 258.065C775.585 257.736 775.409 257.341 775.409 256.881C775.409 256.415 775.585 256.02 775.938 255.696C776.29 255.366 776.71 255.202 777.199 255.202C777.693 255.202 778.114 255.366 778.46 255.696C778.813 256.02 778.989 256.415 778.989 256.881C778.989 257.341 778.813 257.736 778.46 258.065C778.114 258.389 777.693 258.551 777.199 258.551ZM781.906 273.5V260.409H784.897V262.591H785.033C785.272 261.835 785.681 261.253 786.261 260.844C786.846 260.429 787.513 260.222 788.263 260.222C788.434 260.222 788.624 260.23 788.835 260.247C789.05 260.259 789.229 260.278 789.371 260.307V263.145C789.241 263.099 789.033 263.06 788.749 263.026C788.471 262.986 788.201 262.966 787.94 262.966C787.377 262.966 786.871 263.088 786.423 263.332C785.979 263.571 785.63 263.903 785.374 264.33C785.119 264.756 784.991 265.247 784.991 265.804V273.5H781.906ZM801.768 263.869L798.955 264.176C798.876 263.892 798.737 263.625 798.538 263.375C798.344 263.125 798.083 262.923 797.754 262.77C797.424 262.616 797.021 262.54 796.543 262.54C795.901 262.54 795.362 262.679 794.924 262.957C794.492 263.236 794.279 263.597 794.285 264.04C794.279 264.42 794.418 264.73 794.702 264.969C794.992 265.207 795.469 265.403 796.134 265.557L798.367 266.034C799.606 266.301 800.526 266.724 801.129 267.304C801.737 267.884 802.043 268.642 802.049 269.58C802.043 270.403 801.802 271.131 801.325 271.761C800.853 272.386 800.197 272.875 799.356 273.227C798.515 273.58 797.549 273.756 796.458 273.756C794.856 273.756 793.566 273.42 792.589 272.75C791.612 272.074 791.029 271.134 790.842 269.929L793.85 269.639C793.987 270.23 794.276 270.676 794.719 270.977C795.163 271.278 795.739 271.429 796.45 271.429C797.183 271.429 797.771 271.278 798.214 270.977C798.663 270.676 798.887 270.304 798.887 269.861C798.887 269.486 798.742 269.176 798.452 268.932C798.168 268.687 797.725 268.5 797.123 268.369L794.89 267.901C793.634 267.639 792.705 267.199 792.103 266.58C791.501 265.955 791.202 265.165 791.208 264.21C791.202 263.403 791.421 262.705 791.864 262.114C792.313 261.517 792.935 261.057 793.731 260.733C794.532 260.403 795.455 260.239 796.501 260.239C798.035 260.239 799.242 260.565 800.123 261.219C801.009 261.872 801.558 262.756 801.768 263.869ZM811.13 260.409V262.795H803.604V260.409H811.13ZM805.462 257.273H808.548V269.562C808.548 269.977 808.61 270.295 808.735 270.517C808.866 270.733 809.036 270.881 809.246 270.96C809.457 271.04 809.69 271.08 809.945 271.08C810.138 271.08 810.315 271.065 810.474 271.037C810.638 271.009 810.763 270.983 810.849 270.96L811.369 273.372C811.204 273.429 810.968 273.491 810.661 273.56C810.36 273.628 809.991 273.668 809.553 273.679C808.781 273.702 808.085 273.585 807.465 273.33C806.846 273.068 806.354 272.665 805.991 272.119C805.633 271.574 805.457 270.892 805.462 270.074V257.273ZM834.143 256.045V273.5H831.331L823.107 261.611H822.962V273.5H819.8V256.045H822.629L830.845 267.943H830.999V256.045H834.143ZM841.219 273.764C840.39 273.764 839.643 273.616 838.978 273.321C838.319 273.02 837.796 272.577 837.41 271.991C837.029 271.406 836.839 270.685 836.839 269.827C836.839 269.088 836.975 268.477 837.248 267.994C837.521 267.511 837.893 267.125 838.364 266.835C838.836 266.545 839.367 266.327 839.958 266.179C840.555 266.026 841.171 265.915 841.808 265.847C842.575 265.767 843.197 265.696 843.674 265.634C844.151 265.565 844.498 265.463 844.714 265.327C844.935 265.185 845.046 264.966 845.046 264.67V264.619C845.046 263.977 844.856 263.48 844.475 263.128C844.094 262.776 843.546 262.599 842.83 262.599C842.075 262.599 841.475 262.764 841.032 263.094C840.594 263.423 840.299 263.812 840.146 264.261L837.265 263.852C837.492 263.057 837.867 262.392 838.39 261.858C838.913 261.318 839.552 260.915 840.308 260.648C841.063 260.375 841.898 260.239 842.813 260.239C843.444 260.239 844.072 260.312 844.697 260.46C845.322 260.608 845.893 260.852 846.41 261.193C846.927 261.528 847.342 261.986 847.654 262.565C847.972 263.145 848.131 263.869 848.131 264.739V273.5H845.165V271.702H845.063C844.876 272.065 844.612 272.406 844.271 272.724C843.935 273.037 843.512 273.29 843.001 273.483C842.495 273.67 841.901 273.764 841.219 273.764ZM842.021 271.497C842.64 271.497 843.177 271.375 843.631 271.131C844.086 270.881 844.435 270.551 844.68 270.142C844.93 269.733 845.055 269.287 845.055 268.804V267.261C844.958 267.341 844.793 267.415 844.56 267.483C844.333 267.551 844.077 267.611 843.793 267.662C843.509 267.713 843.228 267.759 842.95 267.798C842.671 267.838 842.43 267.872 842.225 267.901C841.765 267.963 841.353 268.065 840.989 268.207C840.626 268.349 840.339 268.548 840.129 268.804C839.918 269.054 839.813 269.378 839.813 269.776C839.813 270.344 840.021 270.773 840.435 271.062C840.85 271.352 841.379 271.497 842.021 271.497ZM851.234 273.5V260.409H854.183V262.634H854.336C854.609 261.884 855.06 261.298 855.691 260.878C856.322 260.452 857.075 260.239 857.95 260.239C858.836 260.239 859.583 260.455 860.191 260.886C860.805 261.312 861.237 261.895 861.487 262.634H861.623C861.913 261.906 862.401 261.327 863.089 260.895C863.782 260.457 864.603 260.239 865.552 260.239C866.756 260.239 867.739 260.619 868.501 261.381C869.262 262.142 869.643 263.253 869.643 264.713V273.5H866.549V265.19C866.549 264.378 866.333 263.784 865.901 263.409C865.469 263.028 864.941 262.838 864.316 262.838C863.572 262.838 862.989 263.071 862.569 263.537C862.154 263.997 861.947 264.597 861.947 265.335V273.5H858.921V265.062C858.921 264.386 858.717 263.847 858.308 263.443C857.904 263.04 857.376 262.838 856.722 262.838C856.279 262.838 855.876 262.952 855.512 263.179C855.148 263.401 854.859 263.716 854.643 264.125C854.427 264.528 854.319 265 854.319 265.54V273.5H851.234ZM878.568 273.756C877.256 273.756 876.122 273.483 875.168 272.938C874.219 272.386 873.489 271.608 872.977 270.602C872.466 269.591 872.21 268.401 872.21 267.031C872.21 265.685 872.466 264.503 872.977 263.486C873.494 262.463 874.216 261.668 875.142 261.099C876.068 260.526 877.156 260.239 878.406 260.239C879.213 260.239 879.974 260.369 880.69 260.631C881.412 260.886 882.048 261.284 882.599 261.824C883.156 262.364 883.594 263.051 883.912 263.886C884.23 264.716 884.389 265.705 884.389 266.852V267.798H873.659V265.719H881.432C881.426 265.128 881.298 264.602 881.048 264.142C880.798 263.676 880.449 263.31 880 263.043C879.557 262.776 879.04 262.642 878.449 262.642C877.818 262.642 877.264 262.795 876.787 263.102C876.31 263.403 875.938 263.801 875.67 264.295C875.409 264.784 875.276 265.321 875.27 265.906V267.722C875.27 268.483 875.409 269.136 875.688 269.682C875.966 270.222 876.355 270.636 876.855 270.926C877.355 271.21 877.94 271.352 878.611 271.352C879.06 271.352 879.466 271.29 879.83 271.165C880.193 271.034 880.509 270.844 880.776 270.594C881.043 270.344 881.244 270.034 881.381 269.665L884.261 269.989C884.08 270.75 883.733 271.415 883.222 271.983C882.716 272.545 882.068 272.983 881.278 273.295C880.489 273.602 879.585 273.756 878.568 273.756Z" fill="#1D2126"/>
<rect opacity="0.4" x="761" y="290.5" width="198" height="38" fill="white" stroke="#CCCCCC" stroke-width="2"/>
<path d="M976.722 273.5V256.045H979.884V270.849H987.571V273.5H976.722ZM993.946 273.764C993.116 273.764 992.369 273.616 991.705 273.321C991.045 273.02 990.523 272.577 990.136 271.991C989.756 271.406 989.565 270.685 989.565 269.827C989.565 269.088 989.702 268.477 989.974 267.994C990.247 267.511 990.619 267.125 991.091 266.835C991.563 266.545 992.094 266.327 992.685 266.179C993.281 266.026 993.898 265.915 994.534 265.847C995.301 265.767 995.923 265.696 996.401 265.634C996.878 265.565 997.224 265.463 997.44 265.327C997.662 265.185 997.773 264.966 997.773 264.67V264.619C997.773 263.977 997.582 263.48 997.202 263.128C996.821 262.776 996.273 262.599 995.557 262.599C994.801 262.599 994.202 262.764 993.759 263.094C993.321 263.423 993.026 263.812 992.872 264.261L989.991 263.852C990.219 263.057 990.594 262.392 991.116 261.858C991.639 261.318 992.278 260.915 993.034 260.648C993.79 260.375 994.625 260.239 995.54 260.239C996.17 260.239 996.798 260.312 997.423 260.46C998.048 260.608 998.619 260.852 999.136 261.193C999.653 261.528 1000.07 261.986 1000.38 262.565C1000.7 263.145 1000.86 263.869 1000.86 264.739V273.5H997.892V271.702H997.79C997.602 272.065 997.338 272.406 996.997 272.724C996.662 273.037 996.239 273.29 995.727 273.483C995.222 273.67 994.628 273.764 993.946 273.764ZM994.747 271.497C995.366 271.497 995.903 271.375 996.358 271.131C996.813 270.881 997.162 270.551 997.406 270.142C997.656 269.733 997.781 269.287 997.781 268.804V267.261C997.685 267.341 997.52 267.415 997.287 267.483C997.06 267.551 996.804 267.611 996.52 267.662C996.236 267.713 995.955 267.759 995.676 267.798C995.398 267.838 995.156 267.872 994.952 267.901C994.491 267.963 994.08 268.065 993.716 268.207C993.352 268.349 993.065 268.548 992.855 268.804C992.645 269.054 992.54 269.378 992.54 269.776C992.54 270.344 992.747 270.773 993.162 271.062C993.577 271.352 994.105 271.497 994.747 271.497ZM1014.31 263.869L1011.49 264.176C1011.41 263.892 1011.28 263.625 1011.08 263.375C1010.88 263.125 1010.62 262.923 1010.29 262.77C1009.96 262.616 1009.56 262.54 1009.08 262.54C1008.44 262.54 1007.9 262.679 1007.46 262.957C1007.03 263.236 1006.82 263.597 1006.82 264.04C1006.82 264.42 1006.96 264.73 1007.24 264.969C1007.53 265.207 1008.01 265.403 1008.67 265.557L1010.91 266.034C1012.14 266.301 1013.07 266.724 1013.67 267.304C1014.28 267.884 1014.58 268.642 1014.59 269.58C1014.58 270.403 1014.34 271.131 1013.86 271.761C1013.39 272.386 1012.74 272.875 1011.89 273.227C1011.05 273.58 1010.09 273.756 1009 273.756C1007.39 273.756 1006.11 273.42 1005.13 272.75C1004.15 272.074 1003.57 271.134 1003.38 269.929L1006.39 269.639C1006.53 270.23 1006.82 270.676 1007.26 270.977C1007.7 271.278 1008.28 271.429 1008.99 271.429C1009.72 271.429 1010.31 271.278 1010.75 270.977C1011.2 270.676 1011.43 270.304 1011.43 269.861C1011.43 269.486 1011.28 269.176 1010.99 268.932C1010.71 268.687 1010.26 268.5 1009.66 268.369L1007.43 267.901C1006.17 267.639 1005.24 267.199 1004.64 266.58C1004.04 265.955 1003.74 265.165 1003.75 264.21C1003.74 263.403 1003.96 262.705 1004.4 262.114C1004.85 261.517 1005.47 261.057 1006.27 260.733C1007.07 260.403 1007.99 260.239 1009.04 260.239C1010.57 260.239 1011.78 260.565 1012.66 261.219C1013.55 261.872 1014.1 262.756 1014.31 263.869ZM1023.67 260.409V262.795H1016.14V260.409H1023.67ZM1018 257.273H1021.09V269.562C1021.09 269.977 1021.15 270.295 1021.27 270.517C1021.4 270.733 1021.58 270.881 1021.79 270.96C1022 271.04 1022.23 271.08 1022.48 271.08C1022.68 271.08 1022.85 271.065 1023.01 271.037C1023.18 271.009 1023.3 270.983 1023.39 270.96L1023.91 273.372C1023.74 273.429 1023.51 273.491 1023.2 273.56C1022.9 273.628 1022.53 273.668 1022.09 273.679C1021.32 273.702 1020.62 273.585 1020 273.33C1019.38 273.068 1018.89 272.665 1018.53 272.119C1018.17 271.574 1018 270.892 1018 270.074V257.273ZM1046.68 256.045V273.5H1043.87L1035.65 261.611H1035.5V273.5H1032.34V256.045H1035.17L1043.38 267.943H1043.54V256.045H1046.68ZM1053.76 273.764C1052.93 273.764 1052.18 273.616 1051.52 273.321C1050.86 273.02 1050.34 272.577 1049.95 271.991C1049.57 271.406 1049.38 270.685 1049.38 269.827C1049.38 269.088 1049.51 268.477 1049.79 267.994C1050.06 267.511 1050.43 267.125 1050.9 266.835C1051.38 266.545 1051.91 266.327 1052.5 266.179C1053.09 266.026 1053.71 265.915 1054.35 265.847C1055.11 265.767 1055.74 265.696 1056.21 265.634C1056.69 265.565 1057.04 265.463 1057.25 265.327C1057.47 265.185 1057.59 264.966 1057.59 264.67V264.619C1057.59 263.977 1057.39 263.48 1057.01 263.128C1056.63 262.776 1056.09 262.599 1055.37 262.599C1054.61 262.599 1054.01 262.764 1053.57 263.094C1053.13 263.423 1052.84 263.812 1052.68 264.261L1049.8 263.852C1050.03 263.057 1050.41 262.392 1050.93 261.858C1051.45 261.318 1052.09 260.915 1052.85 260.648C1053.6 260.375 1054.44 260.239 1055.35 260.239C1055.98 260.239 1056.61 260.312 1057.24 260.46C1057.86 260.608 1058.43 260.852 1058.95 261.193C1059.47 261.528 1059.88 261.986 1060.19 262.565C1060.51 263.145 1060.67 263.869 1060.67 264.739V273.5H1057.7V271.702H1057.6C1057.41 272.065 1057.15 272.406 1056.81 272.724C1056.47 273.037 1056.05 273.29 1055.54 273.483C1055.03 273.67 1054.44 273.764 1053.76 273.764ZM1054.56 271.497C1055.18 271.497 1055.72 271.375 1056.17 271.131C1056.63 270.881 1056.97 270.551 1057.22 270.142C1057.47 269.733 1057.59 269.287 1057.59 268.804V267.261C1057.5 267.341 1057.33 267.415 1057.1 267.483C1056.87 267.551 1056.62 267.611 1056.33 267.662C1056.05 267.713 1055.77 267.759 1055.49 267.798C1055.21 267.838 1054.97 267.872 1054.76 267.901C1054.3 267.963 1053.89 268.065 1053.53 268.207C1053.16 268.349 1052.88 268.548 1052.67 268.804C1052.46 269.054 1052.35 269.378 1052.35 269.776C1052.35 270.344 1052.56 270.773 1052.97 271.062C1053.39 271.352 1053.92 271.497 1054.56 271.497ZM1063.77 273.5V260.409H1066.72V262.634H1066.88C1067.15 261.884 1067.6 261.298 1068.23 260.878C1068.86 260.452 1069.61 260.239 1070.49 260.239C1071.38 260.239 1072.12 260.455 1072.73 260.886C1073.34 261.312 1073.78 261.895 1074.03 262.634H1074.16C1074.45 261.906 1074.94 261.327 1075.63 260.895C1076.32 260.457 1077.14 260.239 1078.09 260.239C1079.3 260.239 1080.28 260.619 1081.04 261.381C1081.8 262.142 1082.18 263.253 1082.18 264.713V273.5H1079.09V265.19C1079.09 264.378 1078.87 263.784 1078.44 263.409C1078.01 263.028 1077.48 262.838 1076.86 262.838C1076.11 262.838 1075.53 263.071 1075.11 263.537C1074.69 263.997 1074.49 264.597 1074.49 265.335V273.5H1071.46V265.062C1071.46 264.386 1071.26 263.847 1070.85 263.443C1070.44 263.04 1069.91 262.838 1069.26 262.838C1068.82 262.838 1068.41 262.952 1068.05 263.179C1067.69 263.401 1067.4 263.716 1067.18 264.125C1066.97 264.528 1066.86 265 1066.86 265.54V273.5H1063.77ZM1091.11 273.756C1089.79 273.756 1088.66 273.483 1087.71 272.938C1086.76 272.386 1086.03 271.608 1085.52 270.602C1085 269.591 1084.75 268.401 1084.75 267.031C1084.75 265.685 1085 264.503 1085.52 263.486C1086.03 262.463 1086.75 261.668 1087.68 261.099C1088.61 260.526 1089.7 260.239 1090.95 260.239C1091.75 260.239 1092.51 260.369 1093.23 260.631C1093.95 260.886 1094.59 261.284 1095.14 261.824C1095.7 262.364 1096.13 263.051 1096.45 263.886C1096.77 264.716 1096.93 265.705 1096.93 266.852V267.798H1086.2V265.719H1093.97C1093.97 265.128 1093.84 264.602 1093.59 264.142C1093.34 263.676 1092.99 263.31 1092.54 263.043C1092.1 262.776 1091.58 262.642 1090.99 262.642C1090.36 262.642 1089.8 262.795 1089.33 263.102C1088.85 263.403 1088.48 263.801 1088.21 264.295C1087.95 264.784 1087.81 265.321 1087.81 265.906V267.722C1087.81 268.483 1087.95 269.136 1088.23 269.682C1088.5 270.222 1088.89 270.636 1089.39 270.926C1089.89 271.21 1090.48 271.352 1091.15 271.352C1091.6 271.352 1092 271.29 1092.37 271.165C1092.73 271.034 1093.05 270.844 1093.31 270.594C1093.58 270.344 1093.78 270.034 1093.92 269.665L1096.8 269.989C1096.62 270.75 1096.27 271.415 1095.76 271.983C1095.25 272.545 1094.61 272.983 1093.82 273.295C1093.03 273.602 1092.12 273.756 1091.11 273.756Z" fill="#1D2126"/>
<rect opacity="0.4" x="976" y="290.5" width="198" height="38" fill="white" stroke="#CCCCCC" stroke-width="2"/>
<path d="M776.662 348.935H773.474C773.384 348.412 773.216 347.949 772.972 347.545C772.727 347.136 772.423 346.79 772.06 346.506C771.696 346.222 771.281 346.009 770.815 345.866C770.355 345.719 769.858 345.645 769.324 345.645C768.375 345.645 767.534 345.884 766.801 346.361C766.068 346.832 765.494 347.526 765.08 348.44C764.665 349.349 764.457 350.46 764.457 351.773C764.457 353.108 764.665 354.233 765.08 355.148C765.5 356.057 766.074 356.744 766.801 357.21C767.534 357.67 768.372 357.901 769.315 357.901C769.838 357.901 770.327 357.832 770.781 357.696C771.241 357.554 771.653 357.347 772.017 357.074C772.386 356.801 772.696 356.466 772.946 356.068C773.202 355.67 773.378 355.216 773.474 354.705L776.662 354.722C776.543 355.551 776.284 356.33 775.886 357.057C775.494 357.784 774.98 358.426 774.344 358.983C773.707 359.534 772.963 359.966 772.111 360.278C771.259 360.585 770.313 360.739 769.273 360.739C767.739 360.739 766.369 360.384 765.165 359.673C763.96 358.963 763.011 357.938 762.318 356.597C761.625 355.256 761.278 353.648 761.278 351.773C761.278 349.892 761.628 348.284 762.327 346.949C763.026 345.608 763.977 344.582 765.182 343.872C766.386 343.162 767.75 342.807 769.273 342.807C770.244 342.807 771.148 342.943 771.983 343.216C772.818 343.489 773.563 343.889 774.216 344.418C774.869 344.94 775.406 345.582 775.827 346.344C776.253 347.099 776.531 347.963 776.662 348.935ZM785.131 360.756C783.853 360.756 782.745 360.474 781.808 359.912C780.87 359.349 780.143 358.562 779.626 357.551C779.114 356.54 778.859 355.358 778.859 354.006C778.859 352.653 779.114 351.469 779.626 350.452C780.143 349.435 780.87 348.645 781.808 348.082C782.745 347.52 783.853 347.239 785.131 347.239C786.41 347.239 787.518 347.52 788.455 348.082C789.393 348.645 790.117 349.435 790.629 350.452C791.146 351.469 791.404 352.653 791.404 354.006C791.404 355.358 791.146 356.54 790.629 357.551C790.117 358.562 789.393 359.349 788.455 359.912C787.518 360.474 786.41 360.756 785.131 360.756ZM785.148 358.284C785.842 358.284 786.421 358.094 786.887 357.713C787.353 357.327 787.7 356.81 787.927 356.162C788.16 355.514 788.276 354.793 788.276 353.997C788.276 353.196 788.16 352.472 787.927 351.824C787.7 351.17 787.353 350.651 786.887 350.264C786.421 349.878 785.842 349.685 785.148 349.685C784.438 349.685 783.847 349.878 783.376 350.264C782.91 350.651 782.56 351.17 782.327 351.824C782.1 352.472 781.987 353.196 781.987 353.997C781.987 354.793 782.1 355.514 782.327 356.162C782.56 356.81 782.91 357.327 783.376 357.713C783.847 358.094 784.438 358.284 785.148 358.284ZM794.023 360.5V347.409H796.972V349.634H797.125C797.398 348.884 797.849 348.298 798.48 347.878C799.111 347.452 799.864 347.239 800.739 347.239C801.625 347.239 802.372 347.455 802.98 347.886C803.594 348.312 804.026 348.895 804.276 349.634H804.412C804.702 348.906 805.19 348.327 805.878 347.895C806.571 347.457 807.392 347.239 808.341 347.239C809.545 347.239 810.528 347.619 811.29 348.381C812.051 349.142 812.432 350.253 812.432 351.713V360.5H809.338V352.19C809.338 351.378 809.122 350.784 808.69 350.409C808.259 350.028 807.73 349.838 807.105 349.838C806.361 349.838 805.778 350.071 805.358 350.537C804.943 350.997 804.736 351.597 804.736 352.335V360.5H801.71V352.062C801.71 351.386 801.506 350.847 801.097 350.443C800.693 350.04 800.165 349.838 799.511 349.838C799.068 349.838 798.665 349.952 798.301 350.179C797.938 350.401 797.648 350.716 797.432 351.125C797.216 351.528 797.108 352 797.108 352.54V360.5H794.023ZM815.562 365.409V347.409H818.596V349.574H818.775C818.934 349.256 819.158 348.918 819.448 348.56C819.738 348.196 820.13 347.886 820.624 347.631C821.119 347.369 821.749 347.239 822.516 347.239C823.528 347.239 824.44 347.497 825.252 348.014C826.07 348.526 826.718 349.284 827.195 350.29C827.678 351.29 827.92 352.517 827.92 353.972C827.92 355.409 827.684 356.631 827.212 357.636C826.741 358.642 826.099 359.409 825.286 359.938C824.474 360.466 823.553 360.73 822.525 360.73C821.775 360.73 821.153 360.605 820.658 360.355C820.164 360.105 819.766 359.804 819.465 359.452C819.17 359.094 818.94 358.756 818.775 358.438H818.647V365.409H815.562ZM818.587 353.955C818.587 354.801 818.707 355.543 818.945 356.179C819.19 356.815 819.539 357.312 819.994 357.67C820.454 358.023 821.011 358.199 821.664 358.199C822.346 358.199 822.917 358.017 823.377 357.653C823.837 357.284 824.184 356.781 824.417 356.145C824.656 355.503 824.775 354.773 824.775 353.955C824.775 353.142 824.658 352.42 824.425 351.79C824.192 351.159 823.846 350.665 823.386 350.307C822.925 349.949 822.352 349.77 821.664 349.77C821.005 349.77 820.445 349.943 819.985 350.29C819.525 350.636 819.175 351.122 818.937 351.747C818.704 352.372 818.587 353.108 818.587 353.955ZM834.329 360.764C833.499 360.764 832.752 360.616 832.087 360.321C831.428 360.02 830.906 359.577 830.519 358.991C830.138 358.406 829.948 357.685 829.948 356.827C829.948 356.088 830.085 355.477 830.357 354.994C830.63 354.511 831.002 354.125 831.474 353.835C831.945 353.545 832.477 353.327 833.067 353.179C833.664 353.026 834.281 352.915 834.917 352.847C835.684 352.767 836.306 352.696 836.783 352.634C837.261 352.565 837.607 352.463 837.823 352.327C838.045 352.185 838.156 351.966 838.156 351.67V351.619C838.156 350.977 837.965 350.48 837.585 350.128C837.204 349.776 836.656 349.599 835.94 349.599C835.184 349.599 834.585 349.764 834.141 350.094C833.704 350.423 833.408 350.812 833.255 351.261L830.374 350.852C830.602 350.057 830.977 349.392 831.499 348.858C832.022 348.318 832.661 347.915 833.417 347.648C834.173 347.375 835.008 347.239 835.923 347.239C836.553 347.239 837.181 347.312 837.806 347.46C838.431 347.608 839.002 347.852 839.519 348.193C840.036 348.528 840.451 348.986 840.763 349.565C841.082 350.145 841.241 350.869 841.241 351.739V360.5H838.275V358.702H838.173C837.985 359.065 837.721 359.406 837.38 359.724C837.045 360.037 836.621 360.29 836.11 360.483C835.604 360.67 835.011 360.764 834.329 360.764ZM835.13 358.497C835.749 358.497 836.286 358.375 836.741 358.131C837.195 357.881 837.545 357.551 837.789 357.142C838.039 356.733 838.164 356.287 838.164 355.804V354.261C838.067 354.341 837.903 354.415 837.67 354.483C837.442 354.551 837.187 354.611 836.903 354.662C836.619 354.713 836.337 354.759 836.059 354.798C835.781 354.838 835.539 354.872 835.335 354.901C834.874 354.963 834.462 355.065 834.099 355.207C833.735 355.349 833.448 355.548 833.238 355.804C833.028 356.054 832.923 356.378 832.923 356.776C832.923 357.344 833.13 357.773 833.545 358.062C833.96 358.352 834.488 358.497 835.13 358.497ZM847.428 352.83V360.5H844.343V347.409H847.292V349.634H847.445C847.746 348.901 848.227 348.318 848.886 347.886C849.55 347.455 850.371 347.239 851.349 347.239C852.252 347.239 853.039 347.432 853.71 347.818C854.386 348.205 854.908 348.764 855.278 349.497C855.653 350.23 855.837 351.119 855.832 352.165V360.5H852.746V352.642C852.746 351.767 852.519 351.082 852.065 350.588C851.616 350.094 850.994 349.847 850.198 349.847C849.658 349.847 849.178 349.966 848.758 350.205C848.343 350.437 848.016 350.776 847.778 351.219C847.545 351.662 847.428 352.199 847.428 352.83ZM860.417 365.409C859.996 365.409 859.607 365.375 859.249 365.307C858.897 365.244 858.616 365.17 858.406 365.085L859.121 362.682C859.57 362.813 859.971 362.875 860.323 362.869C860.675 362.864 860.985 362.753 861.252 362.537C861.525 362.327 861.755 361.974 861.942 361.48L862.207 360.773L857.46 347.409H860.732L863.749 357.295H863.886L866.911 347.409H870.192L864.951 362.085C864.707 362.778 864.383 363.372 863.979 363.866C863.576 364.366 863.082 364.747 862.496 365.009C861.917 365.276 861.224 365.409 860.417 365.409ZM892.761 343.045V360.5H889.948L881.724 348.611H881.579V360.5H878.417V343.045H881.246L889.462 354.943H889.616V343.045H892.761ZM899.837 360.764C899.007 360.764 898.26 360.616 897.595 360.321C896.936 360.02 896.413 359.577 896.027 358.991C895.646 358.406 895.456 357.685 895.456 356.827C895.456 356.088 895.592 355.477 895.865 354.994C896.138 354.511 896.51 354.125 896.982 353.835C897.453 353.545 897.984 353.327 898.575 353.179C899.172 353.026 899.788 352.915 900.425 352.847C901.192 352.767 901.814 352.696 902.291 352.634C902.768 352.565 903.115 352.463 903.331 352.327C903.553 352.185 903.663 351.966 903.663 351.67V351.619C903.663 350.977 903.473 350.48 903.092 350.128C902.712 349.776 902.163 349.599 901.447 349.599C900.692 349.599 900.092 349.764 899.649 350.094C899.212 350.423 898.916 350.812 898.763 351.261L895.882 350.852C896.109 350.057 896.484 349.392 897.007 348.858C897.53 348.318 898.169 347.915 898.925 347.648C899.68 347.375 900.516 347.239 901.43 347.239C902.061 347.239 902.689 347.312 903.314 347.46C903.939 347.608 904.51 347.852 905.027 348.193C905.544 348.528 905.959 348.986 906.271 349.565C906.589 350.145 906.749 350.869 906.749 351.739V360.5H903.783V358.702H903.68C903.493 359.065 903.229 359.406 902.888 359.724C902.553 360.037 902.129 360.29 901.618 360.483C901.112 360.67 900.518 360.764 899.837 360.764ZM900.638 358.497C901.257 358.497 901.794 358.375 902.249 358.131C902.703 357.881 903.053 357.551 903.297 357.142C903.547 356.733 903.672 356.287 903.672 355.804V354.261C903.575 354.341 903.411 354.415 903.178 354.483C902.95 354.551 902.695 354.611 902.411 354.662C902.126 354.713 901.845 354.759 901.567 354.798C901.288 354.838 901.047 354.872 900.842 354.901C900.382 354.963 899.97 355.065 899.607 355.207C899.243 355.349 898.956 355.548 898.746 355.804C898.536 356.054 898.43 356.378 898.43 356.776C898.43 357.344 898.638 357.773 899.053 358.062C899.467 358.352 899.996 358.497 900.638 358.497ZM909.851 360.5V347.409H912.8V349.634H912.953C913.226 348.884 913.678 348.298 914.308 347.878C914.939 347.452 915.692 347.239 916.567 347.239C917.453 347.239 918.2 347.455 918.808 347.886C919.422 348.312 919.854 348.895 920.104 349.634H920.24C920.53 348.906 921.018 348.327 921.706 347.895C922.399 347.457 923.22 347.239 924.169 347.239C925.374 347.239 926.357 347.619 927.118 348.381C927.879 349.142 928.26 350.253 928.26 351.713V360.5H925.166V352.19C925.166 351.378 924.95 350.784 924.518 350.409C924.087 350.028 923.558 349.838 922.933 349.838C922.189 349.838 921.607 350.071 921.186 350.537C920.771 350.997 920.564 351.597 920.564 352.335V360.5H917.538V352.062C917.538 351.386 917.334 350.847 916.925 350.443C916.521 350.04 915.993 349.838 915.339 349.838C914.896 349.838 914.493 349.952 914.129 350.179C913.766 350.401 913.476 350.716 913.26 351.125C913.044 351.528 912.936 352 912.936 352.54V360.5H909.851ZM937.185 360.756C935.873 360.756 934.739 360.483 933.785 359.938C932.836 359.386 932.106 358.608 931.594 357.602C931.083 356.591 930.827 355.401 930.827 354.031C930.827 352.685 931.083 351.503 931.594 350.486C932.112 349.463 932.833 348.668 933.759 348.099C934.685 347.526 935.773 347.239 937.023 347.239C937.83 347.239 938.592 347.369 939.308 347.631C940.029 347.886 940.665 348.284 941.217 348.824C941.773 349.364 942.211 350.051 942.529 350.886C942.847 351.716 943.006 352.705 943.006 353.852V354.798H932.276V352.719H940.049C940.043 352.128 939.915 351.602 939.665 351.142C939.415 350.676 939.066 350.31 938.617 350.043C938.174 349.776 937.657 349.642 937.066 349.642C936.435 349.642 935.881 349.795 935.404 350.102C934.927 350.403 934.555 350.801 934.288 351.295C934.026 351.784 933.893 352.321 933.887 352.906V354.722C933.887 355.483 934.026 356.136 934.305 356.682C934.583 357.222 934.972 357.636 935.472 357.926C935.972 358.21 936.558 358.352 937.228 358.352C937.677 358.352 938.083 358.29 938.447 358.165C938.81 358.034 939.126 357.844 939.393 357.594C939.66 357.344 939.862 357.034 939.998 356.665L942.879 356.989C942.697 357.75 942.35 358.415 941.839 358.983C941.333 359.545 940.685 359.983 939.896 360.295C939.106 360.602 938.202 360.756 937.185 360.756Z" fill="#1D2126"/>
<rect opacity="0.4" x="761" y="377.5" width="413" height="38" rx="4" fill="white" stroke="#CCCCCC" stroke-width="2"/>
<path d="M765.395 447.5L760.469 430.045H763.869L767.014 442.872H767.176L770.534 430.045H773.628L776.994 442.881H777.148L780.293 430.045H783.693L778.767 447.5H775.648L772.153 435.253H772.017L768.514 447.5H765.395ZM790.124 447.756C788.845 447.756 787.737 447.474 786.8 446.912C785.862 446.349 785.135 445.562 784.618 444.551C784.107 443.54 783.851 442.358 783.851 441.006C783.851 439.653 784.107 438.469 784.618 437.452C785.135 436.435 785.862 435.645 786.8 435.082C787.737 434.52 788.845 434.239 790.124 434.239C791.402 434.239 792.51 434.52 793.447 435.082C794.385 435.645 795.109 436.435 795.621 437.452C796.138 438.469 796.396 439.653 796.396 441.006C796.396 442.358 796.138 443.54 795.621 444.551C795.109 445.562 794.385 446.349 793.447 446.912C792.51 447.474 791.402 447.756 790.124 447.756ZM790.141 445.284C790.834 445.284 791.413 445.094 791.879 444.713C792.345 444.327 792.692 443.81 792.919 443.162C793.152 442.514 793.268 441.793 793.268 440.997C793.268 440.196 793.152 439.472 792.919 438.824C792.692 438.17 792.345 437.651 791.879 437.264C791.413 436.878 790.834 436.685 790.141 436.685C789.43 436.685 788.839 436.878 788.368 437.264C787.902 437.651 787.553 438.17 787.32 438.824C787.092 439.472 786.979 440.196 786.979 440.997C786.979 441.793 787.092 442.514 787.32 443.162C787.553 443.81 787.902 444.327 788.368 444.713C788.839 445.094 789.43 445.284 790.141 445.284ZM799.015 447.5V434.409H802.006V436.591H802.143C802.381 435.835 802.79 435.253 803.37 434.844C803.955 434.429 804.623 434.222 805.373 434.222C805.543 434.222 805.734 434.23 805.944 434.247C806.16 434.259 806.339 434.278 806.481 434.307V437.145C806.35 437.099 806.143 437.06 805.859 437.026C805.58 436.986 805.31 436.966 805.049 436.966C804.487 436.966 803.981 437.088 803.532 437.332C803.089 437.571 802.739 437.903 802.484 438.33C802.228 438.756 802.1 439.247 802.1 439.804V447.5H799.015ZM811.343 443.392L811.335 439.668H811.829L816.533 434.409H820.138L814.352 440.852H813.712L811.343 443.392ZM808.531 447.5V430.045H811.616V447.5H808.531ZM816.746 447.5L812.485 441.543L814.565 439.369L820.437 447.5H816.746ZM828.284 447.5V430.045H839.636V432.696H831.446V437.435H839.048V440.085H831.446V444.849H839.705V447.5H828.284ZM842.726 447.5V434.409H845.675V436.634H845.828C846.101 435.884 846.553 435.298 847.183 434.878C847.814 434.452 848.567 434.239 849.442 434.239C850.328 434.239 851.075 434.455 851.683 434.886C852.297 435.312 852.729 435.895 852.979 436.634H853.115C853.405 435.906 853.893 435.327 854.581 434.895C855.274 434.457 856.095 434.239 857.044 434.239C858.249 434.239 859.232 434.619 859.993 435.381C860.754 436.142 861.135 437.253 861.135 438.713V447.5H858.041V439.19C858.041 438.378 857.825 437.784 857.393 437.409C856.962 437.028 856.433 436.838 855.808 436.838C855.064 436.838 854.482 437.071 854.061 437.537C853.646 437.997 853.439 438.597 853.439 439.335V447.5H850.413V439.062C850.413 438.386 850.209 437.847 849.8 437.443C849.396 437.04 848.868 436.838 848.214 436.838C847.771 436.838 847.368 436.952 847.004 437.179C846.641 437.401 846.351 437.716 846.135 438.125C845.919 438.528 845.811 439 845.811 439.54V447.5H842.726ZM868.032 447.764C867.202 447.764 866.455 447.616 865.79 447.321C865.131 447.02 864.609 446.577 864.222 445.991C863.842 445.406 863.651 444.685 863.651 443.827C863.651 443.088 863.788 442.477 864.06 441.994C864.333 441.511 864.705 441.125 865.177 440.835C865.648 440.545 866.18 440.327 866.771 440.179C867.367 440.026 867.984 439.915 868.62 439.847C869.387 439.767 870.009 439.696 870.487 439.634C870.964 439.565 871.31 439.463 871.526 439.327C871.748 439.185 871.859 438.966 871.859 438.67V438.619C871.859 437.977 871.668 437.48 871.288 437.128C870.907 436.776 870.359 436.599 869.643 436.599C868.887 436.599 868.288 436.764 867.844 437.094C867.407 437.423 867.112 437.812 866.958 438.261L864.077 437.852C864.305 437.057 864.68 436.392 865.202 435.858C865.725 435.318 866.364 434.915 867.12 434.648C867.876 434.375 868.711 434.239 869.626 434.239C870.256 434.239 870.884 434.312 871.509 434.46C872.134 434.608 872.705 434.852 873.222 435.193C873.739 435.528 874.154 435.986 874.467 436.565C874.785 437.145 874.944 437.869 874.944 438.739V447.5H871.978V445.702H871.876C871.688 446.065 871.424 446.406 871.083 446.724C870.748 447.037 870.325 447.29 869.813 447.483C869.308 447.67 868.714 447.764 868.032 447.764ZM868.833 445.497C869.452 445.497 869.989 445.375 870.444 445.131C870.898 444.881 871.248 444.551 871.492 444.142C871.742 443.733 871.867 443.287 871.867 442.804V441.261C871.771 441.341 871.606 441.415 871.373 441.483C871.146 441.551 870.89 441.611 870.606 441.662C870.322 441.713 870.04 441.759 869.762 441.798C869.484 441.838 869.242 441.872 869.038 441.901C868.577 441.963 868.165 442.065 867.802 442.207C867.438 442.349 867.151 442.548 866.941 442.804C866.731 443.054 866.626 443.378 866.626 443.776C866.626 444.344 866.833 444.773 867.248 445.062C867.663 445.352 868.191 445.497 868.833 445.497ZM878.046 447.5V434.409H881.131V447.5H878.046ZM879.597 432.551C879.109 432.551 878.688 432.389 878.336 432.065C877.984 431.736 877.808 431.341 877.808 430.881C877.808 430.415 877.984 430.02 878.336 429.696C878.688 429.366 879.109 429.202 879.597 429.202C880.092 429.202 880.512 429.366 880.859 429.696C881.211 430.02 881.387 430.415 881.387 430.881C881.387 431.341 881.211 431.736 880.859 432.065C880.512 432.389 880.092 432.551 879.597 432.551ZM887.389 430.045V447.5H884.304V430.045H887.389Z" fill="#1D2126"/>
<rect opacity="0.4" x="761" y="464.5" width="413" height="38" rx="4" fill="white" stroke="#CCCCCC" stroke-width="2"/>
<path d="M761.722 534.5V517.045H768.267C769.608 517.045 770.733 517.295 771.642 517.795C772.557 518.295 773.247 518.983 773.713 519.858C774.185 520.727 774.42 521.716 774.42 522.824C774.42 523.943 774.185 524.937 773.713 525.807C773.241 526.676 772.545 527.361 771.625 527.861C770.705 528.355 769.571 528.602 768.224 528.602H763.886V526.003H767.798C768.582 526.003 769.224 525.866 769.724 525.594C770.224 525.321 770.594 524.946 770.832 524.469C771.077 523.991 771.199 523.443 771.199 522.824C771.199 522.205 771.077 521.659 770.832 521.188C770.594 520.716 770.222 520.349 769.716 520.088C769.216 519.821 768.571 519.688 767.781 519.688H764.884V534.5H761.722ZM780.116 526.83V534.5H777.031V517.045H780.048V523.634H780.201C780.508 522.895 780.982 522.312 781.624 521.886C782.272 521.455 783.096 521.239 784.096 521.239C785.005 521.239 785.798 521.429 786.474 521.81C787.15 522.19 787.673 522.747 788.042 523.48C788.417 524.213 788.604 525.108 788.604 526.165V534.5H785.519V526.642C785.519 525.761 785.292 525.077 784.837 524.588C784.388 524.094 783.758 523.847 782.945 523.847C782.4 523.847 781.911 523.966 781.479 524.205C781.053 524.437 780.718 524.776 780.474 525.219C780.235 525.662 780.116 526.199 780.116 526.83ZM797.46 534.756C796.181 534.756 795.073 534.474 794.136 533.912C793.198 533.349 792.471 532.562 791.954 531.551C791.442 530.54 791.187 529.358 791.187 528.006C791.187 526.653 791.442 525.469 791.954 524.452C792.471 523.435 793.198 522.645 794.136 522.082C795.073 521.52 796.181 521.239 797.46 521.239C798.738 521.239 799.846 521.52 800.783 522.082C801.721 522.645 802.445 523.435 802.957 524.452C803.474 525.469 803.732 526.653 803.732 528.006C803.732 529.358 803.474 530.54 802.957 531.551C802.445 532.562 801.721 533.349 800.783 533.912C799.846 534.474 798.738 534.756 797.46 534.756ZM797.477 532.284C798.17 532.284 798.749 532.094 799.215 531.713C799.681 531.327 800.028 530.81 800.255 530.162C800.488 529.514 800.604 528.793 800.604 527.997C800.604 527.196 800.488 526.472 800.255 525.824C800.028 525.17 799.681 524.651 799.215 524.264C798.749 523.878 798.17 523.685 797.477 523.685C796.766 523.685 796.175 523.878 795.704 524.264C795.238 524.651 794.888 525.17 794.656 525.824C794.428 526.472 794.315 527.196 794.315 527.997C794.315 528.793 794.428 529.514 794.656 530.162C794.888 530.81 795.238 531.327 795.704 531.713C796.175 532.094 796.766 532.284 797.477 532.284ZM809.436 526.83V534.5H806.351V521.409H809.3V523.634H809.453C809.754 522.901 810.234 522.318 810.893 521.886C811.558 521.455 812.379 521.239 813.357 521.239C814.26 521.239 815.047 521.432 815.717 521.818C816.393 522.205 816.916 522.764 817.286 523.497C817.661 524.23 817.845 525.119 817.839 526.165V534.5H814.754V526.642C814.754 525.767 814.527 525.082 814.072 524.588C813.624 524.094 813.001 523.847 812.206 523.847C811.666 523.847 811.186 523.966 810.766 524.205C810.351 524.437 810.024 524.776 809.786 525.219C809.553 525.662 809.436 526.199 809.436 526.83ZM826.771 534.756C825.459 534.756 824.325 534.483 823.371 533.938C822.422 533.386 821.692 532.608 821.18 531.602C820.669 530.591 820.413 529.401 820.413 528.031C820.413 526.685 820.669 525.503 821.18 524.486C821.697 523.463 822.419 522.668 823.345 522.099C824.271 521.526 825.359 521.239 826.609 521.239C827.416 521.239 828.178 521.369 828.893 521.631C829.615 521.886 830.251 522.284 830.803 522.824C831.359 523.364 831.797 524.051 832.115 524.886C832.433 525.716 832.592 526.705 832.592 527.852V528.798H821.862V526.719H829.635C829.629 526.128 829.501 525.602 829.251 525.142C829.001 524.676 828.652 524.31 828.203 524.043C827.76 523.776 827.243 523.642 826.652 523.642C826.021 523.642 825.467 523.795 824.99 524.102C824.513 524.403 824.141 524.801 823.874 525.295C823.612 525.784 823.479 526.321 823.473 526.906V528.722C823.473 529.483 823.612 530.136 823.891 530.682C824.169 531.222 824.558 531.636 825.058 531.926C825.558 532.21 826.143 532.352 826.814 532.352C827.263 532.352 827.669 532.29 828.033 532.165C828.396 532.034 828.712 531.844 828.979 531.594C829.246 531.344 829.447 531.034 829.584 530.665L832.464 530.989C832.283 531.75 831.936 532.415 831.425 532.983C830.919 533.545 830.271 533.983 829.482 534.295C828.692 534.602 827.788 534.756 826.771 534.756ZM855.636 517.045V534.5H852.823L844.599 522.611H844.454V534.5H841.292V517.045H844.121L852.337 528.943H852.491V517.045H855.636ZM867.288 528.994V521.409H870.374V534.5H867.382V532.173H867.246C866.95 532.906 866.464 533.506 865.788 533.972C865.118 534.437 864.291 534.67 863.308 534.67C862.45 534.67 861.692 534.48 861.033 534.099C860.379 533.713 859.868 533.153 859.499 532.42C859.129 531.682 858.945 530.79 858.945 529.744V521.409H862.03V529.267C862.03 530.097 862.257 530.756 862.712 531.244C863.166 531.733 863.763 531.977 864.501 531.977C864.956 531.977 865.396 531.866 865.822 531.645C866.249 531.423 866.598 531.094 866.871 530.656C867.149 530.213 867.288 529.659 867.288 528.994ZM873.546 534.5V521.409H876.495V523.634H876.648C876.921 522.884 877.373 522.298 878.004 521.878C878.634 521.452 879.387 521.239 880.262 521.239C881.148 521.239 881.896 521.455 882.504 521.886C883.117 522.312 883.549 522.895 883.799 523.634H883.935C884.225 522.906 884.714 522.327 885.401 521.895C886.094 521.457 886.915 521.239 887.864 521.239C889.069 521.239 890.052 521.619 890.813 522.381C891.575 523.142 891.955 524.253 891.955 525.713V534.5H888.862V526.19C888.862 525.378 888.646 524.784 888.214 524.409C887.782 524.028 887.254 523.838 886.629 523.838C885.884 523.838 885.302 524.071 884.881 524.537C884.467 524.997 884.259 525.597 884.259 526.335V534.5H881.234V526.062C881.234 525.386 881.029 524.847 880.62 524.443C880.217 524.04 879.688 523.838 879.035 523.838C878.592 523.838 878.188 523.952 877.825 524.179C877.461 524.401 877.171 524.716 876.955 525.125C876.739 525.528 876.631 526 876.631 526.54V534.5H873.546ZM895.222 534.5V517.045H898.307V523.574H898.435C898.594 523.256 898.818 522.918 899.108 522.56C899.398 522.196 899.79 521.886 900.284 521.631C900.778 521.369 901.409 521.239 902.176 521.239C903.188 521.239 904.099 521.497 904.912 522.014C905.73 522.526 906.378 523.284 906.855 524.29C907.338 525.29 907.58 526.517 907.58 527.972C907.58 529.409 907.344 530.631 906.872 531.636C906.401 532.642 905.759 533.409 904.946 533.938C904.134 534.466 903.213 534.73 902.185 534.73C901.435 534.73 900.813 534.605 900.318 534.355C899.824 534.105 899.426 533.804 899.125 533.452C898.83 533.094 898.599 532.756 898.435 532.438H898.256V534.5H895.222ZM898.247 527.955C898.247 528.801 898.366 529.543 898.605 530.179C898.849 530.815 899.199 531.312 899.653 531.67C900.114 532.023 900.67 532.199 901.324 532.199C902.006 532.199 902.577 532.017 903.037 531.653C903.497 531.284 903.844 530.781 904.077 530.145C904.315 529.503 904.435 528.773 904.435 527.955C904.435 527.142 904.318 526.42 904.085 525.79C903.852 525.159 903.506 524.665 903.045 524.307C902.585 523.949 902.011 523.77 901.324 523.77C900.665 523.77 900.105 523.943 899.645 524.29C899.185 524.636 898.835 525.122 898.597 525.747C898.364 526.372 898.247 527.108 898.247 527.955ZM915.998 534.756C914.685 534.756 913.552 534.483 912.597 533.938C911.648 533.386 910.918 532.608 910.407 531.602C909.896 530.591 909.64 529.401 909.64 528.031C909.64 526.685 909.896 525.503 910.407 524.486C910.924 523.463 911.646 522.668 912.572 522.099C913.498 521.526 914.586 521.239 915.836 521.239C916.643 521.239 917.404 521.369 918.12 521.631C918.842 521.886 919.478 522.284 920.029 522.824C920.586 523.364 921.023 524.051 921.342 524.886C921.66 525.716 921.819 526.705 921.819 527.852V528.798H911.089V526.719H918.862C918.856 526.128 918.728 525.602 918.478 525.142C918.228 524.676 917.879 524.31 917.43 524.043C916.987 523.776 916.469 523.642 915.879 523.642C915.248 523.642 914.694 523.795 914.217 524.102C913.739 524.403 913.367 524.801 913.1 525.295C912.839 525.784 912.705 526.321 912.7 526.906V528.722C912.7 529.483 912.839 530.136 913.117 530.682C913.396 531.222 913.785 531.636 914.285 531.926C914.785 532.21 915.37 532.352 916.04 532.352C916.489 532.352 916.896 532.29 917.259 532.165C917.623 532.034 917.938 531.844 918.205 531.594C918.472 531.344 918.674 531.034 918.81 530.665L921.691 530.989C921.509 531.75 921.163 532.415 920.651 532.983C920.146 533.545 919.498 533.983 918.708 534.295C917.918 534.602 917.015 534.756 915.998 534.756ZM924.429 534.5V521.409H927.42V523.591H927.557C927.795 522.835 928.205 522.253 928.784 521.844C929.369 521.429 930.037 521.222 930.787 521.222C930.957 521.222 931.148 521.23 931.358 521.247C931.574 521.259 931.753 521.278 931.895 521.307V524.145C931.764 524.099 931.557 524.06 931.273 524.026C930.994 523.986 930.724 523.966 930.463 523.966C929.901 523.966 929.395 524.088 928.946 524.332C928.503 524.571 928.153 524.903 927.898 525.33C927.642 525.756 927.514 526.247 927.514 526.804V534.5H924.429Z" fill="#1D2126"/>
<rect opacity="0.4" x="761" y="551.5" width="413" height="38" rx="4" fill="white" stroke="#CCCCCC" stroke-width="2"/>
<path d="M763.963 621.5H760.588L766.733 604.045H770.636L776.79 621.5H773.415L768.753 607.625H768.616L763.963 621.5ZM764.074 614.656H773.278V617.196H764.074V614.656ZM783.412 621.73C782.384 621.73 781.463 621.466 780.651 620.938C779.838 620.409 779.196 619.642 778.724 618.636C778.253 617.631 778.017 616.409 778.017 614.972C778.017 613.517 778.256 612.29 778.733 611.29C779.216 610.284 779.866 609.526 780.685 609.014C781.503 608.497 782.415 608.239 783.42 608.239C784.188 608.239 784.818 608.369 785.312 608.631C785.807 608.886 786.199 609.196 786.489 609.56C786.778 609.918 787.003 610.256 787.162 610.574H787.29V604.045H790.384V621.5H787.349V619.438H787.162C787.003 619.756 786.773 620.094 786.472 620.452C786.17 620.804 785.773 621.105 785.278 621.355C784.784 621.605 784.162 621.73 783.412 621.73ZM784.273 619.199C784.926 619.199 785.483 619.023 785.943 618.67C786.403 618.312 786.753 617.815 786.991 617.179C787.23 616.543 787.349 615.801 787.349 614.955C787.349 614.108 787.23 613.372 786.991 612.747C786.759 612.122 786.412 611.636 785.952 611.29C785.497 610.943 784.938 610.77 784.273 610.77C783.585 610.77 783.011 610.949 782.551 611.307C782.091 611.665 781.744 612.159 781.511 612.79C781.278 613.42 781.162 614.142 781.162 614.955C781.162 615.773 781.278 616.503 781.511 617.145C781.75 617.781 782.099 618.284 782.56 618.653C783.026 619.017 783.597 619.199 784.273 619.199ZM798.529 621.73C797.501 621.73 796.58 621.466 795.768 620.938C794.955 620.409 794.313 619.642 793.842 618.636C793.37 617.631 793.134 616.409 793.134 614.972C793.134 613.517 793.373 612.29 793.85 611.29C794.333 610.284 794.984 609.526 795.802 609.014C796.62 608.497 797.532 608.239 798.538 608.239C799.305 608.239 799.935 608.369 800.43 608.631C800.924 608.886 801.316 609.196 801.606 609.56C801.896 609.918 802.12 610.256 802.279 610.574H802.407V604.045H805.501V621.5H802.467V619.438H802.279C802.12 619.756 801.89 620.094 801.589 620.452C801.288 620.804 800.89 621.105 800.396 621.355C799.901 621.605 799.279 621.73 798.529 621.73ZM799.39 619.199C800.043 619.199 800.6 619.023 801.06 618.67C801.521 618.312 801.87 617.815 802.109 617.179C802.347 616.543 802.467 615.801 802.467 614.955C802.467 614.108 802.347 613.372 802.109 612.747C801.876 612.122 801.529 611.636 801.069 611.29C800.614 610.943 800.055 610.77 799.39 610.77C798.702 610.77 798.129 610.949 797.668 611.307C797.208 611.665 796.862 612.159 796.629 612.79C796.396 613.42 796.279 614.142 796.279 614.955C796.279 615.773 796.396 616.503 796.629 617.145C796.867 617.781 797.217 618.284 797.677 618.653C798.143 619.017 798.714 619.199 799.39 619.199ZM808.788 621.5V608.409H811.78V610.591H811.916C812.155 609.835 812.564 609.253 813.143 608.844C813.729 608.429 814.396 608.222 815.146 608.222C815.317 608.222 815.507 608.23 815.717 608.247C815.933 608.259 816.112 608.278 816.254 608.307V611.145C816.124 611.099 815.916 611.06 815.632 611.026C815.354 610.986 815.084 610.966 814.822 610.966C814.26 610.966 813.754 611.088 813.305 611.332C812.862 611.571 812.513 611.903 812.257 612.33C812.001 612.756 811.874 613.247 811.874 613.804V621.5H808.788ZM823.56 621.756C822.248 621.756 821.114 621.483 820.16 620.938C819.211 620.386 818.481 619.608 817.969 618.602C817.458 617.591 817.202 616.401 817.202 615.031C817.202 613.685 817.458 612.503 817.969 611.486C818.487 610.463 819.208 609.668 820.134 609.099C821.06 608.526 822.148 608.239 823.398 608.239C824.205 608.239 824.967 608.369 825.683 608.631C826.404 608.886 827.04 609.284 827.592 609.824C828.148 610.364 828.586 611.051 828.904 611.886C829.222 612.716 829.381 613.705 829.381 614.852V615.798H818.651V613.719H826.424C826.418 613.128 826.29 612.602 826.04 612.142C825.79 611.676 825.441 611.31 824.992 611.043C824.549 610.776 824.032 610.642 823.441 610.642C822.81 610.642 822.256 610.795 821.779 611.102C821.302 611.403 820.93 611.801 820.663 612.295C820.401 612.784 820.268 613.321 820.262 613.906V615.722C820.262 616.483 820.401 617.136 820.68 617.682C820.958 618.222 821.347 618.636 821.847 618.926C822.347 619.21 822.933 619.352 823.603 619.352C824.052 619.352 824.458 619.29 824.822 619.165C825.185 619.034 825.501 618.844 825.768 618.594C826.035 618.344 826.237 618.034 826.373 617.665L829.254 617.989C829.072 618.75 828.725 619.415 828.214 619.983C827.708 620.545 827.06 620.983 826.271 621.295C825.481 621.602 824.577 621.756 823.56 621.756ZM842.338 611.869L839.526 612.176C839.446 611.892 839.307 611.625 839.108 611.375C838.915 611.125 838.653 610.923 838.324 610.77C837.994 610.616 837.591 610.54 837.114 610.54C836.472 610.54 835.932 610.679 835.494 610.957C835.062 611.236 834.849 611.597 834.855 612.04C834.849 612.42 834.989 612.73 835.273 612.969C835.563 613.207 836.04 613.403 836.705 613.557L838.938 614.034C840.176 614.301 841.097 614.724 841.699 615.304C842.307 615.884 842.614 616.642 842.619 617.58C842.614 618.403 842.372 619.131 841.895 619.761C841.423 620.386 840.767 620.875 839.926 621.227C839.085 621.58 838.119 621.756 837.028 621.756C835.426 621.756 834.136 621.42 833.159 620.75C832.182 620.074 831.599 619.134 831.412 617.929L834.42 617.639C834.557 618.23 834.847 618.676 835.29 618.977C835.733 619.278 836.31 619.429 837.02 619.429C837.753 619.429 838.341 619.278 838.784 618.977C839.233 618.676 839.457 618.304 839.457 617.861C839.457 617.486 839.313 617.176 839.023 616.932C838.739 616.687 838.295 616.5 837.693 616.369L835.46 615.901C834.205 615.639 833.276 615.199 832.673 614.58C832.071 613.955 831.773 613.165 831.778 612.21C831.773 611.403 831.991 610.705 832.435 610.114C832.884 609.517 833.506 609.057 834.301 608.733C835.102 608.403 836.026 608.239 837.071 608.239C838.605 608.239 839.813 608.565 840.693 609.219C841.58 609.872 842.128 610.756 842.338 611.869ZM855.51 611.869L852.697 612.176C852.618 611.892 852.479 611.625 852.28 611.375C852.087 611.125 851.825 610.923 851.496 610.77C851.166 610.616 850.763 610.54 850.286 610.54C849.643 610.54 849.104 610.679 848.666 610.957C848.234 611.236 848.021 611.597 848.027 612.04C848.021 612.42 848.161 612.73 848.445 612.969C848.734 613.207 849.212 613.403 849.876 613.557L852.109 614.034C853.348 614.301 854.268 614.724 854.871 615.304C855.479 615.884 855.786 616.642 855.791 617.58C855.786 618.403 855.544 619.131 855.067 619.761C854.595 620.386 853.939 620.875 853.098 621.227C852.257 621.58 851.291 621.756 850.2 621.756C848.598 621.756 847.308 621.42 846.331 620.75C845.354 620.074 844.771 619.134 844.584 617.929L847.592 617.639C847.729 618.23 848.018 618.676 848.462 618.977C848.905 619.278 849.482 619.429 850.192 619.429C850.925 619.429 851.513 619.278 851.956 618.977C852.405 618.676 852.629 618.304 852.629 617.861C852.629 617.486 852.484 617.176 852.195 616.932C851.911 616.687 851.467 616.5 850.865 616.369L848.632 615.901C847.376 615.639 846.447 615.199 845.845 614.58C845.243 613.955 844.945 613.165 844.95 612.21C844.945 611.403 845.163 610.705 845.607 610.114C846.055 609.517 846.678 609.057 847.473 608.733C848.274 608.403 849.197 608.239 850.243 608.239C851.777 608.239 852.984 608.565 853.865 609.219C854.751 609.872 855.3 610.756 855.51 611.869Z" fill="#1D2126"/>
<rect opacity="0.4" x="761" y="638.5" width="413" height="38" rx="4" fill="white" stroke="#CCCCCC" stroke-width="2"/>
<rect x="760" y="690.5" width="415" height="50" rx="25" fill="#1D2126"/>
<path d="M909.22 714.331C909.12 713.985 908.981 713.68 908.801 713.415C908.621 713.145 908.401 712.918 908.14 712.733C907.884 712.544 907.591 712.399 907.259 712.3C906.933 712.2 906.57 712.151 906.173 712.151C905.429 712.151 904.776 712.335 904.213 712.705C903.654 713.074 903.218 713.611 902.906 714.317C902.593 715.017 902.437 715.874 902.437 716.888C902.437 717.901 902.591 718.763 902.899 719.473C903.206 720.183 903.642 720.725 904.205 721.099C904.769 721.469 905.434 721.653 906.201 721.653C906.897 721.653 907.491 721.53 907.984 721.284C908.481 721.033 908.86 720.68 909.12 720.226C909.385 719.771 909.518 719.234 909.518 718.614L910.143 718.706H906.393V716.391H912.48V718.223C912.48 719.501 912.21 720.6 911.67 721.518C911.13 722.432 910.387 723.138 909.44 723.635C908.493 724.127 907.409 724.374 906.187 724.374C904.823 724.374 903.625 724.073 902.593 723.472C901.561 722.865 900.756 722.006 900.178 720.893C899.606 719.776 899.319 718.45 899.319 716.916C899.319 715.737 899.49 714.686 899.83 713.763C900.176 712.835 900.659 712.049 901.279 711.405C901.9 710.761 902.622 710.271 903.445 709.935C904.269 709.598 905.162 709.43 906.123 709.43C906.947 709.43 907.714 709.551 908.424 709.793C909.134 710.029 909.764 710.365 910.313 710.801C910.867 711.237 911.32 711.755 911.67 712.357C912.02 712.953 912.245 713.611 912.345 714.331H909.22ZM914.79 724.175V709.629H924.591V712.165H917.865V715.631H924.086V718.166H917.865V721.639H924.619V724.175H914.79ZM926.482 712.165V709.629H938.428V712.165H933.975V724.175H930.935V712.165H926.482ZM952.915 713.812C952.858 713.24 952.614 712.794 952.183 712.477C951.752 712.16 951.167 712.001 950.429 712.001C949.927 712.001 949.503 712.072 949.157 712.214C948.812 712.352 948.547 712.544 948.362 712.79C948.182 713.036 948.092 713.315 948.092 713.628C948.083 713.888 948.137 714.115 948.256 714.31C948.379 714.504 948.547 714.672 948.76 714.814C948.973 714.951 949.219 715.072 949.498 715.176C949.778 715.276 950.076 715.361 950.393 715.432L951.7 715.744C952.335 715.886 952.917 716.076 953.447 716.312C953.978 716.549 954.437 716.84 954.825 717.186C955.213 717.532 955.514 717.939 955.727 718.408C955.945 718.876 956.056 719.414 956.061 720.02C956.056 720.91 955.829 721.682 955.379 722.335C954.934 722.984 954.29 723.488 953.447 723.848C952.609 724.203 951.598 724.381 950.415 724.381C949.24 724.381 948.218 724.201 947.346 723.841C946.48 723.481 945.803 722.948 945.315 722.243C944.832 721.533 944.579 720.654 944.555 719.608H947.531C947.564 720.096 947.704 720.503 947.95 720.83C948.201 721.151 948.535 721.395 948.952 721.561C949.373 721.722 949.849 721.803 950.379 721.803C950.9 721.803 951.352 721.727 951.736 721.575C952.124 721.424 952.425 721.213 952.638 720.943C952.851 720.673 952.957 720.363 952.957 720.013C952.957 719.686 952.86 719.411 952.666 719.189C952.477 718.966 952.197 718.777 951.828 718.621C951.463 718.464 951.016 718.322 950.486 718.195L948.902 717.797C947.675 717.499 946.707 717.032 945.997 716.398C945.287 715.763 944.934 714.909 944.939 713.834C944.934 712.953 945.168 712.184 945.642 711.526C946.12 710.867 946.776 710.354 947.609 709.984C948.443 709.615 949.39 709.43 950.45 709.43C951.53 709.43 952.472 709.615 953.277 709.984C954.086 710.354 954.716 710.867 955.166 711.526C955.616 712.184 955.848 712.946 955.862 713.812H952.915ZM957.575 712.165V709.629H969.521V712.165H965.068V724.175H962.029V712.165H957.575ZM972.219 724.175H968.923L973.944 709.629H977.907L982.922 724.175H979.626L975.983 712.953H975.869L972.219 724.175ZM972.013 718.457H979.797V720.858H972.013V718.457ZM984.672 724.175V709.629H990.411C991.51 709.629 992.447 709.826 993.224 710.219C994.005 710.607 994.599 711.159 995.006 711.874C995.418 712.584 995.624 713.419 995.624 714.381C995.624 715.347 995.416 716.178 994.999 716.874C994.582 717.565 993.979 718.095 993.188 718.464C992.402 718.834 991.45 719.018 990.333 719.018H986.491V716.547H989.836C990.423 716.547 990.911 716.466 991.299 716.305C991.687 716.144 991.976 715.903 992.165 715.581C992.359 715.259 992.456 714.859 992.456 714.381C992.456 713.898 992.359 713.49 992.165 713.159C991.976 712.828 991.685 712.577 991.292 712.406C990.903 712.231 990.413 712.143 989.822 712.143H987.748V724.175H984.672ZM992.528 717.555L996.143 724.175H992.748L989.211 717.555H992.528ZM997.243 712.165V709.629H1009.19V712.165H1004.74V724.175H1001.7V712.165H997.243ZM1011.16 724.175V709.629H1020.96V712.165H1014.23V715.631H1020.45V718.166H1014.23V721.639H1020.99V724.175H1011.16ZM1028.56 724.175H1023.4V709.629H1028.6C1030.06 709.629 1031.32 709.92 1032.38 710.503C1033.44 711.08 1034.25 711.911 1034.82 712.996C1035.39 714.08 1035.68 715.377 1035.68 716.888C1035.68 718.403 1035.39 719.705 1034.82 720.794C1034.25 721.883 1033.43 722.719 1032.37 723.301C1031.31 723.883 1030.04 724.175 1028.56 724.175ZM1026.48 721.54H1028.43C1029.34 721.54 1030.11 721.379 1030.73 721.057C1031.35 720.73 1031.82 720.226 1032.13 719.544C1032.45 718.857 1032.61 717.972 1032.61 716.888C1032.61 715.813 1032.45 714.935 1032.13 714.253C1031.82 713.571 1031.35 713.069 1030.73 712.747C1030.11 712.425 1029.35 712.264 1028.44 712.264H1026.48V721.54Z" fill="white"/>
<path d="M829.828 769.5H827.357L831.123 758.591H834.095L837.856 769.5H835.384L832.652 761.084H832.566L829.828 769.5ZM829.674 765.212H835.512V767.012H829.674V765.212ZM839.169 769.5V758.591H841.475V767.598H846.152V769.5H839.169ZM847.68 769.5V758.591H851.984C852.807 758.591 853.511 758.738 854.093 759.033C854.679 759.324 855.125 759.738 855.43 760.274C855.739 760.807 855.893 761.434 855.893 762.154C855.893 762.879 855.737 763.502 855.425 764.024C855.112 764.543 854.659 764.94 854.066 765.217C853.477 765.494 852.763 765.633 851.925 765.633H849.043V763.779H851.552C851.992 763.779 852.358 763.719 852.649 763.598C852.941 763.477 853.157 763.296 853.299 763.055C853.445 762.813 853.518 762.513 853.518 762.154C853.518 761.792 853.445 761.487 853.299 761.238C853.157 760.99 852.939 760.801 852.644 760.674C852.353 760.542 851.985 760.477 851.541 760.477H849.986V769.5H847.68ZM853.571 764.536L856.282 769.5H853.736L851.083 764.536H853.571ZM857.523 769.5V758.591H864.874V760.493H859.83V763.092H864.496V764.994H859.83V767.598H864.896V769.5H857.523ZM868.588 769.5H866.117L869.883 758.591H872.855L876.616 769.5H874.144L871.411 761.084H871.326L868.588 769.5ZM868.434 765.212H874.272V767.012H868.434V765.212ZM881.796 769.5H877.929V758.591H881.828C882.925 758.591 883.87 758.809 884.662 759.246C885.453 759.679 886.063 760.303 886.489 761.116C886.918 761.929 887.133 762.902 887.133 764.035C887.133 765.171 886.918 766.148 886.489 766.964C886.063 767.781 885.45 768.408 884.651 768.845C883.855 769.282 882.904 769.5 881.796 769.5ZM880.235 767.524H881.7C882.382 767.524 882.955 767.403 883.42 767.162C883.889 766.917 884.241 766.538 884.475 766.027C884.713 765.512 884.832 764.848 884.832 764.035C884.832 763.229 884.713 762.57 884.475 762.059C884.241 761.547 883.891 761.171 883.426 760.929C882.961 760.688 882.387 760.567 881.705 760.567H880.235V767.524ZM887.543 758.591H890.127L892.614 763.289H892.721L895.208 758.591H897.792L893.813 765.643V769.5H891.522V765.643L887.543 758.591ZM902.523 769.5V758.591H904.83V763.092H909.512V758.591H911.813V769.5H909.512V764.994H904.83V769.5H902.523ZM915.595 769.5H913.123L916.889 758.591H919.862L923.622 769.5H921.151L918.418 761.084H918.333L915.595 769.5ZM915.441 765.212H921.279V767.012H915.441V765.212ZM925.544 758.591L928.181 766.879H928.282L930.924 758.591H933.481L929.72 769.5H926.748L922.982 758.591H925.544ZM934.794 769.5V758.591H942.145V760.493H937.1V763.092H941.767V764.994H937.1V767.598H942.166V769.5H934.794ZM949.33 769.5H946.859L950.625 758.591H953.597L957.358 769.5H954.886L952.154 761.084H952.068L949.33 769.5ZM949.176 765.212H955.014V767.012H949.176V765.212ZM967.795 758.591V769.5H965.803L961.057 762.634H960.977V769.5H958.671V758.591H960.695L965.404 765.452H965.5V758.591H967.795ZM975.053 769.5H972.581L976.347 758.591H979.32L983.08 769.5H980.609L977.876 761.084H977.791L975.053 769.5ZM974.899 765.212H980.737V767.012H974.899V765.212ZM993.506 762.41H991.173C991.13 762.108 991.043 761.84 990.912 761.606C990.781 761.368 990.612 761.165 990.406 760.999C990.2 760.832 989.962 760.704 989.692 760.615C989.426 760.526 989.136 760.482 988.824 760.482C988.259 760.482 987.767 760.622 987.348 760.903C986.929 761.18 986.604 761.585 986.374 762.117C986.143 762.646 986.027 763.289 986.027 764.045C986.027 764.823 986.143 765.477 986.374 766.006C986.608 766.535 986.935 766.934 987.354 767.204C987.773 767.474 988.258 767.609 988.808 767.609C989.117 767.609 989.403 767.568 989.666 767.487C989.932 767.405 990.168 767.286 990.374 767.13C990.58 766.97 990.75 766.776 990.885 766.549C991.024 766.322 991.12 766.062 991.173 765.771L993.506 765.782C993.446 766.283 993.295 766.766 993.053 767.231C992.815 767.692 992.494 768.106 992.089 768.472C991.688 768.834 991.209 769.122 990.651 769.335C990.097 769.544 989.47 769.649 988.771 769.649C987.798 769.649 986.928 769.429 986.161 768.989C985.397 768.548 984.793 767.911 984.35 767.076C983.909 766.242 983.689 765.232 983.689 764.045C983.689 762.856 983.913 761.844 984.36 761.009C984.808 760.175 985.415 759.539 986.182 759.102C986.949 758.662 987.812 758.442 988.771 758.442C989.403 758.442 989.989 758.531 990.528 758.708C991.072 758.886 991.553 759.145 991.972 759.486C992.391 759.823 992.732 760.237 992.995 760.727C993.261 761.217 993.432 761.778 993.506 762.41ZM1004.79 762.41H1002.45C1002.41 762.108 1002.32 761.84 1002.19 761.606C1002.06 761.368 1001.89 761.165 1001.69 760.999C1001.48 760.832 1001.24 760.704 1000.97 760.615C1000.71 760.526 1000.42 760.482 1000.1 760.482C999.539 760.482 999.047 760.622 998.628 760.903C998.209 761.18 997.884 761.585 997.653 762.117C997.422 762.646 997.307 763.289 997.307 764.045C997.307 764.823 997.422 765.477 997.653 766.006C997.887 766.535 998.214 766.934 998.633 767.204C999.052 767.474 999.537 767.609 1000.09 767.609C1000.4 767.609 1000.68 767.568 1000.94 767.487C1001.21 767.405 1001.45 767.286 1001.65 767.13C1001.86 766.97 1002.03 766.776 1002.16 766.549C1002.3 766.322 1002.4 766.062 1002.45 765.771L1004.79 765.782C1004.73 766.283 1004.57 766.766 1004.33 767.231C1004.09 767.692 1003.77 768.106 1003.37 768.472C1002.97 768.834 1002.49 769.122 1001.93 769.335C1001.38 769.544 1000.75 769.649 1000.05 769.649C999.077 769.649 998.207 769.429 997.44 768.989C996.676 768.548 996.073 767.911 995.629 767.076C995.188 766.242 994.968 765.232 994.968 764.045C994.968 762.856 995.192 761.844 995.639 761.009C996.087 760.175 996.694 759.539 997.461 759.102C998.228 758.662 999.091 758.442 1000.05 758.442C1000.68 758.442 1001.27 758.531 1001.81 758.708C1002.35 758.886 1002.83 759.145 1003.25 759.486C1003.67 759.823 1004.01 760.237 1004.27 760.727C1004.54 761.217 1004.71 761.778 1004.79 762.41ZM1016.46 764.045C1016.46 765.235 1016.24 766.247 1015.79 767.082C1015.34 767.916 1014.73 768.554 1013.96 768.994C1013.18 769.431 1012.32 769.649 1011.36 769.649C1010.39 769.649 1009.52 769.429 1008.75 768.989C1007.98 768.548 1007.37 767.911 1006.92 767.076C1006.47 766.242 1006.25 765.232 1006.25 764.045C1006.25 762.856 1006.47 761.844 1006.92 761.009C1007.37 760.175 1007.98 759.539 1008.75 759.102C1009.52 758.662 1010.39 758.442 1011.36 758.442C1012.32 758.442 1013.18 758.662 1013.96 759.102C1014.73 759.539 1015.34 760.175 1015.79 761.009C1016.24 761.844 1016.46 762.856 1016.46 764.045ZM1014.13 764.045C1014.13 763.275 1014.01 762.625 1013.78 762.096C1013.55 761.567 1013.23 761.165 1012.82 760.892C1012.4 760.619 1011.91 760.482 1011.36 760.482C1010.8 760.482 1010.31 760.619 1009.9 760.892C1009.48 761.165 1009.16 761.567 1008.93 762.096C1008.7 762.625 1008.59 763.275 1008.59 764.045C1008.59 764.816 1008.7 765.466 1008.93 765.995C1009.16 766.524 1009.48 766.925 1009.9 767.199C1010.31 767.472 1010.8 767.609 1011.36 767.609C1011.91 767.609 1012.4 767.472 1012.82 767.199C1013.23 766.925 1013.55 766.524 1013.78 765.995C1014.01 765.466 1014.13 764.816 1014.13 764.045ZM1024.91 758.591H1027.22V765.675C1027.22 766.471 1027.03 767.167 1026.65 767.763C1026.27 768.36 1025.74 768.825 1025.07 769.159C1024.39 769.489 1023.6 769.654 1022.7 769.654C1021.79 769.654 1021 769.489 1020.32 769.159C1019.64 768.825 1019.11 768.36 1018.74 767.763C1018.36 767.167 1018.17 766.471 1018.17 765.675V758.591H1020.48V765.478C1020.48 765.894 1020.57 766.263 1020.75 766.586C1020.94 766.909 1021.19 767.163 1021.53 767.348C1021.86 767.533 1022.25 767.625 1022.7 767.625C1023.14 767.625 1023.53 767.533 1023.86 767.348C1024.2 767.163 1024.45 766.909 1024.63 766.586C1024.82 766.263 1024.91 765.894 1024.91 765.478V758.591ZM1038.24 758.591V769.5H1036.25L1031.5 762.634H1031.42V769.5H1029.12V758.591H1031.14L1035.85 765.452H1035.94V758.591H1038.24ZM1039.73 760.493V758.591H1048.69V760.493H1045.35V769.5H1043.07V760.493H1039.73ZM1052.07 766.229V766.048C1052.08 765.427 1052.13 764.931 1052.24 764.562C1052.35 764.193 1052.51 763.895 1052.72 763.667C1052.93 763.44 1053.18 763.234 1053.47 763.049C1053.69 762.907 1053.89 762.76 1054.06 762.607C1054.24 762.455 1054.38 762.286 1054.48 762.101C1054.58 761.913 1054.63 761.703 1054.63 761.473C1054.63 761.228 1054.58 761.013 1054.46 760.828C1054.34 760.643 1054.18 760.501 1053.98 760.402C1053.79 760.303 1053.57 760.253 1053.33 760.253C1053.1 760.253 1052.89 760.304 1052.68 760.407C1052.47 760.507 1052.3 760.656 1052.17 760.855C1052.04 761.05 1051.97 761.293 1051.96 761.585H1049.79C1049.8 760.874 1049.97 760.288 1050.3 759.827C1050.62 759.362 1051.05 759.015 1051.58 758.788C1052.11 758.557 1052.7 758.442 1053.34 758.442C1054.05 758.442 1054.68 758.559 1055.22 758.793C1055.76 759.024 1056.19 759.36 1056.5 759.8C1056.81 760.24 1056.96 760.771 1056.96 761.393C1056.96 761.808 1056.89 762.178 1056.75 762.501C1056.62 762.82 1056.43 763.104 1056.18 763.353C1055.94 763.598 1055.65 763.82 1055.32 764.019C1055.04 764.186 1054.8 764.36 1054.62 764.541C1054.45 764.722 1054.31 764.931 1054.22 765.169C1054.14 765.407 1054.09 765.7 1054.09 766.048V766.229H1052.07ZM1053.13 769.638C1052.77 769.638 1052.47 769.514 1052.22 769.266C1051.97 769.013 1051.84 768.712 1051.85 768.36C1051.84 768.012 1051.97 767.714 1052.22 767.465C1052.47 767.217 1052.77 767.092 1053.13 767.092C1053.46 767.092 1053.76 767.217 1054.02 767.465C1054.27 767.714 1054.4 768.012 1054.41 768.36C1054.4 768.594 1054.34 768.809 1054.22 769.005C1054.1 769.196 1053.95 769.351 1053.76 769.468C1053.56 769.582 1053.35 769.638 1053.13 769.638Z" fill="#1D2126"/>
<path d="M1062.07 769.5V758.591H1064.38V767.598H1069.06V769.5H1062.07ZM1080.18 764.045C1080.18 765.235 1079.96 766.247 1079.51 767.082C1079.06 767.916 1078.45 768.554 1077.68 768.994C1076.91 769.431 1076.04 769.649 1075.08 769.649C1074.11 769.649 1073.24 769.429 1072.47 768.989C1071.7 768.548 1071.09 767.911 1070.64 767.076C1070.19 766.242 1069.97 765.232 1069.97 764.045C1069.97 762.856 1070.19 761.844 1070.64 761.009C1071.09 760.175 1071.7 759.539 1072.47 759.102C1073.24 758.662 1074.11 758.442 1075.08 758.442C1076.04 758.442 1076.91 758.662 1077.68 759.102C1078.45 759.539 1079.06 760.175 1079.51 761.009C1079.96 761.844 1080.18 762.856 1080.18 764.045ZM1077.85 764.045C1077.85 763.275 1077.73 762.625 1077.5 762.096C1077.27 761.567 1076.95 761.165 1076.54 760.892C1076.12 760.619 1075.63 760.482 1075.08 760.482C1074.52 760.482 1074.03 760.619 1073.62 760.892C1073.2 761.165 1072.88 761.567 1072.65 762.096C1072.42 762.625 1072.31 763.275 1072.31 764.045C1072.31 764.816 1072.42 765.466 1072.65 765.995C1072.88 766.524 1073.2 766.925 1073.62 767.199C1074.03 767.472 1074.52 767.609 1075.08 767.609C1075.63 767.609 1076.12 767.472 1076.54 767.199C1076.95 766.925 1077.27 766.524 1077.5 765.995C1077.73 765.466 1077.85 764.816 1077.85 764.045ZM1089.13 762.117C1089.05 761.858 1088.95 761.629 1088.81 761.43C1088.68 761.228 1088.51 761.057 1088.32 760.919C1088.13 760.777 1087.91 760.668 1087.66 760.594C1087.41 760.519 1087.14 760.482 1086.84 760.482C1086.28 760.482 1085.79 760.62 1085.37 760.897C1084.95 761.174 1084.63 761.577 1084.39 762.107C1084.16 762.632 1084.04 763.275 1084.04 764.035C1084.04 764.795 1084.16 765.441 1084.39 765.974C1084.62 766.506 1084.94 766.913 1085.37 767.194C1085.79 767.471 1086.29 767.609 1086.86 767.609C1087.39 767.609 1087.83 767.517 1088.2 767.332C1088.57 767.144 1088.86 766.879 1089.05 766.538C1089.25 766.197 1089.35 765.794 1089.35 765.329L1089.82 765.398H1087.01V763.662H1091.57V765.036C1091.57 765.995 1091.37 766.819 1090.96 767.508C1090.56 768.193 1090 768.722 1089.29 769.095C1088.58 769.464 1087.77 769.649 1086.85 769.649C1085.83 769.649 1084.93 769.424 1084.16 768.973C1083.38 768.518 1082.78 767.874 1082.35 767.039C1081.92 766.201 1081.7 765.207 1081.7 764.056C1081.7 763.172 1081.83 762.384 1082.09 761.691C1082.34 760.995 1082.71 760.406 1083.17 759.923C1083.64 759.44 1084.18 759.072 1084.8 758.82C1085.41 758.568 1086.08 758.442 1086.8 758.442C1087.42 758.442 1088 758.532 1088.53 758.713C1089.06 758.891 1089.54 759.143 1089.95 759.47C1090.36 759.797 1090.7 760.185 1090.96 760.636C1091.23 761.084 1091.4 761.577 1091.47 762.117H1089.13ZM1095.61 758.591V769.5H1093.3V758.591H1095.61ZM1106.63 758.591V769.5H1104.64L1099.9 762.634H1099.82V769.5H1097.51V758.591H1099.53L1104.24 765.452H1104.34V758.591H1106.63Z" fill="#FF8B13"/>
<path d="M1061.13 772.483H1107.59V773.506H1061.13V772.483Z" fill="#FF8B13"/>
</svg>
