<svg width="1363" height="163" viewBox="0 0 1363 163" fill="none" xmlns="http://www.w3.org/2000/svg">
<path d="M0 15C0 6.71573 6.71573 0 15 0H37V163H15C6.71573 163 0 156.284 0 148V15Z" fill="#1D2126"/>
<rect width="1097" height="163" transform="translate(37)" fill="#F0F0F0"/>
<path d="M101.906 53.9219L94.3945 51.2383V48.0859L104.602 52.375V54.6367L101.906 53.9219ZM94.3945 56.1719L101.918 53.4297L104.602 52.7852V55.0352L94.3945 59.3242V56.1719ZM121.781 56.5352C121.781 56.2305 121.734 55.957 121.641 55.7148C121.555 55.4648 121.391 55.2383 121.148 55.0352C120.906 54.8242 120.566 54.6172 120.129 54.4141C119.691 54.2109 119.125 54 118.43 53.7812C117.656 53.5312 116.922 53.25 116.227 52.9375C115.539 52.625 114.93 52.2617 114.398 51.8477C113.875 51.4258 113.461 50.9375 113.156 50.3828C112.859 49.8281 112.711 49.1836 112.711 48.4492C112.711 47.7383 112.867 47.0938 113.18 46.5156C113.492 45.9297 113.93 45.4297 114.492 45.0156C115.055 44.5938 115.719 44.2695 116.484 44.043C117.258 43.8164 118.105 43.7031 119.027 43.7031C120.285 43.7031 121.383 43.9297 122.32 44.3828C123.258 44.8359 123.984 45.457 124.5 46.2461C125.023 47.0352 125.285 47.9375 125.285 48.9531H121.793C121.793 48.4531 121.688 48.0156 121.477 47.6406C121.273 47.2578 120.961 46.957 120.539 46.7383C120.125 46.5195 119.602 46.4102 118.969 46.4102C118.359 46.4102 117.852 46.5039 117.445 46.6914C117.039 46.8711 116.734 47.1172 116.531 47.4297C116.328 47.7344 116.227 48.0781 116.227 48.4609C116.227 48.75 116.297 49.0117 116.438 49.2461C116.586 49.4805 116.805 49.6992 117.094 49.9023C117.383 50.1055 117.738 50.2969 118.16 50.4766C118.582 50.6562 119.07 50.832 119.625 51.0039C120.555 51.2852 121.371 51.6016 122.074 51.9531C122.785 52.3047 123.379 52.6992 123.855 53.1367C124.332 53.5742 124.691 54.0703 124.934 54.625C125.176 55.1797 125.297 55.8086 125.297 56.5117C125.297 57.2539 125.152 57.918 124.863 58.5039C124.574 59.0898 124.156 59.5859 123.609 59.9922C123.062 60.3984 122.41 60.707 121.652 60.918C120.895 61.1289 120.047 61.2344 119.109 61.2344C118.266 61.2344 117.434 61.125 116.613 60.9062C115.793 60.6797 115.047 60.3398 114.375 59.8867C113.711 59.4336 113.18 58.8555 112.781 58.1523C112.383 57.4492 112.184 56.6172 112.184 55.6562H115.711C115.711 56.1875 115.793 56.6367 115.957 57.0039C116.121 57.3711 116.352 57.668 116.648 57.8945C116.953 58.1211 117.312 58.2852 117.727 58.3867C118.148 58.4883 118.609 58.5391 119.109 58.5391C119.719 58.5391 120.219 58.4531 120.609 58.2812C121.008 58.1094 121.301 57.8711 121.488 57.5664C121.684 57.2617 121.781 56.918 121.781 56.5352ZM133.688 48.3203V50.7109H126.305V48.3203H133.688ZM128.133 45.1914H131.508V57.1797C131.508 57.5469 131.555 57.8281 131.648 58.0234C131.75 58.2188 131.898 58.3555 132.094 58.4336C132.289 58.5039 132.535 58.5391 132.832 58.5391C133.043 58.5391 133.23 58.5312 133.395 58.5156C133.566 58.4922 133.711 58.4688 133.828 58.4453L133.84 60.9297C133.551 61.0234 133.238 61.0977 132.902 61.1523C132.566 61.207 132.195 61.2344 131.789 61.2344C131.047 61.2344 130.398 61.1133 129.844 60.8711C129.297 60.6211 128.875 60.2227 128.578 59.6758C128.281 59.1289 128.133 58.4102 128.133 57.5195V45.1914ZM134.766 54.7891V54.543C134.766 53.6133 134.898 52.7578 135.164 51.9766C135.43 51.1875 135.816 50.5039 136.324 49.9258C136.832 49.3477 137.457 48.8984 138.199 48.5781C138.941 48.25 139.793 48.0859 140.754 48.0859C141.715 48.0859 142.57 48.25 143.32 48.5781C144.07 48.8984 144.699 49.3477 145.207 49.9258C145.723 50.5039 146.113 51.1875 146.379 51.9766C146.645 52.7578 146.777 53.6133 146.777 54.543V54.7891C146.777 55.7109 146.645 56.5664 146.379 57.3555C146.113 58.1367 145.723 58.8203 145.207 59.4062C144.699 59.9844 144.074 60.4336 143.332 60.7539C142.59 61.0742 141.738 61.2344 140.777 61.2344C139.816 61.2344 138.961 61.0742 138.211 60.7539C137.469 60.4336 136.84 59.9844 136.324 59.4062C135.816 58.8203 135.43 58.1367 135.164 57.3555C134.898 56.5664 134.766 55.7109 134.766 54.7891ZM138.141 54.543V54.7891C138.141 55.3203 138.188 55.8164 138.281 56.2773C138.375 56.7383 138.523 57.1445 138.727 57.4961C138.938 57.8398 139.211 58.1094 139.547 58.3047C139.883 58.5 140.293 58.5977 140.777 58.5977C141.246 58.5977 141.648 58.5 141.984 58.3047C142.32 58.1094 142.59 57.8398 142.793 57.4961C142.996 57.1445 143.145 56.7383 143.238 56.2773C143.34 55.8164 143.391 55.3203 143.391 54.7891V54.543C143.391 54.0273 143.34 53.543 143.238 53.0898C143.145 52.6289 142.992 52.2227 142.781 51.8711C142.578 51.5117 142.309 51.2305 141.973 51.0273C141.637 50.8242 141.23 50.7227 140.754 50.7227C140.277 50.7227 139.871 50.8242 139.535 51.0273C139.207 51.2305 138.938 51.5117 138.727 51.8711C138.523 52.2227 138.375 52.6289 138.281 53.0898C138.188 53.543 138.141 54.0273 138.141 54.543ZM152.227 51.0859V61H148.852V48.3203H152.027L152.227 51.0859ZM156.047 48.2383L155.988 51.3672C155.824 51.3438 155.625 51.3242 155.391 51.3086C155.164 51.2852 154.957 51.2734 154.77 51.2734C154.293 51.2734 153.879 51.3359 153.527 51.4609C153.184 51.5781 152.895 51.7539 152.66 51.9883C152.434 52.2227 152.262 52.5078 152.145 52.8438C152.035 53.1797 151.973 53.5625 151.957 53.9922L151.277 53.7812C151.277 52.9609 151.359 52.207 151.523 51.5195C151.688 50.8242 151.926 50.2188 152.238 49.7031C152.559 49.1875 152.949 48.7891 153.41 48.5078C153.871 48.2266 154.398 48.0859 154.992 48.0859C155.18 48.0859 155.371 48.1016 155.566 48.1328C155.762 48.1562 155.922 48.1914 156.047 48.2383ZM164.086 58.1406V52.4922C164.086 52.0859 164.02 51.7383 163.887 51.4492C163.754 51.1523 163.547 50.9219 163.266 50.7578C162.992 50.5938 162.637 50.5117 162.199 50.5117C161.824 50.5117 161.5 50.5781 161.227 50.7109C160.953 50.8359 160.742 51.0195 160.594 51.2617C160.445 51.4961 160.371 51.7734 160.371 52.0938H156.996C156.996 51.5547 157.121 51.043 157.371 50.5586C157.621 50.0742 157.984 49.6484 158.461 49.2812C158.938 48.9062 159.504 48.6133 160.16 48.4023C160.824 48.1914 161.566 48.0859 162.387 48.0859C163.371 48.0859 164.246 48.25 165.012 48.5781C165.777 48.9062 166.379 49.3984 166.816 50.0547C167.262 50.7109 167.484 51.5312 167.484 52.5156V57.9414C167.484 58.6367 167.527 59.207 167.613 59.6523C167.699 60.0898 167.824 60.4727 167.988 60.8008V61H164.578C164.414 60.6562 164.289 60.2266 164.203 59.7109C164.125 59.1875 164.086 58.6641 164.086 58.1406ZM164.531 53.2773L164.555 55.1875H162.668C162.223 55.1875 161.836 55.2383 161.508 55.3398C161.18 55.4414 160.91 55.5859 160.699 55.7734C160.488 55.9531 160.332 56.1641 160.23 56.4062C160.137 56.6484 160.09 56.9141 160.09 57.2031C160.09 57.4922 160.156 57.7539 160.289 57.9883C160.422 58.2148 160.613 58.3945 160.863 58.5273C161.113 58.6523 161.406 58.7148 161.742 58.7148C162.25 58.7148 162.691 58.6133 163.066 58.4102C163.441 58.207 163.73 57.957 163.934 57.6602C164.145 57.3633 164.254 57.082 164.262 56.8164L165.152 58.2461C165.027 58.5664 164.855 58.8984 164.637 59.2422C164.426 59.5859 164.156 59.9102 163.828 60.2148C163.5 60.5117 163.105 60.7578 162.645 60.9531C162.184 61.1406 161.637 61.2344 161.004 61.2344C160.199 61.2344 159.469 61.0742 158.812 60.7539C158.164 60.4258 157.648 59.9766 157.266 59.4062C156.891 58.8281 156.703 58.1719 156.703 57.4375C156.703 56.7734 156.828 56.1836 157.078 55.668C157.328 55.1523 157.695 54.7188 158.18 54.3672C158.672 54.0078 159.285 53.7383 160.02 53.5586C160.754 53.3711 161.605 53.2773 162.574 53.2773H164.531ZM178.113 48.3203H181.172V60.5781C181.172 61.7344 180.914 62.7148 180.398 63.5195C179.891 64.332 179.18 64.9453 178.266 65.3594C177.352 65.7812 176.289 65.9922 175.078 65.9922C174.547 65.9922 173.984 65.9219 173.391 65.7812C172.805 65.6406 172.242 65.4219 171.703 65.125C171.172 64.8281 170.727 64.4531 170.367 64L171.855 62.0078C172.246 62.4609 172.699 62.8125 173.215 63.0625C173.73 63.3203 174.301 63.4492 174.926 63.4492C175.535 63.4492 176.051 63.3359 176.473 63.1094C176.895 62.8906 177.219 62.5664 177.445 62.1367C177.672 61.7148 177.785 61.2031 177.785 60.6016V51.25L178.113 48.3203ZM169.582 54.8125V54.5664C169.582 53.5977 169.699 52.7188 169.934 51.9297C170.176 51.1328 170.516 50.4492 170.953 49.8789C171.398 49.3086 171.938 48.8672 172.57 48.5547C173.203 48.2422 173.918 48.0859 174.715 48.0859C175.559 48.0859 176.266 48.2422 176.836 48.5547C177.406 48.8672 177.875 49.3125 178.242 49.8906C178.609 50.4609 178.895 51.1367 179.098 51.918C179.309 52.6914 179.473 53.5391 179.59 54.4609V55C179.473 55.8828 179.297 56.7031 179.062 57.4609C178.828 58.2188 178.52 58.8828 178.137 59.4531C177.754 60.0156 177.277 60.4531 176.707 60.7656C176.145 61.0781 175.473 61.2344 174.691 61.2344C173.91 61.2344 173.203 61.0742 172.57 60.7539C171.945 60.4336 171.41 59.9844 170.965 59.4062C170.52 58.8281 170.176 58.1484 169.934 57.3672C169.699 56.5859 169.582 55.7344 169.582 54.8125ZM172.957 54.5664V54.8125C172.957 55.3359 173.008 55.8242 173.109 56.2773C173.211 56.7305 173.367 57.1328 173.578 57.4844C173.797 57.8281 174.066 58.0977 174.387 58.293C174.715 58.4805 175.102 58.5742 175.547 58.5742C176.164 58.5742 176.668 58.4453 177.059 58.1875C177.449 57.9219 177.742 57.5586 177.938 57.0977C178.133 56.6367 178.246 56.1055 178.277 55.5039V53.9688C178.262 53.4766 178.195 53.0352 178.078 52.6445C177.961 52.2461 177.797 51.9062 177.586 51.625C177.375 51.3438 177.102 51.125 176.766 50.9688C176.43 50.8125 176.031 50.7344 175.57 50.7344C175.125 50.7344 174.738 50.8359 174.41 51.0391C174.09 51.2344 173.82 51.5039 173.602 51.8477C173.391 52.1914 173.23 52.5977 173.121 53.0664C173.012 53.5273 172.957 54.0273 172.957 54.5664ZM189.633 61.2344C188.648 61.2344 187.766 61.0781 186.984 60.7656C186.203 60.4453 185.539 60.0039 184.992 59.4414C184.453 58.8789 184.039 58.2266 183.75 57.4844C183.461 56.7344 183.316 55.9375 183.316 55.0938V54.625C183.316 53.6641 183.453 52.7852 183.727 51.9883C184 51.1914 184.391 50.5 184.898 49.9141C185.414 49.3281 186.039 48.8789 186.773 48.5664C187.508 48.2461 188.336 48.0859 189.258 48.0859C190.156 48.0859 190.953 48.2344 191.648 48.5312C192.344 48.8281 192.926 49.25 193.395 49.7969C193.871 50.3438 194.23 51 194.473 51.7656C194.715 52.5234 194.836 53.3672 194.836 54.2969V55.7031H184.758V53.4531H191.52V53.1953C191.52 52.7266 191.434 52.3086 191.262 51.9414C191.098 51.5664 190.848 51.2695 190.512 51.0508C190.176 50.832 189.746 50.7227 189.223 50.7227C188.777 50.7227 188.395 50.8203 188.074 51.0156C187.754 51.2109 187.492 51.4844 187.289 51.8359C187.094 52.1875 186.945 52.6016 186.844 53.0781C186.75 53.5469 186.703 54.0625 186.703 54.625V55.0938C186.703 55.6016 186.773 56.0703 186.914 56.5C187.062 56.9297 187.27 57.3008 187.535 57.6133C187.809 57.9258 188.137 58.168 188.52 58.3398C188.91 58.5117 189.352 58.5977 189.844 58.5977C190.453 58.5977 191.02 58.4805 191.543 58.2461C192.074 58.0039 192.531 57.6406 192.914 57.1562L194.555 58.9375C194.289 59.3203 193.926 59.6875 193.465 60.0391C193.012 60.3906 192.465 60.6797 191.824 60.9062C191.184 61.125 190.453 61.2344 189.633 61.2344ZM209.59 54.918H205.242V52.1758H209.59C210.262 52.1758 210.809 52.0664 211.23 51.8477C211.652 51.6211 211.961 51.3086 212.156 50.9102C212.352 50.5117 212.449 50.0625 212.449 49.5625C212.449 49.0547 212.352 48.582 212.156 48.1445C211.961 47.707 211.652 47.3555 211.23 47.0898C210.809 46.8242 210.262 46.6914 209.59 46.6914H206.461V61H202.945V43.9375H209.59C210.926 43.9375 212.07 44.1797 213.023 44.6641C213.984 45.1406 214.719 45.8008 215.227 46.6445C215.734 47.4883 215.988 48.4531 215.988 49.5391C215.988 50.6406 215.734 51.5938 215.227 52.3984C214.719 53.2031 213.984 53.8242 213.023 54.2617C212.07 54.6992 210.926 54.918 209.59 54.918ZM224.906 58.1406V52.4922C224.906 52.0859 224.84 51.7383 224.707 51.4492C224.574 51.1523 224.367 50.9219 224.086 50.7578C223.812 50.5938 223.457 50.5117 223.02 50.5117C222.645 50.5117 222.32 50.5781 222.047 50.7109C221.773 50.8359 221.562 51.0195 221.414 51.2617C221.266 51.4961 221.191 51.7734 221.191 52.0938H217.816C217.816 51.5547 217.941 51.043 218.191 50.5586C218.441 50.0742 218.805 49.6484 219.281 49.2812C219.758 48.9062 220.324 48.6133 220.98 48.4023C221.645 48.1914 222.387 48.0859 223.207 48.0859C224.191 48.0859 225.066 48.25 225.832 48.5781C226.598 48.9062 227.199 49.3984 227.637 50.0547C228.082 50.7109 228.305 51.5312 228.305 52.5156V57.9414C228.305 58.6367 228.348 59.207 228.434 59.6523C228.52 60.0898 228.645 60.4727 228.809 60.8008V61H225.398C225.234 60.6562 225.109 60.2266 225.023 59.7109C224.945 59.1875 224.906 58.6641 224.906 58.1406ZM225.352 53.2773L225.375 55.1875H223.488C223.043 55.1875 222.656 55.2383 222.328 55.3398C222 55.4414 221.73 55.5859 221.52 55.7734C221.309 55.9531 221.152 56.1641 221.051 56.4062C220.957 56.6484 220.91 56.9141 220.91 57.2031C220.91 57.4922 220.977 57.7539 221.109 57.9883C221.242 58.2148 221.434 58.3945 221.684 58.5273C221.934 58.6523 222.227 58.7148 222.562 58.7148C223.07 58.7148 223.512 58.6133 223.887 58.4102C224.262 58.207 224.551 57.957 224.754 57.6602C224.965 57.3633 225.074 57.082 225.082 56.8164L225.973 58.2461C225.848 58.5664 225.676 58.8984 225.457 59.2422C225.246 59.5859 224.977 59.9102 224.648 60.2148C224.32 60.5117 223.926 60.7578 223.465 60.9531C223.004 61.1406 222.457 61.2344 221.824 61.2344C221.02 61.2344 220.289 61.0742 219.633 60.7539C218.984 60.4258 218.469 59.9766 218.086 59.4062C217.711 58.8281 217.523 58.1719 217.523 57.4375C217.523 56.7734 217.648 56.1836 217.898 55.668C218.148 55.1523 218.516 54.7188 219 54.3672C219.492 54.0078 220.105 53.7383 220.84 53.5586C221.574 53.3711 222.426 53.2773 223.395 53.2773H225.352ZM234.281 51.0859V61H230.906V48.3203H234.082L234.281 51.0859ZM238.102 48.2383L238.043 51.3672C237.879 51.3438 237.68 51.3242 237.445 51.3086C237.219 51.2852 237.012 51.2734 236.824 51.2734C236.348 51.2734 235.934 51.3359 235.582 51.4609C235.238 51.5781 234.949 51.7539 234.715 51.9883C234.488 52.2227 234.316 52.5078 234.199 52.8438C234.09 53.1797 234.027 53.5625 234.012 53.9922L233.332 53.7812C233.332 52.9609 233.414 52.207 233.578 51.5195C233.742 50.8242 233.98 50.2188 234.293 49.7031C234.613 49.1875 235.004 48.7891 235.465 48.5078C235.926 48.2266 236.453 48.0859 237.047 48.0859C237.234 48.0859 237.426 48.1016 237.621 48.1328C237.816 48.1562 237.977 48.1914 238.102 48.2383ZM243.07 42.9883V61H239.695V42.9883H243.07ZM251.062 48.3203L245.555 54.6016L242.602 57.5898L241.371 55.1523L243.715 52.1758L247.008 48.3203H251.062ZM247.559 61L243.809 55.1406L246.141 53.1016L251.449 61H247.559Z" fill="#888888"/>
<path d="M112.125 84.875V119H103.898V84.875H112.125ZM122.391 84.875V91.2266H93.8672V84.875H122.391ZM135.68 119.469C133.617 119.469 131.773 119.148 130.148 118.508C128.523 117.852 127.148 116.953 126.023 115.812C124.914 114.672 124.062 113.359 123.469 111.875C122.891 110.391 122.602 108.82 122.602 107.164V106.273C122.602 104.414 122.859 102.695 123.375 101.117C123.891 99.5234 124.656 98.1328 125.672 96.9453C126.688 95.7578 127.961 94.8359 129.492 94.1797C131.023 93.5078 132.805 93.1719 134.836 93.1719C136.633 93.1719 138.242 93.4609 139.664 94.0391C141.086 94.6172 142.289 95.4453 143.273 96.5234C144.273 97.6016 145.031 98.9062 145.547 100.438C146.078 101.969 146.344 103.688 146.344 105.594V108.805H125.625V103.859H138.633V103.25C138.648 102.406 138.5 101.688 138.188 101.094C137.891 100.5 137.453 100.047 136.875 99.7344C136.297 99.4219 135.594 99.2656 134.766 99.2656C133.906 99.2656 133.195 99.4531 132.633 99.8281C132.086 100.203 131.656 100.719 131.344 101.375C131.047 102.016 130.836 102.758 130.711 103.602C130.586 104.445 130.523 105.336 130.523 106.273V107.164C130.523 108.102 130.648 108.953 130.898 109.719C131.164 110.484 131.539 111.141 132.023 111.688C132.523 112.219 133.117 112.633 133.805 112.93C134.508 113.227 135.305 113.375 136.195 113.375C137.273 113.375 138.336 113.172 139.383 112.766C140.43 112.359 141.328 111.688 142.078 110.75L145.664 115.016C145.148 115.75 144.414 116.461 143.461 117.148C142.523 117.836 141.398 118.398 140.086 118.836C138.773 119.258 137.305 119.469 135.68 119.469ZM160.266 113.375C161 113.375 161.625 113.242 162.141 112.977C162.672 112.695 163.07 112.305 163.336 111.805C163.617 111.289 163.75 110.672 163.734 109.953H171.164C171.18 111.859 170.711 113.531 169.758 114.969C168.82 116.391 167.539 117.5 165.914 118.297C164.305 119.078 162.484 119.469 160.453 119.469C158.469 119.469 156.734 119.148 155.25 118.508C153.766 117.852 152.523 116.945 151.523 115.789C150.539 114.617 149.797 113.25 149.297 111.688C148.812 110.125 148.57 108.43 148.57 106.602V106.062C148.57 104.234 148.812 102.539 149.297 100.977C149.797 99.3984 150.539 98.0312 151.523 96.875C152.523 95.7031 153.758 94.7969 155.227 94.1562C156.711 93.5 158.438 93.1719 160.406 93.1719C162.516 93.1719 164.375 93.5703 165.984 94.3672C167.609 95.1641 168.883 96.3203 169.805 97.8359C170.727 99.3516 171.18 101.188 171.164 103.344H163.734C163.75 102.578 163.633 101.891 163.383 101.281C163.133 100.672 162.742 100.188 162.211 99.8281C161.695 99.4531 161.031 99.2656 160.219 99.2656C159.406 99.2656 158.75 99.4453 158.25 99.8047C157.75 100.164 157.367 100.664 157.102 101.305C156.852 101.93 156.68 102.648 156.586 103.461C156.508 104.273 156.469 105.141 156.469 106.062V106.602C156.469 107.539 156.508 108.422 156.586 109.25C156.68 110.062 156.859 110.781 157.125 111.406C157.391 112.016 157.773 112.5 158.273 112.859C158.773 113.203 159.438 113.375 160.266 113.375ZM182.273 83V119H174.375V83H182.273ZM181.336 105.453L179.484 105.5C179.484 103.719 179.703 102.078 180.141 100.578C180.578 99.0781 181.203 97.7734 182.016 96.6641C182.828 95.5547 183.805 94.6953 184.945 94.0859C186.086 93.4766 187.352 93.1719 188.742 93.1719C189.992 93.1719 191.133 93.3516 192.164 93.7109C193.211 94.0703 194.109 94.6484 194.859 95.4453C195.625 96.2422 196.211 97.2812 196.617 98.5625C197.039 99.8438 197.25 101.406 197.25 103.25V119H189.305V103.203C189.305 102.172 189.156 101.375 188.859 100.812C188.578 100.234 188.172 99.8359 187.641 99.6172C187.109 99.3828 186.461 99.2656 185.695 99.2656C184.773 99.2656 184.023 99.4219 183.445 99.7344C182.867 100.047 182.422 100.484 182.109 101.047C181.812 101.594 181.609 102.242 181.5 102.992C181.391 103.742 181.336 104.562 181.336 105.453ZM231.539 109.93C231.539 109.398 231.461 108.922 231.305 108.5C231.148 108.062 230.859 107.656 230.438 107.281C230.016 106.906 229.406 106.531 228.609 106.156C227.828 105.766 226.797 105.359 225.516 104.938C224.016 104.438 222.57 103.875 221.18 103.25C219.789 102.609 218.547 101.867 217.453 101.023C216.359 100.164 215.492 99.1641 214.852 98.0234C214.211 96.8672 213.891 95.5234 213.891 93.9922C213.891 92.5234 214.219 91.2031 214.875 90.0312C215.531 88.8438 216.445 87.8359 217.617 87.0078C218.805 86.1641 220.195 85.5234 221.789 85.0859C223.383 84.6328 225.125 84.4062 227.016 84.4062C229.516 84.4062 231.719 84.8438 233.625 85.7188C235.547 86.5781 237.047 87.8047 238.125 89.3984C239.219 90.9766 239.766 92.8438 239.766 95H231.586C231.586 94.1406 231.406 93.3828 231.047 92.7266C230.703 92.0703 230.18 91.5547 229.477 91.1797C228.773 90.8047 227.891 90.6172 226.828 90.6172C225.797 90.6172 224.93 90.7734 224.227 91.0859C223.523 91.3984 222.992 91.8203 222.633 92.3516C222.273 92.8672 222.094 93.4375 222.094 94.0625C222.094 94.5781 222.234 95.0469 222.516 95.4688C222.812 95.875 223.227 96.2578 223.758 96.6172C224.305 96.9766 224.961 97.3203 225.727 97.6484C226.508 97.9766 227.383 98.2969 228.352 98.6094C230.164 99.1875 231.773 99.8359 233.18 100.555C234.602 101.258 235.797 102.062 236.766 102.969C237.75 103.859 238.492 104.875 238.992 106.016C239.508 107.156 239.766 108.445 239.766 109.883C239.766 111.414 239.469 112.773 238.875 113.961C238.281 115.148 237.43 116.156 236.32 116.984C235.211 117.797 233.883 118.414 232.336 118.836C230.789 119.258 229.062 119.469 227.156 119.469C225.406 119.469 223.68 119.25 221.977 118.812C220.289 118.359 218.758 117.672 217.383 116.75C216.008 115.812 214.906 114.617 214.078 113.164C213.266 111.695 212.859 109.953 212.859 107.938H221.109C221.109 108.938 221.242 109.781 221.508 110.469C221.773 111.156 222.164 111.711 222.68 112.133C223.195 112.539 223.828 112.836 224.578 113.023C225.328 113.195 226.188 113.281 227.156 113.281C228.203 113.281 229.047 113.133 229.688 112.836C230.328 112.523 230.797 112.117 231.094 111.617C231.391 111.102 231.539 110.539 231.539 109.93ZM256.992 93.6406V99.125H241.711V93.6406H256.992ZM244.922 87.3359H252.82V110.727C252.82 111.398 252.898 111.922 253.055 112.297C253.211 112.656 253.477 112.914 253.852 113.07C254.242 113.211 254.758 113.281 255.398 113.281C255.852 113.281 256.227 113.273 256.523 113.258C256.82 113.227 257.102 113.188 257.367 113.141V118.789C256.695 119.008 255.992 119.172 255.258 119.281C254.523 119.406 253.742 119.469 252.914 119.469C251.227 119.469 249.781 119.203 248.578 118.672C247.391 118.141 246.484 117.305 245.859 116.164C245.234 115.023 244.922 113.539 244.922 111.711V87.3359ZM273.305 112.625V102.172C273.305 101.453 273.203 100.836 273 100.32C272.797 99.8047 272.477 99.4062 272.039 99.125C271.602 98.8281 271.016 98.6797 270.281 98.6797C269.688 98.6797 269.18 98.7812 268.758 98.9844C268.336 99.1875 268.016 99.4922 267.797 99.8984C267.578 100.305 267.469 100.82 267.469 101.445H259.57C259.57 100.273 259.828 99.1875 260.344 98.1875C260.875 97.1719 261.625 96.2891 262.594 95.5391C263.578 94.7891 264.75 94.2109 266.109 93.8047C267.484 93.3828 269.016 93.1719 270.703 93.1719C272.719 93.1719 274.516 93.5078 276.094 94.1797C277.688 94.8516 278.945 95.8594 279.867 97.2031C280.789 98.5312 281.25 100.203 281.25 102.219V112.602C281.25 114.258 281.344 115.516 281.531 116.375C281.719 117.219 281.984 117.961 282.328 118.602V119H274.406C274.031 118.219 273.75 117.266 273.562 116.141C273.391 115 273.305 113.828 273.305 112.625ZM274.266 103.508L274.312 107.727H270.82C270.086 107.727 269.461 107.828 268.945 108.031C268.445 108.234 268.039 108.516 267.727 108.875C267.43 109.219 267.211 109.609 267.07 110.047C266.945 110.484 266.883 110.945 266.883 111.43C266.883 111.898 266.992 112.32 267.211 112.695C267.445 113.055 267.758 113.336 268.148 113.539C268.539 113.742 268.977 113.844 269.461 113.844C270.336 113.844 271.078 113.68 271.688 113.352C272.312 113.008 272.789 112.594 273.117 112.109C273.445 111.625 273.609 111.172 273.609 110.75L275.344 113.984C275.031 114.609 274.672 115.242 274.266 115.883C273.875 116.523 273.383 117.117 272.789 117.664C272.211 118.195 271.5 118.633 270.656 118.977C269.812 119.305 268.789 119.469 267.586 119.469C266.023 119.469 264.586 119.148 263.273 118.508C261.977 117.867 260.938 116.977 260.156 115.836C259.375 114.68 258.984 113.352 258.984 111.852C258.984 110.539 259.219 109.367 259.688 108.336C260.172 107.305 260.898 106.43 261.867 105.711C262.836 104.992 264.07 104.445 265.57 104.07C267.07 103.695 268.836 103.508 270.867 103.508H274.266ZM296.344 113.375C297.078 113.375 297.703 113.242 298.219 112.977C298.75 112.695 299.148 112.305 299.414 111.805C299.695 111.289 299.828 110.672 299.812 109.953H307.242C307.258 111.859 306.789 113.531 305.836 114.969C304.898 116.391 303.617 117.5 301.992 118.297C300.383 119.078 298.562 119.469 296.531 119.469C294.547 119.469 292.812 119.148 291.328 118.508C289.844 117.852 288.602 116.945 287.602 115.789C286.617 114.617 285.875 113.25 285.375 111.688C284.891 110.125 284.648 108.43 284.648 106.602V106.062C284.648 104.234 284.891 102.539 285.375 100.977C285.875 99.3984 286.617 98.0312 287.602 96.875C288.602 95.7031 289.836 94.7969 291.305 94.1562C292.789 93.5 294.516 93.1719 296.484 93.1719C298.594 93.1719 300.453 93.5703 302.062 94.3672C303.688 95.1641 304.961 96.3203 305.883 97.8359C306.805 99.3516 307.258 101.188 307.242 103.344H299.812C299.828 102.578 299.711 101.891 299.461 101.281C299.211 100.672 298.82 100.188 298.289 99.8281C297.773 99.4531 297.109 99.2656 296.297 99.2656C295.484 99.2656 294.828 99.4453 294.328 99.8047C293.828 100.164 293.445 100.664 293.18 101.305C292.93 101.93 292.758 102.648 292.664 103.461C292.586 104.273 292.547 105.141 292.547 106.062V106.602C292.547 107.539 292.586 108.422 292.664 109.25C292.758 110.062 292.938 110.781 293.203 111.406C293.469 112.016 293.852 112.5 294.352 112.859C294.852 113.203 295.516 113.375 296.344 113.375ZM318.586 82.9766V119H310.688V82.9766H318.586ZM334.805 93.6406L323.789 106.555L318.023 112.32L314.578 107.305L319.383 101.047L325.336 93.6406H334.805ZM326.344 119L319.57 107.445L325.406 103.297L335.391 119H326.344Z" fill="#1D2126"/>
<path d="M1134 0H1348C1356.28 0 1363 6.71573 1363 15V148C1363 156.284 1356.28 163 1348 163H1134V0Z" fill="#FF8B13"/>
<path fill-rule="evenodd" clip-rule="evenodd" d="M1218.75 53C1218.62 53 1218.49 53.0527 1218.4 53.1464C1218.3 53.2402 1218.25 53.3674 1218.25 53.5V109.5C1218.25 109.633 1218.3 109.76 1218.4 109.854C1218.49 109.947 1218.62 110 1218.75 110H1278.25C1278.38 110 1278.51 109.947 1278.6 109.854C1278.7 109.76 1278.75 109.633 1278.75 109.5V64C1278.75 63.8674 1278.7 63.7402 1278.6 63.6464C1278.51 63.5527 1278.38 63.5 1278.25 63.5H1248.5C1247.61 63.5 1246.77 63.1045 1246.2 62.4206L1238.34 53H1218.75ZM1214.15 48.9038C1215.37 47.6848 1217.03 47 1218.75 47H1239.75C1240.64 47 1241.48 47.3955 1242.05 48.0794L1249.91 57.5H1278.25C1279.97 57.5 1281.63 58.1848 1282.85 59.4038C1284.07 60.6228 1284.75 62.2761 1284.75 64V109.5C1284.75 111.224 1284.07 112.877 1282.85 114.096C1281.63 115.315 1279.97 116 1278.25 116H1218.75C1217.03 116 1215.37 115.315 1214.15 114.096C1212.93 112.877 1212.25 111.224 1212.25 109.5V53.5C1212.25 51.7761 1212.93 50.1228 1214.15 48.9038Z" fill="white"/>
<path fill-rule="evenodd" clip-rule="evenodd" d="M1243.97 75.5251C1245.34 76.892 1245.34 79.108 1243.97 80.4749L1237.7 86.75L1243.97 93.0251C1245.34 94.392 1245.34 96.608 1243.97 97.9749C1242.61 99.3417 1240.39 99.3417 1239.03 97.9749L1230.28 89.2249C1228.91 87.858 1228.91 85.642 1230.28 84.2751L1239.03 75.5251C1240.39 74.1583 1242.61 74.1583 1243.97 75.5251Z" fill="white"/>
<path fill-rule="evenodd" clip-rule="evenodd" d="M1252.28 97.9749C1250.91 96.608 1250.91 94.392 1252.28 93.0251L1258.55 86.75L1252.28 80.4749C1250.91 79.108 1250.91 76.892 1252.28 75.5251C1253.64 74.1583 1255.86 74.1583 1257.22 75.5251L1265.97 84.2751C1267.34 85.642 1267.34 87.858 1265.97 89.2249L1257.22 97.9749C1255.86 99.3417 1253.64 99.3417 1252.28 97.9749Z" fill="white"/>
</svg>
