<svg width="1363" height="163" viewBox="0 0 1363 163" fill="none" xmlns="http://www.w3.org/2000/svg">
<path d="M0 15C0 6.71573 6.71573 0 15 0H37V163H15C6.71573 163 0 156.284 0 148V15Z" fill="#1D2126"/>
<rect width="1097" height="163" transform="translate(37)" fill="#F0F0F0"/>
<path d="M101.906 53.9219L94.3945 51.2383V48.0859L104.602 52.375V54.6367L101.906 53.9219ZM94.3945 56.1719L101.918 53.4297L104.602 52.7852V55.0352L94.3945 59.3242V56.1719ZM121.781 56.5352C121.781 56.2305 121.734 55.957 121.641 55.7148C121.555 55.4648 121.391 55.2383 121.148 55.0352C120.906 54.8242 120.566 54.6172 120.129 54.4141C119.691 54.2109 119.125 54 118.43 53.7812C117.656 53.5312 116.922 53.25 116.227 52.9375C115.539 52.625 114.93 52.2617 114.398 51.8477C113.875 51.4258 113.461 50.9375 113.156 50.3828C112.859 49.8281 112.711 49.1836 112.711 48.4492C112.711 47.7383 112.867 47.0938 113.18 46.5156C113.492 45.9297 113.93 45.4297 114.492 45.0156C115.055 44.5938 115.719 44.2695 116.484 44.043C117.258 43.8164 118.105 43.7031 119.027 43.7031C120.285 43.7031 121.383 43.9297 122.32 44.3828C123.258 44.8359 123.984 45.457 124.5 46.2461C125.023 47.0352 125.285 47.9375 125.285 48.9531H121.793C121.793 48.4531 121.688 48.0156 121.477 47.6406C121.273 47.2578 120.961 46.957 120.539 46.7383C120.125 46.5195 119.602 46.4102 118.969 46.4102C118.359 46.4102 117.852 46.5039 117.445 46.6914C117.039 46.8711 116.734 47.1172 116.531 47.4297C116.328 47.7344 116.227 48.0781 116.227 48.4609C116.227 48.75 116.297 49.0117 116.438 49.2461C116.586 49.4805 116.805 49.6992 117.094 49.9023C117.383 50.1055 117.738 50.2969 118.16 50.4766C118.582 50.6562 119.07 50.832 119.625 51.0039C120.555 51.2852 121.371 51.6016 122.074 51.9531C122.785 52.3047 123.379 52.6992 123.855 53.1367C124.332 53.5742 124.691 54.0703 124.934 54.625C125.176 55.1797 125.297 55.8086 125.297 56.5117C125.297 57.2539 125.152 57.918 124.863 58.5039C124.574 59.0898 124.156 59.5859 123.609 59.9922C123.062 60.3984 122.41 60.707 121.652 60.918C120.895 61.1289 120.047 61.2344 119.109 61.2344C118.266 61.2344 117.434 61.125 116.613 60.9062C115.793 60.6797 115.047 60.3398 114.375 59.8867C113.711 59.4336 113.18 58.8555 112.781 58.1523C112.383 57.4492 112.184 56.6172 112.184 55.6562H115.711C115.711 56.1875 115.793 56.6367 115.957 57.0039C116.121 57.3711 116.352 57.668 116.648 57.8945C116.953 58.1211 117.312 58.2852 117.727 58.3867C118.148 58.4883 118.609 58.5391 119.109 58.5391C119.719 58.5391 120.219 58.4531 120.609 58.2812C121.008 58.1094 121.301 57.8711 121.488 57.5664C121.684 57.2617 121.781 56.918 121.781 56.5352ZM133.688 48.3203V50.7109H126.305V48.3203H133.688ZM128.133 45.1914H131.508V57.1797C131.508 57.5469 131.555 57.8281 131.648 58.0234C131.75 58.2188 131.898 58.3555 132.094 58.4336C132.289 58.5039 132.535 58.5391 132.832 58.5391C133.043 58.5391 133.23 58.5312 133.395 58.5156C133.566 58.4922 133.711 58.4688 133.828 58.4453L133.84 60.9297C133.551 61.0234 133.238 61.0977 132.902 61.1523C132.566 61.207 132.195 61.2344 131.789 61.2344C131.047 61.2344 130.398 61.1133 129.844 60.8711C129.297 60.6211 128.875 60.2227 128.578 59.6758C128.281 59.1289 128.133 58.4102 128.133 57.5195V45.1914ZM134.766 54.7891V54.543C134.766 53.6133 134.898 52.7578 135.164 51.9766C135.43 51.1875 135.816 50.5039 136.324 49.9258C136.832 49.3477 137.457 48.8984 138.199 48.5781C138.941 48.25 139.793 48.0859 140.754 48.0859C141.715 48.0859 142.57 48.25 143.32 48.5781C144.07 48.8984 144.699 49.3477 145.207 49.9258C145.723 50.5039 146.113 51.1875 146.379 51.9766C146.645 52.7578 146.777 53.6133 146.777 54.543V54.7891C146.777 55.7109 146.645 56.5664 146.379 57.3555C146.113 58.1367 145.723 58.8203 145.207 59.4062C144.699 59.9844 144.074 60.4336 143.332 60.7539C142.59 61.0742 141.738 61.2344 140.777 61.2344C139.816 61.2344 138.961 61.0742 138.211 60.7539C137.469 60.4336 136.84 59.9844 136.324 59.4062C135.816 58.8203 135.43 58.1367 135.164 57.3555C134.898 56.5664 134.766 55.7109 134.766 54.7891ZM138.141 54.543V54.7891C138.141 55.3203 138.188 55.8164 138.281 56.2773C138.375 56.7383 138.523 57.1445 138.727 57.4961C138.938 57.8398 139.211 58.1094 139.547 58.3047C139.883 58.5 140.293 58.5977 140.777 58.5977C141.246 58.5977 141.648 58.5 141.984 58.3047C142.32 58.1094 142.59 57.8398 142.793 57.4961C142.996 57.1445 143.145 56.7383 143.238 56.2773C143.34 55.8164 143.391 55.3203 143.391 54.7891V54.543C143.391 54.0273 143.34 53.543 143.238 53.0898C143.145 52.6289 142.992 52.2227 142.781 51.8711C142.578 51.5117 142.309 51.2305 141.973 51.0273C141.637 50.8242 141.23 50.7227 140.754 50.7227C140.277 50.7227 139.871 50.8242 139.535 51.0273C139.207 51.2305 138.938 51.5117 138.727 51.8711C138.523 52.2227 138.375 52.6289 138.281 53.0898C138.188 53.543 138.141 54.0273 138.141 54.543ZM152.227 51.0859V61H148.852V48.3203H152.027L152.227 51.0859ZM156.047 48.2383L155.988 51.3672C155.824 51.3438 155.625 51.3242 155.391 51.3086C155.164 51.2852 154.957 51.2734 154.77 51.2734C154.293 51.2734 153.879 51.3359 153.527 51.4609C153.184 51.5781 152.895 51.7539 152.66 51.9883C152.434 52.2227 152.262 52.5078 152.145 52.8438C152.035 53.1797 151.973 53.5625 151.957 53.9922L151.277 53.7812C151.277 52.9609 151.359 52.207 151.523 51.5195C151.688 50.8242 151.926 50.2188 152.238 49.7031C152.559 49.1875 152.949 48.7891 153.41 48.5078C153.871 48.2266 154.398 48.0859 154.992 48.0859C155.18 48.0859 155.371 48.1016 155.566 48.1328C155.762 48.1562 155.922 48.1914 156.047 48.2383ZM164.086 58.1406V52.4922C164.086 52.0859 164.02 51.7383 163.887 51.4492C163.754 51.1523 163.547 50.9219 163.266 50.7578C162.992 50.5938 162.637 50.5117 162.199 50.5117C161.824 50.5117 161.5 50.5781 161.227 50.7109C160.953 50.8359 160.742 51.0195 160.594 51.2617C160.445 51.4961 160.371 51.7734 160.371 52.0938H156.996C156.996 51.5547 157.121 51.043 157.371 50.5586C157.621 50.0742 157.984 49.6484 158.461 49.2812C158.938 48.9062 159.504 48.6133 160.16 48.4023C160.824 48.1914 161.566 48.0859 162.387 48.0859C163.371 48.0859 164.246 48.25 165.012 48.5781C165.777 48.9062 166.379 49.3984 166.816 50.0547C167.262 50.7109 167.484 51.5312 167.484 52.5156V57.9414C167.484 58.6367 167.527 59.207 167.613 59.6523C167.699 60.0898 167.824 60.4727 167.988 60.8008V61H164.578C164.414 60.6562 164.289 60.2266 164.203 59.7109C164.125 59.1875 164.086 58.6641 164.086 58.1406ZM164.531 53.2773L164.555 55.1875H162.668C162.223 55.1875 161.836 55.2383 161.508 55.3398C161.18 55.4414 160.91 55.5859 160.699 55.7734C160.488 55.9531 160.332 56.1641 160.23 56.4062C160.137 56.6484 160.09 56.9141 160.09 57.2031C160.09 57.4922 160.156 57.7539 160.289 57.9883C160.422 58.2148 160.613 58.3945 160.863 58.5273C161.113 58.6523 161.406 58.7148 161.742 58.7148C162.25 58.7148 162.691 58.6133 163.066 58.4102C163.441 58.207 163.73 57.957 163.934 57.6602C164.145 57.3633 164.254 57.082 164.262 56.8164L165.152 58.2461C165.027 58.5664 164.855 58.8984 164.637 59.2422C164.426 59.5859 164.156 59.9102 163.828 60.2148C163.5 60.5117 163.105 60.7578 162.645 60.9531C162.184 61.1406 161.637 61.2344 161.004 61.2344C160.199 61.2344 159.469 61.0742 158.812 60.7539C158.164 60.4258 157.648 59.9766 157.266 59.4062C156.891 58.8281 156.703 58.1719 156.703 57.4375C156.703 56.7734 156.828 56.1836 157.078 55.668C157.328 55.1523 157.695 54.7188 158.18 54.3672C158.672 54.0078 159.285 53.7383 160.02 53.5586C160.754 53.3711 161.605 53.2773 162.574 53.2773H164.531ZM178.113 48.3203H181.172V60.5781C181.172 61.7344 180.914 62.7148 180.398 63.5195C179.891 64.332 179.18 64.9453 178.266 65.3594C177.352 65.7812 176.289 65.9922 175.078 65.9922C174.547 65.9922 173.984 65.9219 173.391 65.7812C172.805 65.6406 172.242 65.4219 171.703 65.125C171.172 64.8281 170.727 64.4531 170.367 64L171.855 62.0078C172.246 62.4609 172.699 62.8125 173.215 63.0625C173.73 63.3203 174.301 63.4492 174.926 63.4492C175.535 63.4492 176.051 63.3359 176.473 63.1094C176.895 62.8906 177.219 62.5664 177.445 62.1367C177.672 61.7148 177.785 61.2031 177.785 60.6016V51.25L178.113 48.3203ZM169.582 54.8125V54.5664C169.582 53.5977 169.699 52.7188 169.934 51.9297C170.176 51.1328 170.516 50.4492 170.953 49.8789C171.398 49.3086 171.938 48.8672 172.57 48.5547C173.203 48.2422 173.918 48.0859 174.715 48.0859C175.559 48.0859 176.266 48.2422 176.836 48.5547C177.406 48.8672 177.875 49.3125 178.242 49.8906C178.609 50.4609 178.895 51.1367 179.098 51.918C179.309 52.6914 179.473 53.5391 179.59 54.4609V55C179.473 55.8828 179.297 56.7031 179.062 57.4609C178.828 58.2188 178.52 58.8828 178.137 59.4531C177.754 60.0156 177.277 60.4531 176.707 60.7656C176.145 61.0781 175.473 61.2344 174.691 61.2344C173.91 61.2344 173.203 61.0742 172.57 60.7539C171.945 60.4336 171.41 59.9844 170.965 59.4062C170.52 58.8281 170.176 58.1484 169.934 57.3672C169.699 56.5859 169.582 55.7344 169.582 54.8125ZM172.957 54.5664V54.8125C172.957 55.3359 173.008 55.8242 173.109 56.2773C173.211 56.7305 173.367 57.1328 173.578 57.4844C173.797 57.8281 174.066 58.0977 174.387 58.293C174.715 58.4805 175.102 58.5742 175.547 58.5742C176.164 58.5742 176.668 58.4453 177.059 58.1875C177.449 57.9219 177.742 57.5586 177.938 57.0977C178.133 56.6367 178.246 56.1055 178.277 55.5039V53.9688C178.262 53.4766 178.195 53.0352 178.078 52.6445C177.961 52.2461 177.797 51.9062 177.586 51.625C177.375 51.3438 177.102 51.125 176.766 50.9688C176.43 50.8125 176.031 50.7344 175.57 50.7344C175.125 50.7344 174.738 50.8359 174.41 51.0391C174.09 51.2344 173.82 51.5039 173.602 51.8477C173.391 52.1914 173.23 52.5977 173.121 53.0664C173.012 53.5273 172.957 54.0273 172.957 54.5664ZM189.633 61.2344C188.648 61.2344 187.766 61.0781 186.984 60.7656C186.203 60.4453 185.539 60.0039 184.992 59.4414C184.453 58.8789 184.039 58.2266 183.75 57.4844C183.461 56.7344 183.316 55.9375 183.316 55.0938V54.625C183.316 53.6641 183.453 52.7852 183.727 51.9883C184 51.1914 184.391 50.5 184.898 49.9141C185.414 49.3281 186.039 48.8789 186.773 48.5664C187.508 48.2461 188.336 48.0859 189.258 48.0859C190.156 48.0859 190.953 48.2344 191.648 48.5312C192.344 48.8281 192.926 49.25 193.395 49.7969C193.871 50.3438 194.23 51 194.473 51.7656C194.715 52.5234 194.836 53.3672 194.836 54.2969V55.7031H184.758V53.4531H191.52V53.1953C191.52 52.7266 191.434 52.3086 191.262 51.9414C191.098 51.5664 190.848 51.2695 190.512 51.0508C190.176 50.832 189.746 50.7227 189.223 50.7227C188.777 50.7227 188.395 50.8203 188.074 51.0156C187.754 51.2109 187.492 51.4844 187.289 51.8359C187.094 52.1875 186.945 52.6016 186.844 53.0781C186.75 53.5469 186.703 54.0625 186.703 54.625V55.0938C186.703 55.6016 186.773 56.0703 186.914 56.5C187.062 56.9297 187.27 57.3008 187.535 57.6133C187.809 57.9258 188.137 58.168 188.52 58.3398C188.91 58.5117 189.352 58.5977 189.844 58.5977C190.453 58.5977 191.02 58.4805 191.543 58.2461C192.074 58.0039 192.531 57.6406 192.914 57.1562L194.555 58.9375C194.289 59.3203 193.926 59.6875 193.465 60.0391C193.012 60.3906 192.465 60.6797 191.824 60.9062C191.184 61.125 190.453 61.2344 189.633 61.2344ZM209.59 54.918H205.242V52.1758H209.59C210.262 52.1758 210.809 52.0664 211.23 51.8477C211.652 51.6211 211.961 51.3086 212.156 50.9102C212.352 50.5117 212.449 50.0625 212.449 49.5625C212.449 49.0547 212.352 48.582 212.156 48.1445C211.961 47.707 211.652 47.3555 211.23 47.0898C210.809 46.8242 210.262 46.6914 209.59 46.6914H206.461V61H202.945V43.9375H209.59C210.926 43.9375 212.07 44.1797 213.023 44.6641C213.984 45.1406 214.719 45.8008 215.227 46.6445C215.734 47.4883 215.988 48.4531 215.988 49.5391C215.988 50.6406 215.734 51.5938 215.227 52.3984C214.719 53.2031 213.984 53.8242 213.023 54.2617C212.07 54.6992 210.926 54.918 209.59 54.918ZM224.906 58.1406V52.4922C224.906 52.0859 224.84 51.7383 224.707 51.4492C224.574 51.1523 224.367 50.9219 224.086 50.7578C223.812 50.5938 223.457 50.5117 223.02 50.5117C222.645 50.5117 222.32 50.5781 222.047 50.7109C221.773 50.8359 221.562 51.0195 221.414 51.2617C221.266 51.4961 221.191 51.7734 221.191 52.0938H217.816C217.816 51.5547 217.941 51.043 218.191 50.5586C218.441 50.0742 218.805 49.6484 219.281 49.2812C219.758 48.9062 220.324 48.6133 220.98 48.4023C221.645 48.1914 222.387 48.0859 223.207 48.0859C224.191 48.0859 225.066 48.25 225.832 48.5781C226.598 48.9062 227.199 49.3984 227.637 50.0547C228.082 50.7109 228.305 51.5312 228.305 52.5156V57.9414C228.305 58.6367 228.348 59.207 228.434 59.6523C228.52 60.0898 228.645 60.4727 228.809 60.8008V61H225.398C225.234 60.6562 225.109 60.2266 225.023 59.7109C224.945 59.1875 224.906 58.6641 224.906 58.1406ZM225.352 53.2773L225.375 55.1875H223.488C223.043 55.1875 222.656 55.2383 222.328 55.3398C222 55.4414 221.73 55.5859 221.52 55.7734C221.309 55.9531 221.152 56.1641 221.051 56.4062C220.957 56.6484 220.91 56.9141 220.91 57.2031C220.91 57.4922 220.977 57.7539 221.109 57.9883C221.242 58.2148 221.434 58.3945 221.684 58.5273C221.934 58.6523 222.227 58.7148 222.562 58.7148C223.07 58.7148 223.512 58.6133 223.887 58.4102C224.262 58.207 224.551 57.957 224.754 57.6602C224.965 57.3633 225.074 57.082 225.082 56.8164L225.973 58.2461C225.848 58.5664 225.676 58.8984 225.457 59.2422C225.246 59.5859 224.977 59.9102 224.648 60.2148C224.32 60.5117 223.926 60.7578 223.465 60.9531C223.004 61.1406 222.457 61.2344 221.824 61.2344C221.02 61.2344 220.289 61.0742 219.633 60.7539C218.984 60.4258 218.469 59.9766 218.086 59.4062C217.711 58.8281 217.523 58.1719 217.523 57.4375C217.523 56.7734 217.648 56.1836 217.898 55.668C218.148 55.1523 218.516 54.7188 219 54.3672C219.492 54.0078 220.105 53.7383 220.84 53.5586C221.574 53.3711 222.426 53.2773 223.395 53.2773H225.352ZM234.281 51.0859V61H230.906V48.3203H234.082L234.281 51.0859ZM238.102 48.2383L238.043 51.3672C237.879 51.3438 237.68 51.3242 237.445 51.3086C237.219 51.2852 237.012 51.2734 236.824 51.2734C236.348 51.2734 235.934 51.3359 235.582 51.4609C235.238 51.5781 234.949 51.7539 234.715 51.9883C234.488 52.2227 234.316 52.5078 234.199 52.8438C234.09 53.1797 234.027 53.5625 234.012 53.9922L233.332 53.7812C233.332 52.9609 233.414 52.207 233.578 51.5195C233.742 50.8242 233.98 50.2188 234.293 49.7031C234.613 49.1875 235.004 48.7891 235.465 48.5078C235.926 48.2266 236.453 48.0859 237.047 48.0859C237.234 48.0859 237.426 48.1016 237.621 48.1328C237.816 48.1562 237.977 48.1914 238.102 48.2383ZM243.07 42.9883V61H239.695V42.9883H243.07ZM251.062 48.3203L245.555 54.6016L242.602 57.5898L241.371 55.1523L243.715 52.1758L247.008 48.3203H251.062ZM247.559 61L243.809 55.1406L246.141 53.1016L251.449 61H247.559Z" fill="#888888"/>
<path d="M106.688 119H99.1172L99.1641 112.672H106.688C108.25 112.672 109.57 112.297 110.648 111.547C111.742 110.797 112.57 109.68 113.133 108.195C113.711 106.695 114 104.852 114 102.664V101.188C114 99.5469 113.836 98.1094 113.508 96.875C113.195 95.625 112.727 94.5859 112.102 93.7578C111.477 92.9141 110.695 92.2812 109.758 91.8594C108.836 91.4375 107.773 91.2266 106.57 91.2266H98.9766V84.875H106.57C108.883 84.875 111 85.2734 112.922 86.0703C114.859 86.8516 116.531 87.9766 117.938 89.4453C119.359 90.8984 120.453 92.625 121.219 94.625C122 96.6094 122.391 98.8125 122.391 101.234V102.664C122.391 105.07 122 107.273 121.219 109.273C120.453 111.273 119.367 113 117.961 114.453C116.555 115.906 114.891 117.031 112.969 117.828C111.062 118.609 108.969 119 106.688 119ZM103.828 84.875V119H95.6016V84.875H103.828ZM138.586 119.469C136.523 119.469 134.68 119.148 133.055 118.508C131.43 117.852 130.055 116.953 128.93 115.812C127.82 114.672 126.969 113.359 126.375 111.875C125.797 110.391 125.508 108.82 125.508 107.164V106.273C125.508 104.414 125.766 102.695 126.281 101.117C126.797 99.5234 127.562 98.1328 128.578 96.9453C129.594 95.7578 130.867 94.8359 132.398 94.1797C133.93 93.5078 135.711 93.1719 137.742 93.1719C139.539 93.1719 141.148 93.4609 142.57 94.0391C143.992 94.6172 145.195 95.4453 146.18 96.5234C147.18 97.6016 147.938 98.9062 148.453 100.438C148.984 101.969 149.25 103.688 149.25 105.594V108.805H128.531V103.859H141.539V103.25C141.555 102.406 141.406 101.688 141.094 101.094C140.797 100.5 140.359 100.047 139.781 99.7344C139.203 99.4219 138.5 99.2656 137.672 99.2656C136.812 99.2656 136.102 99.4531 135.539 99.8281C134.992 100.203 134.562 100.719 134.25 101.375C133.953 102.016 133.742 102.758 133.617 103.602C133.492 104.445 133.43 105.336 133.43 106.273V107.164C133.43 108.102 133.555 108.953 133.805 109.719C134.07 110.484 134.445 111.141 134.93 111.688C135.43 112.219 136.023 112.633 136.711 112.93C137.414 113.227 138.211 113.375 139.102 113.375C140.18 113.375 141.242 113.172 142.289 112.766C143.336 112.359 144.234 111.688 144.984 110.75L148.57 115.016C148.055 115.75 147.32 116.461 146.367 117.148C145.43 117.836 144.305 118.398 142.992 118.836C141.68 119.258 140.211 119.469 138.586 119.469ZM160.43 99.0078V119H152.531V93.6406H159.938L160.43 99.0078ZM159.469 105.453L157.664 105.5C157.664 103.719 157.875 102.078 158.297 100.578C158.719 99.0781 159.344 97.7734 160.172 96.6641C161 95.5547 162.016 94.6953 163.219 94.0859C164.438 93.4766 165.844 93.1719 167.438 93.1719C168.547 93.1719 169.555 93.3438 170.461 93.6875C171.367 94.0156 172.148 94.5391 172.805 95.2578C173.461 95.9609 173.961 96.8828 174.305 98.0234C174.664 99.1484 174.844 100.5 174.844 102.078V119H166.945V103.086C166.945 102.008 166.82 101.195 166.57 100.648C166.336 100.102 165.992 99.7344 165.539 99.5469C165.086 99.3594 164.531 99.2656 163.875 99.2656C163.188 99.2656 162.57 99.4219 162.023 99.7344C161.477 100.047 161.008 100.484 160.617 101.047C160.242 101.594 159.953 102.242 159.75 102.992C159.562 103.742 159.469 104.562 159.469 105.453ZM173.953 105.453L171.75 105.5C171.75 103.719 171.945 102.078 172.336 100.578C172.742 99.0781 173.344 97.7734 174.141 96.6641C174.953 95.5547 175.961 94.6953 177.164 94.0859C178.367 93.4766 179.766 93.1719 181.359 93.1719C182.516 93.1719 183.578 93.3438 184.547 93.6875C185.516 94.0312 186.352 94.5859 187.055 95.3516C187.758 96.1172 188.305 97.1328 188.695 98.3984C189.086 99.6484 189.281 101.195 189.281 103.039V119H181.359V103.039C181.359 101.992 181.234 101.203 180.984 100.672C180.75 100.125 180.406 99.7578 179.953 99.5703C179.5 99.3672 178.961 99.2656 178.336 99.2656C177.586 99.2656 176.938 99.4219 176.391 99.7344C175.844 100.047 175.383 100.484 175.008 101.047C174.648 101.594 174.383 102.242 174.211 102.992C174.039 103.742 173.953 104.562 173.953 105.453ZM192.82 106.578V106.086C192.82 104.227 193.086 102.516 193.617 100.953C194.148 99.375 194.93 98.0078 195.961 96.8516C196.992 95.6953 198.266 94.7969 199.781 94.1562C201.297 93.5 203.047 93.1719 205.031 93.1719C207.031 93.1719 208.789 93.5 210.305 94.1562C211.836 94.7969 213.117 95.6953 214.148 96.8516C215.18 98.0078 215.961 99.375 216.492 100.953C217.023 102.516 217.289 104.227 217.289 106.086V106.578C217.289 108.422 217.023 110.133 216.492 111.711C215.961 113.273 215.18 114.641 214.148 115.812C213.117 116.969 211.844 117.867 210.328 118.508C208.812 119.148 207.062 119.469 205.078 119.469C203.094 119.469 201.336 119.148 199.805 118.508C198.273 117.867 196.992 116.969 195.961 115.812C194.93 114.641 194.148 113.273 193.617 111.711C193.086 110.133 192.82 108.422 192.82 106.578ZM200.719 106.086V106.578C200.719 107.531 200.789 108.422 200.93 109.25C201.07 110.078 201.305 110.805 201.633 111.43C201.961 112.039 202.406 112.516 202.969 112.859C203.531 113.203 204.234 113.375 205.078 113.375C205.906 113.375 206.594 113.203 207.141 112.859C207.703 112.516 208.148 112.039 208.477 111.43C208.805 110.805 209.039 110.078 209.18 109.25C209.32 108.422 209.391 107.531 209.391 106.578V106.086C209.391 105.164 209.32 104.297 209.18 103.484C209.039 102.656 208.805 101.93 208.477 101.305C208.148 100.664 207.703 100.164 207.141 99.8047C206.578 99.4453 205.875 99.2656 205.031 99.2656C204.203 99.2656 203.508 99.4453 202.945 99.8047C202.398 100.164 201.961 100.664 201.633 101.305C201.305 101.93 201.07 102.656 200.93 103.484C200.789 104.297 200.719 105.164 200.719 106.086Z" fill="#1D2126"/>
<path d="M1134 0H1348C1356.28 0 1363 6.71573 1363 15V148C1363 156.284 1356.28 163 1348 163H1134V0Z" fill="#FF8B13"/>
<path d="M1281 46.5H1216L1213.5 49V114L1216 116.5H1281L1283.5 114V49L1281 46.5ZM1278.5 111.5H1233.5V101.5H1245C1246.5 104.5 1250 106.5 1253.5 106.5C1259 106.5 1263.5 102 1263.5 96.5C1263.5 91 1259 86.5 1253.5 86.5C1248 86.5 1243.5 91 1243.5 96.5H1228.5V111.5H1218.5V51.5H1228.5V63C1225.5 64.5 1223.5 68 1223.5 71.5C1223.5 77 1228 81.5 1233.5 81.5C1239 81.5 1243.5 77 1243.5 71.5H1253.5C1253.5 77 1258 81.5 1263.5 81.5C1269 81.5 1273.5 77 1273.5 71.5C1273.5 66 1269 61.5 1263.5 61.5C1260 61.5 1256.5 63.5 1255 66.5H1242C1240.5 63.5 1237 61.5 1233.5 61.5V51.5H1278.5V111.5ZM1248.5 96.5C1248.5 93.5 1250.5 91.5 1253.5 91.5C1256.5 91.5 1258.5 93.5 1258.5 96.5C1258.5 99.5 1256.5 101.5 1253.5 101.5C1250.5 101.5 1248.5 99.5 1248.5 96.5ZM1233.5 66.5C1236.5 66.5 1238.5 68.5 1238.5 71.5C1238.5 74.5 1236.5 76.5 1233.5 76.5C1230.5 76.5 1228.5 74.5 1228.5 71.5C1228.5 68.5 1230.5 66.5 1233.5 66.5ZM1263.5 66.5C1266.5 66.5 1268.5 68.5 1268.5 71.5C1268.5 74.5 1266.5 76.5 1263.5 76.5C1260.5 76.5 1258.5 74.5 1258.5 71.5C1258.5 68.5 1260.5 66.5 1263.5 66.5Z" fill="white"/>
</svg>
