<svg width="1363" height="163" viewBox="0 0 1363 163" fill="none" xmlns="http://www.w3.org/2000/svg">
<path d="M0 15C0 6.71573 6.71573 0 15 0H37V163H15C6.71573 163 0 156.284 0 148V15Z" fill="#1D2126"/>
<rect width="1097" height="163" transform="translate(37)" fill="#F0F0F0"/>
<path d="M101.906 53.9219L94.3945 51.2383V48.0859L104.602 52.375V54.6367L101.906 53.9219ZM94.3945 56.1719L101.918 53.4297L104.602 52.7852V55.0352L94.3945 59.3242V56.1719ZM121.781 56.5352C121.781 56.2305 121.734 55.957 121.641 55.7148C121.555 55.4648 121.391 55.2383 121.148 55.0352C120.906 54.8242 120.566 54.6172 120.129 54.4141C119.691 54.2109 119.125 54 118.43 53.7812C117.656 53.5312 116.922 53.25 116.227 52.9375C115.539 52.625 114.93 52.2617 114.398 51.8477C113.875 51.4258 113.461 50.9375 113.156 50.3828C112.859 49.8281 112.711 49.1836 112.711 48.4492C112.711 47.7383 112.867 47.0938 113.18 46.5156C113.492 45.9297 113.93 45.4297 114.492 45.0156C115.055 44.5938 115.719 44.2695 116.484 44.043C117.258 43.8164 118.105 43.7031 119.027 43.7031C120.285 43.7031 121.383 43.9297 122.32 44.3828C123.258 44.8359 123.984 45.457 124.5 46.2461C125.023 47.0352 125.285 47.9375 125.285 48.9531H121.793C121.793 48.4531 121.688 48.0156 121.477 47.6406C121.273 47.2578 120.961 46.957 120.539 46.7383C120.125 46.5195 119.602 46.4102 118.969 46.4102C118.359 46.4102 117.852 46.5039 117.445 46.6914C117.039 46.8711 116.734 47.1172 116.531 47.4297C116.328 47.7344 116.227 48.0781 116.227 48.4609C116.227 48.75 116.297 49.0117 116.438 49.2461C116.586 49.4805 116.805 49.6992 117.094 49.9023C117.383 50.1055 117.738 50.2969 118.16 50.4766C118.582 50.6562 119.07 50.832 119.625 51.0039C120.555 51.2852 121.371 51.6016 122.074 51.9531C122.785 52.3047 123.379 52.6992 123.855 53.1367C124.332 53.5742 124.691 54.0703 124.934 54.625C125.176 55.1797 125.297 55.8086 125.297 56.5117C125.297 57.2539 125.152 57.918 124.863 58.5039C124.574 59.0898 124.156 59.5859 123.609 59.9922C123.062 60.3984 122.41 60.707 121.652 60.918C120.895 61.1289 120.047 61.2344 119.109 61.2344C118.266 61.2344 117.434 61.125 116.613 60.9062C115.793 60.6797 115.047 60.3398 114.375 59.8867C113.711 59.4336 113.18 58.8555 112.781 58.1523C112.383 57.4492 112.184 56.6172 112.184 55.6562H115.711C115.711 56.1875 115.793 56.6367 115.957 57.0039C116.121 57.3711 116.352 57.668 116.648 57.8945C116.953 58.1211 117.312 58.2852 117.727 58.3867C118.148 58.4883 118.609 58.5391 119.109 58.5391C119.719 58.5391 120.219 58.4531 120.609 58.2812C121.008 58.1094 121.301 57.8711 121.488 57.5664C121.684 57.2617 121.781 56.918 121.781 56.5352ZM133.688 48.3203V50.7109H126.305V48.3203H133.688ZM128.133 45.1914H131.508V57.1797C131.508 57.5469 131.555 57.8281 131.648 58.0234C131.75 58.2188 131.898 58.3555 132.094 58.4336C132.289 58.5039 132.535 58.5391 132.832 58.5391C133.043 58.5391 133.23 58.5312 133.395 58.5156C133.566 58.4922 133.711 58.4688 133.828 58.4453L133.84 60.9297C133.551 61.0234 133.238 61.0977 132.902 61.1523C132.566 61.207 132.195 61.2344 131.789 61.2344C131.047 61.2344 130.398 61.1133 129.844 60.8711C129.297 60.6211 128.875 60.2227 128.578 59.6758C128.281 59.1289 128.133 58.4102 128.133 57.5195V45.1914ZM134.766 54.7891V54.543C134.766 53.6133 134.898 52.7578 135.164 51.9766C135.43 51.1875 135.816 50.5039 136.324 49.9258C136.832 49.3477 137.457 48.8984 138.199 48.5781C138.941 48.25 139.793 48.0859 140.754 48.0859C141.715 48.0859 142.57 48.25 143.32 48.5781C144.07 48.8984 144.699 49.3477 145.207 49.9258C145.723 50.5039 146.113 51.1875 146.379 51.9766C146.645 52.7578 146.777 53.6133 146.777 54.543V54.7891C146.777 55.7109 146.645 56.5664 146.379 57.3555C146.113 58.1367 145.723 58.8203 145.207 59.4062C144.699 59.9844 144.074 60.4336 143.332 60.7539C142.59 61.0742 141.738 61.2344 140.777 61.2344C139.816 61.2344 138.961 61.0742 138.211 60.7539C137.469 60.4336 136.84 59.9844 136.324 59.4062C135.816 58.8203 135.43 58.1367 135.164 57.3555C134.898 56.5664 134.766 55.7109 134.766 54.7891ZM138.141 54.543V54.7891C138.141 55.3203 138.188 55.8164 138.281 56.2773C138.375 56.7383 138.523 57.1445 138.727 57.4961C138.938 57.8398 139.211 58.1094 139.547 58.3047C139.883 58.5 140.293 58.5977 140.777 58.5977C141.246 58.5977 141.648 58.5 141.984 58.3047C142.32 58.1094 142.59 57.8398 142.793 57.4961C142.996 57.1445 143.145 56.7383 143.238 56.2773C143.34 55.8164 143.391 55.3203 143.391 54.7891V54.543C143.391 54.0273 143.34 53.543 143.238 53.0898C143.145 52.6289 142.992 52.2227 142.781 51.8711C142.578 51.5117 142.309 51.2305 141.973 51.0273C141.637 50.8242 141.23 50.7227 140.754 50.7227C140.277 50.7227 139.871 50.8242 139.535 51.0273C139.207 51.2305 138.938 51.5117 138.727 51.8711C138.523 52.2227 138.375 52.6289 138.281 53.0898C138.188 53.543 138.141 54.0273 138.141 54.543ZM152.227 51.0859V61H148.852V48.3203H152.027L152.227 51.0859ZM156.047 48.2383L155.988 51.3672C155.824 51.3438 155.625 51.3242 155.391 51.3086C155.164 51.2852 154.957 51.2734 154.77 51.2734C154.293 51.2734 153.879 51.3359 153.527 51.4609C153.184 51.5781 152.895 51.7539 152.66 51.9883C152.434 52.2227 152.262 52.5078 152.145 52.8438C152.035 53.1797 151.973 53.5625 151.957 53.9922L151.277 53.7812C151.277 52.9609 151.359 52.207 151.523 51.5195C151.688 50.8242 151.926 50.2188 152.238 49.7031C152.559 49.1875 152.949 48.7891 153.41 48.5078C153.871 48.2266 154.398 48.0859 154.992 48.0859C155.18 48.0859 155.371 48.1016 155.566 48.1328C155.762 48.1562 155.922 48.1914 156.047 48.2383ZM164.086 58.1406V52.4922C164.086 52.0859 164.02 51.7383 163.887 51.4492C163.754 51.1523 163.547 50.9219 163.266 50.7578C162.992 50.5938 162.637 50.5117 162.199 50.5117C161.824 50.5117 161.5 50.5781 161.227 50.7109C160.953 50.8359 160.742 51.0195 160.594 51.2617C160.445 51.4961 160.371 51.7734 160.371 52.0938H156.996C156.996 51.5547 157.121 51.043 157.371 50.5586C157.621 50.0742 157.984 49.6484 158.461 49.2812C158.938 48.9062 159.504 48.6133 160.16 48.4023C160.824 48.1914 161.566 48.0859 162.387 48.0859C163.371 48.0859 164.246 48.25 165.012 48.5781C165.777 48.9062 166.379 49.3984 166.816 50.0547C167.262 50.7109 167.484 51.5312 167.484 52.5156V57.9414C167.484 58.6367 167.527 59.207 167.613 59.6523C167.699 60.0898 167.824 60.4727 167.988 60.8008V61H164.578C164.414 60.6562 164.289 60.2266 164.203 59.7109C164.125 59.1875 164.086 58.6641 164.086 58.1406ZM164.531 53.2773L164.555 55.1875H162.668C162.223 55.1875 161.836 55.2383 161.508 55.3398C161.18 55.4414 160.91 55.5859 160.699 55.7734C160.488 55.9531 160.332 56.1641 160.23 56.4062C160.137 56.6484 160.09 56.9141 160.09 57.2031C160.09 57.4922 160.156 57.7539 160.289 57.9883C160.422 58.2148 160.613 58.3945 160.863 58.5273C161.113 58.6523 161.406 58.7148 161.742 58.7148C162.25 58.7148 162.691 58.6133 163.066 58.4102C163.441 58.207 163.73 57.957 163.934 57.6602C164.145 57.3633 164.254 57.082 164.262 56.8164L165.152 58.2461C165.027 58.5664 164.855 58.8984 164.637 59.2422C164.426 59.5859 164.156 59.9102 163.828 60.2148C163.5 60.5117 163.105 60.7578 162.645 60.9531C162.184 61.1406 161.637 61.2344 161.004 61.2344C160.199 61.2344 159.469 61.0742 158.812 60.7539C158.164 60.4258 157.648 59.9766 157.266 59.4062C156.891 58.8281 156.703 58.1719 156.703 57.4375C156.703 56.7734 156.828 56.1836 157.078 55.668C157.328 55.1523 157.695 54.7188 158.18 54.3672C158.672 54.0078 159.285 53.7383 160.02 53.5586C160.754 53.3711 161.605 53.2773 162.574 53.2773H164.531ZM178.113 48.3203H181.172V60.5781C181.172 61.7344 180.914 62.7148 180.398 63.5195C179.891 64.332 179.18 64.9453 178.266 65.3594C177.352 65.7812 176.289 65.9922 175.078 65.9922C174.547 65.9922 173.984 65.9219 173.391 65.7812C172.805 65.6406 172.242 65.4219 171.703 65.125C171.172 64.8281 170.727 64.4531 170.367 64L171.855 62.0078C172.246 62.4609 172.699 62.8125 173.215 63.0625C173.73 63.3203 174.301 63.4492 174.926 63.4492C175.535 63.4492 176.051 63.3359 176.473 63.1094C176.895 62.8906 177.219 62.5664 177.445 62.1367C177.672 61.7148 177.785 61.2031 177.785 60.6016V51.25L178.113 48.3203ZM169.582 54.8125V54.5664C169.582 53.5977 169.699 52.7188 169.934 51.9297C170.176 51.1328 170.516 50.4492 170.953 49.8789C171.398 49.3086 171.938 48.8672 172.57 48.5547C173.203 48.2422 173.918 48.0859 174.715 48.0859C175.559 48.0859 176.266 48.2422 176.836 48.5547C177.406 48.8672 177.875 49.3125 178.242 49.8906C178.609 50.4609 178.895 51.1367 179.098 51.918C179.309 52.6914 179.473 53.5391 179.59 54.4609V55C179.473 55.8828 179.297 56.7031 179.062 57.4609C178.828 58.2188 178.52 58.8828 178.137 59.4531C177.754 60.0156 177.277 60.4531 176.707 60.7656C176.145 61.0781 175.473 61.2344 174.691 61.2344C173.91 61.2344 173.203 61.0742 172.57 60.7539C171.945 60.4336 171.41 59.9844 170.965 59.4062C170.52 58.8281 170.176 58.1484 169.934 57.3672C169.699 56.5859 169.582 55.7344 169.582 54.8125ZM172.957 54.5664V54.8125C172.957 55.3359 173.008 55.8242 173.109 56.2773C173.211 56.7305 173.367 57.1328 173.578 57.4844C173.797 57.8281 174.066 58.0977 174.387 58.293C174.715 58.4805 175.102 58.5742 175.547 58.5742C176.164 58.5742 176.668 58.4453 177.059 58.1875C177.449 57.9219 177.742 57.5586 177.938 57.0977C178.133 56.6367 178.246 56.1055 178.277 55.5039V53.9688C178.262 53.4766 178.195 53.0352 178.078 52.6445C177.961 52.2461 177.797 51.9062 177.586 51.625C177.375 51.3438 177.102 51.125 176.766 50.9688C176.43 50.8125 176.031 50.7344 175.57 50.7344C175.125 50.7344 174.738 50.8359 174.41 51.0391C174.09 51.2344 173.82 51.5039 173.602 51.8477C173.391 52.1914 173.23 52.5977 173.121 53.0664C173.012 53.5273 172.957 54.0273 172.957 54.5664ZM189.633 61.2344C188.648 61.2344 187.766 61.0781 186.984 60.7656C186.203 60.4453 185.539 60.0039 184.992 59.4414C184.453 58.8789 184.039 58.2266 183.75 57.4844C183.461 56.7344 183.316 55.9375 183.316 55.0938V54.625C183.316 53.6641 183.453 52.7852 183.727 51.9883C184 51.1914 184.391 50.5 184.898 49.9141C185.414 49.3281 186.039 48.8789 186.773 48.5664C187.508 48.2461 188.336 48.0859 189.258 48.0859C190.156 48.0859 190.953 48.2344 191.648 48.5312C192.344 48.8281 192.926 49.25 193.395 49.7969C193.871 50.3438 194.23 51 194.473 51.7656C194.715 52.5234 194.836 53.3672 194.836 54.2969V55.7031H184.758V53.4531H191.52V53.1953C191.52 52.7266 191.434 52.3086 191.262 51.9414C191.098 51.5664 190.848 51.2695 190.512 51.0508C190.176 50.832 189.746 50.7227 189.223 50.7227C188.777 50.7227 188.395 50.8203 188.074 51.0156C187.754 51.2109 187.492 51.4844 187.289 51.8359C187.094 52.1875 186.945 52.6016 186.844 53.0781C186.75 53.5469 186.703 54.0625 186.703 54.625V55.0938C186.703 55.6016 186.773 56.0703 186.914 56.5C187.062 56.9297 187.27 57.3008 187.535 57.6133C187.809 57.9258 188.137 58.168 188.52 58.3398C188.91 58.5117 189.352 58.5977 189.844 58.5977C190.453 58.5977 191.02 58.4805 191.543 58.2461C192.074 58.0039 192.531 57.6406 192.914 57.1562L194.555 58.9375C194.289 59.3203 193.926 59.6875 193.465 60.0391C193.012 60.3906 192.465 60.6797 191.824 60.9062C191.184 61.125 190.453 61.2344 189.633 61.2344ZM209.59 54.918H205.242V52.1758H209.59C210.262 52.1758 210.809 52.0664 211.23 51.8477C211.652 51.6211 211.961 51.3086 212.156 50.9102C212.352 50.5117 212.449 50.0625 212.449 49.5625C212.449 49.0547 212.352 48.582 212.156 48.1445C211.961 47.707 211.652 47.3555 211.23 47.0898C210.809 46.8242 210.262 46.6914 209.59 46.6914H206.461V61H202.945V43.9375H209.59C210.926 43.9375 212.07 44.1797 213.023 44.6641C213.984 45.1406 214.719 45.8008 215.227 46.6445C215.734 47.4883 215.988 48.4531 215.988 49.5391C215.988 50.6406 215.734 51.5938 215.227 52.3984C214.719 53.2031 213.984 53.8242 213.023 54.2617C212.07 54.6992 210.926 54.918 209.59 54.918ZM224.906 58.1406V52.4922C224.906 52.0859 224.84 51.7383 224.707 51.4492C224.574 51.1523 224.367 50.9219 224.086 50.7578C223.812 50.5938 223.457 50.5117 223.02 50.5117C222.645 50.5117 222.32 50.5781 222.047 50.7109C221.773 50.8359 221.562 51.0195 221.414 51.2617C221.266 51.4961 221.191 51.7734 221.191 52.0938H217.816C217.816 51.5547 217.941 51.043 218.191 50.5586C218.441 50.0742 218.805 49.6484 219.281 49.2812C219.758 48.9062 220.324 48.6133 220.98 48.4023C221.645 48.1914 222.387 48.0859 223.207 48.0859C224.191 48.0859 225.066 48.25 225.832 48.5781C226.598 48.9062 227.199 49.3984 227.637 50.0547C228.082 50.7109 228.305 51.5312 228.305 52.5156V57.9414C228.305 58.6367 228.348 59.207 228.434 59.6523C228.52 60.0898 228.645 60.4727 228.809 60.8008V61H225.398C225.234 60.6562 225.109 60.2266 225.023 59.7109C224.945 59.1875 224.906 58.6641 224.906 58.1406ZM225.352 53.2773L225.375 55.1875H223.488C223.043 55.1875 222.656 55.2383 222.328 55.3398C222 55.4414 221.73 55.5859 221.52 55.7734C221.309 55.9531 221.152 56.1641 221.051 56.4062C220.957 56.6484 220.91 56.9141 220.91 57.2031C220.91 57.4922 220.977 57.7539 221.109 57.9883C221.242 58.2148 221.434 58.3945 221.684 58.5273C221.934 58.6523 222.227 58.7148 222.562 58.7148C223.07 58.7148 223.512 58.6133 223.887 58.4102C224.262 58.207 224.551 57.957 224.754 57.6602C224.965 57.3633 225.074 57.082 225.082 56.8164L225.973 58.2461C225.848 58.5664 225.676 58.8984 225.457 59.2422C225.246 59.5859 224.977 59.9102 224.648 60.2148C224.32 60.5117 223.926 60.7578 223.465 60.9531C223.004 61.1406 222.457 61.2344 221.824 61.2344C221.02 61.2344 220.289 61.0742 219.633 60.7539C218.984 60.4258 218.469 59.9766 218.086 59.4062C217.711 58.8281 217.523 58.1719 217.523 57.4375C217.523 56.7734 217.648 56.1836 217.898 55.668C218.148 55.1523 218.516 54.7188 219 54.3672C219.492 54.0078 220.105 53.7383 220.84 53.5586C221.574 53.3711 222.426 53.2773 223.395 53.2773H225.352ZM234.281 51.0859V61H230.906V48.3203H234.082L234.281 51.0859ZM238.102 48.2383L238.043 51.3672C237.879 51.3438 237.68 51.3242 237.445 51.3086C237.219 51.2852 237.012 51.2734 236.824 51.2734C236.348 51.2734 235.934 51.3359 235.582 51.4609C235.238 51.5781 234.949 51.7539 234.715 51.9883C234.488 52.2227 234.316 52.5078 234.199 52.8438C234.09 53.1797 234.027 53.5625 234.012 53.9922L233.332 53.7812C233.332 52.9609 233.414 52.207 233.578 51.5195C233.742 50.8242 233.98 50.2188 234.293 49.7031C234.613 49.1875 235.004 48.7891 235.465 48.5078C235.926 48.2266 236.453 48.0859 237.047 48.0859C237.234 48.0859 237.426 48.1016 237.621 48.1328C237.816 48.1562 237.977 48.1914 238.102 48.2383ZM243.07 42.9883V61H239.695V42.9883H243.07ZM251.062 48.3203L245.555 54.6016L242.602 57.5898L241.371 55.1523L243.715 52.1758L247.008 48.3203H251.062ZM247.559 61L243.809 55.1406L246.141 53.1016L251.449 61H247.559Z" fill="#888888"/>
<path d="M118.594 98.4219V104.75H101.086V98.4219H118.594ZM103.828 84.875V119H95.6016V84.875H103.828ZM124.125 84.875V119H115.922V84.875H124.125ZM127.992 106.578V106.086C127.992 104.227 128.258 102.516 128.789 100.953C129.32 99.375 130.102 98.0078 131.133 96.8516C132.164 95.6953 133.438 94.7969 134.953 94.1562C136.469 93.5 138.219 93.1719 140.203 93.1719C142.203 93.1719 143.961 93.5 145.477 94.1562C147.008 94.7969 148.289 95.6953 149.32 96.8516C150.352 98.0078 151.133 99.375 151.664 100.953C152.195 102.516 152.461 104.227 152.461 106.086V106.578C152.461 108.422 152.195 110.133 151.664 111.711C151.133 113.273 150.352 114.641 149.32 115.812C148.289 116.969 147.016 117.867 145.5 118.508C143.984 119.148 142.234 119.469 140.25 119.469C138.266 119.469 136.508 119.148 134.977 118.508C133.445 117.867 132.164 116.969 131.133 115.812C130.102 114.641 129.32 113.273 128.789 111.711C128.258 110.133 127.992 108.422 127.992 106.578ZM135.891 106.086V106.578C135.891 107.531 135.961 108.422 136.102 109.25C136.242 110.078 136.477 110.805 136.805 111.43C137.133 112.039 137.578 112.516 138.141 112.859C138.703 113.203 139.406 113.375 140.25 113.375C141.078 113.375 141.766 113.203 142.312 112.859C142.875 112.516 143.32 112.039 143.648 111.43C143.977 110.805 144.211 110.078 144.352 109.25C144.492 108.422 144.562 107.531 144.562 106.578V106.086C144.562 105.164 144.492 104.297 144.352 103.484C144.211 102.656 143.977 101.93 143.648 101.305C143.32 100.664 142.875 100.164 142.312 99.8047C141.75 99.4453 141.047 99.2656 140.203 99.2656C139.375 99.2656 138.68 99.4453 138.117 99.8047C137.57 100.164 137.133 100.664 136.805 101.305C136.477 101.93 136.242 102.656 136.102 103.484C135.961 104.297 135.891 105.164 135.891 106.086ZM163.688 111.453L168.375 93.6406H173.32L171.562 102.57L166.922 119H162.961L163.688 111.453ZM161.836 93.6406L164.742 111.312L165.07 119H160.266L154.266 93.6406H161.836ZM177.492 110.938L180.422 93.6406H187.992L182.039 119H177.234L177.492 110.938ZM173.883 93.6406L178.617 111.406L179.344 119H175.336L170.789 102.617L169.102 93.6406H173.883ZM218.297 84.875V119H210.07V84.875H218.297ZM228.562 84.875V91.2266H200.039V84.875H228.562ZM225.773 106.578V106.086C225.773 104.227 226.039 102.516 226.57 100.953C227.102 99.375 227.883 98.0078 228.914 96.8516C229.945 95.6953 231.219 94.7969 232.734 94.1562C234.25 93.5 236 93.1719 237.984 93.1719C239.984 93.1719 241.742 93.5 243.258 94.1562C244.789 94.7969 246.07 95.6953 247.102 96.8516C248.133 98.0078 248.914 99.375 249.445 100.953C249.977 102.516 250.242 104.227 250.242 106.086V106.578C250.242 108.422 249.977 110.133 249.445 111.711C248.914 113.273 248.133 114.641 247.102 115.812C246.07 116.969 244.797 117.867 243.281 118.508C241.766 119.148 240.016 119.469 238.031 119.469C236.047 119.469 234.289 119.148 232.758 118.508C231.227 117.867 229.945 116.969 228.914 115.812C227.883 114.641 227.102 113.273 226.57 111.711C226.039 110.133 225.773 108.422 225.773 106.578ZM233.672 106.086V106.578C233.672 107.531 233.742 108.422 233.883 109.25C234.023 110.078 234.258 110.805 234.586 111.43C234.914 112.039 235.359 112.516 235.922 112.859C236.484 113.203 237.188 113.375 238.031 113.375C238.859 113.375 239.547 113.203 240.094 112.859C240.656 112.516 241.102 112.039 241.43 111.43C241.758 110.805 241.992 110.078 242.133 109.25C242.273 108.422 242.344 107.531 242.344 106.578V106.086C242.344 105.164 242.273 104.297 242.133 103.484C241.992 102.656 241.758 101.93 241.43 101.305C241.102 100.664 240.656 100.164 240.094 99.8047C239.531 99.4453 238.828 99.2656 237.984 99.2656C237.156 99.2656 236.461 99.4453 235.898 99.8047C235.352 100.164 234.914 100.664 234.586 101.305C234.258 101.93 234.023 102.656 233.883 103.484C233.742 104.297 233.672 105.164 233.672 106.086ZM266.086 84.875H279.516C282.141 84.875 284.422 85.2656 286.359 86.0469C288.297 86.8281 289.789 87.9844 290.836 89.5156C291.898 91.0469 292.43 92.9375 292.43 95.1875C292.43 97.1406 292.125 98.7734 291.516 100.086C290.906 101.398 290.055 102.484 288.961 103.344C287.883 104.188 286.625 104.883 285.188 105.43L282.492 106.953H271.219L271.172 100.602H279.516C280.562 100.602 281.43 100.414 282.117 100.039C282.805 99.6641 283.32 99.1328 283.664 98.4453C284.023 97.7422 284.203 96.9062 284.203 95.9375C284.203 94.9531 284.023 94.1094 283.664 93.4062C283.305 92.7031 282.773 92.1641 282.07 91.7891C281.383 91.4141 280.531 91.2266 279.516 91.2266H274.312V119H266.086V84.875ZM284.766 119L277.219 103.906L285.938 103.859L293.578 118.648V119H284.766ZM311.836 112.836V93.6406H319.758V119H312.352L311.836 112.836ZM312.586 107.68L314.648 107.633C314.648 109.336 314.445 110.914 314.039 112.367C313.633 113.805 313.031 115.055 312.234 116.117C311.453 117.18 310.484 118.008 309.328 118.602C308.188 119.18 306.867 119.469 305.367 119.469C304.117 119.469 302.969 119.297 301.922 118.953C300.891 118.594 300 118.039 299.25 117.289C298.5 116.523 297.914 115.547 297.492 114.359C297.086 113.156 296.883 111.719 296.883 110.047V93.6406H304.781V110.094C304.781 110.656 304.852 111.141 304.992 111.547C305.133 111.953 305.336 112.297 305.602 112.578C305.867 112.844 306.195 113.047 306.586 113.188C306.992 113.312 307.453 113.375 307.969 113.375C309.156 113.375 310.086 113.125 310.758 112.625C311.43 112.125 311.898 111.445 312.164 110.586C312.445 109.727 312.586 108.758 312.586 107.68ZM331.875 99.0547V119H323.977V93.6406H331.383L331.875 99.0547ZM330.938 105.453L329.086 105.5C329.086 103.562 329.32 101.836 329.789 100.32C330.258 98.7891 330.922 97.4922 331.781 96.4297C332.641 95.3672 333.664 94.5625 334.852 94.0156C336.055 93.4531 337.391 93.1719 338.859 93.1719C340.031 93.1719 341.102 93.3438 342.07 93.6875C343.055 94.0312 343.898 94.5859 344.602 95.3516C345.32 96.1172 345.867 97.1328 346.242 98.3984C346.633 99.6484 346.828 101.195 346.828 103.039V119H338.883V103.016C338.883 102 338.742 101.227 338.461 100.695C338.18 100.148 337.773 99.7734 337.242 99.5703C336.711 99.3672 336.062 99.2656 335.297 99.2656C334.484 99.2656 333.797 99.4219 333.234 99.7344C332.672 100.047 332.219 100.484 331.875 101.047C331.547 101.594 331.305 102.242 331.148 102.992C331.008 103.742 330.938 104.562 330.938 105.453ZM363.773 108.195H357.047C357.047 106.82 357.141 105.609 357.328 104.562C357.531 103.5 357.875 102.547 358.359 101.703C358.844 100.859 359.5 100.078 360.328 99.3594C361.062 98.75 361.695 98.1641 362.227 97.6016C362.758 97.0391 363.164 96.4688 363.445 95.8906C363.727 95.3125 363.867 94.6953 363.867 94.0391C363.867 93.2266 363.75 92.5625 363.516 92.0469C363.297 91.5312 362.961 91.1484 362.508 90.8984C362.07 90.6328 361.516 90.5 360.844 90.5C360.297 90.5 359.781 90.6328 359.297 90.8984C358.828 91.1641 358.445 91.5781 358.148 92.1406C357.852 92.6875 357.688 93.4141 357.656 94.3203H349.711C349.758 91.9922 350.273 90.1016 351.258 88.6484C352.258 87.1797 353.586 86.1094 355.242 85.4375C356.914 84.75 358.781 84.4062 360.844 84.4062C363.125 84.4062 365.086 84.7578 366.727 85.4609C368.367 86.1641 369.625 87.2109 370.5 88.6016C371.375 89.9766 371.812 91.6719 371.812 93.6875C371.812 95.0312 371.555 96.2031 371.039 97.2031C370.539 98.1875 369.859 99.1094 369 99.9688C368.156 100.812 367.211 101.719 366.164 102.688C365.258 103.484 364.641 104.297 364.312 105.125C363.984 105.938 363.805 106.961 363.773 108.195ZM356.086 115.32C356.086 114.195 356.492 113.258 357.305 112.508C358.117 111.742 359.172 111.359 360.469 111.359C361.766 111.359 362.82 111.742 363.633 112.508C364.445 113.258 364.852 114.195 364.852 115.32C364.852 116.445 364.445 117.391 363.633 118.156C362.82 118.906 361.766 119.281 360.469 119.281C359.172 119.281 358.117 118.906 357.305 118.156C356.492 117.391 356.086 116.445 356.086 115.32Z" fill="#1D2126"/>
<path d="M1134 0H1348C1356.28 0 1363 6.71573 1363 15V148C1363 156.284 1356.28 163 1348 163H1134V0Z" fill="#FF8B13"/>
<path d="M1260.62 78.8078C1263.81 78.8078 1266.93 79.7552 1269.59 81.5302C1272.25 83.3052 1274.32 85.8281 1275.54 88.7798C1276.76 91.7315 1277.08 94.9795 1276.46 98.1131C1275.84 101.247 1274.3 104.125 1272.04 106.384C1269.78 108.643 1266.9 110.182 1263.77 110.805C1260.63 111.428 1257.39 111.108 1254.43 109.886C1251.48 108.663 1248.96 106.593 1247.18 103.936C1245.41 101.28 1244.46 98.1565 1244.46 94.9616C1244.46 90.6774 1246.16 86.5686 1249.19 83.5392C1252.22 80.5097 1256.33 78.8078 1260.62 78.8078ZM1260.62 73.4232C1256.36 73.4232 1252.19 74.6864 1248.65 77.0531C1245.11 79.4198 1242.35 82.7836 1240.72 86.7192C1239.09 90.6549 1238.66 94.9855 1239.49 99.1636C1240.32 103.342 1242.37 107.179 1245.39 110.192C1248.4 113.204 1252.24 115.255 1256.41 116.086C1260.59 116.917 1264.92 116.491 1268.86 114.861C1272.79 113.23 1276.16 110.47 1278.52 106.928C1280.89 103.386 1282.15 99.2215 1282.15 94.9616C1282.15 89.2493 1279.88 83.7709 1275.85 79.7317C1271.81 75.6924 1266.33 73.4232 1260.62 73.4232Z" fill="white"/>
<path d="M1274.08 46.4999H1220.23C1218.8 46.4999 1217.43 47.0672 1216.42 48.0771C1215.41 49.0869 1214.85 50.4565 1214.85 51.8845V105.731C1214.85 107.159 1215.41 108.528 1216.42 109.538C1217.43 110.548 1218.8 111.115 1220.23 111.115H1231V105.731H1220.23V68.0383H1279.46V51.8845C1279.46 50.4565 1278.89 49.0869 1277.88 48.0771C1276.87 47.0672 1275.5 46.4999 1274.08 46.4999ZM1220.23 62.6537V51.8845H1274.08V62.6537H1220.23Z" fill="white"/>
<path d="M1255.23 86.8848V103.039L1268.69 94.9617L1255.23 86.8848Z" fill="white"/>
</svg>
