<svg width="1363" height="163" viewBox="0 0 1363 163" fill="none" xmlns="http://www.w3.org/2000/svg">
<g clip-path="url(#clip0_8_10)">
<path d="M0 15C0 6.71573 6.71573 0 15 0H37V163H15C6.71573 163 0 156.284 0 148V15Z" fill="#1D2126"/>
<path d="M1134 0H37V163H1134V0Z" fill="#F0F0F0"/>
<path d="M109.219 107.422H100.734V101.07H109.219C110.375 101.07 111.312 100.875 112.031 100.484C112.75 100.094 113.273 99.5547 113.602 98.8672C113.945 98.1641 114.117 97.375 114.117 96.5C114.117 95.5625 113.945 94.6953 113.602 93.8984C113.273 93.1016 112.75 92.4609 112.031 91.9766C111.312 91.4766 110.375 91.2266 109.219 91.2266H103.828V119H95.6016V84.875H109.219C111.953 84.875 114.305 85.375 116.273 86.375C118.258 87.375 119.781 88.75 120.844 90.5C121.906 92.2344 122.438 94.2188 122.438 96.4531C122.438 98.6562 121.906 100.578 120.844 102.219C119.781 103.859 118.258 105.141 116.273 106.062C114.305 106.969 111.953 107.422 109.219 107.422ZM138.445 119.469C136.383 119.469 134.539 119.148 132.914 118.508C131.289 117.852 129.914 116.953 128.789 115.812C127.68 114.672 126.828 113.359 126.234 111.875C125.656 110.391 125.367 108.82 125.367 107.164V106.273C125.367 104.414 125.625 102.695 126.141 101.117C126.656 99.5234 127.422 98.1328 128.438 96.9453C129.453 95.7578 130.727 94.8359 132.258 94.1797C133.789 93.5078 135.57 93.1719 137.602 93.1719C139.398 93.1719 141.008 93.4609 142.43 94.0391C143.852 94.6172 145.055 95.4453 146.039 96.5234C147.039 97.6016 147.797 98.9062 148.312 100.438C148.844 101.969 149.109 103.688 149.109 105.594V108.805H128.391V103.859H141.398V103.25C141.414 102.406 141.266 101.688 140.953 101.094C140.656 100.5 140.219 100.047 139.641 99.7344C139.062 99.4219 138.359 99.2656 137.531 99.2656C136.672 99.2656 135.961 99.4531 135.398 99.8281C134.852 100.203 134.422 100.719 134.109 101.375C133.812 102.016 133.602 102.758 133.477 103.602C133.352 104.445 133.289 105.336 133.289 106.273V107.164C133.289 108.102 133.414 108.953 133.664 109.719C133.93 110.484 134.305 111.141 134.789 111.688C135.289 112.219 135.883 112.633 136.57 112.93C137.273 113.227 138.07 113.375 138.961 113.375C140.039 113.375 141.102 113.172 142.148 112.766C143.195 112.359 144.094 111.688 144.844 110.75L148.43 115.016C147.914 115.75 147.18 116.461 146.227 117.148C145.289 117.836 144.164 118.398 142.852 118.836C141.539 119.258 140.07 119.469 138.445 119.469ZM160.289 99.9219V119H152.391V93.6406H159.773L160.289 99.9219ZM167.789 93.4531L167.648 100.789C167.336 100.758 166.914 100.719 166.383 100.672C165.852 100.625 165.406 100.602 165.047 100.602C164.125 100.602 163.328 100.711 162.656 100.93C162 101.133 161.453 101.445 161.016 101.867C160.594 102.273 160.281 102.789 160.078 103.414C159.891 104.039 159.805 104.766 159.82 105.594L158.391 104.656C158.391 102.953 158.555 101.406 158.883 100.016C159.227 98.6094 159.711 97.3984 160.336 96.3828C160.961 95.3516 161.719 94.5625 162.609 94.0156C163.5 93.4531 164.5 93.1719 165.609 93.1719C166 93.1719 166.383 93.1953 166.758 93.2422C167.148 93.2891 167.492 93.3594 167.789 93.4531ZM180.703 119H172.758V91.5781C172.758 89.6094 173.156 87.9531 173.953 86.6094C174.75 85.2656 175.875 84.25 177.328 83.5625C178.781 82.8594 180.5 82.5078 182.484 82.5078C183.172 82.5078 183.82 82.5547 184.43 82.6484C185.039 82.7422 185.633 82.8594 186.211 83L186.234 88.8125C185.953 88.7344 185.664 88.6797 185.367 88.6484C185.07 88.6172 184.703 88.6016 184.266 88.6016C183.5 88.6016 182.852 88.7188 182.32 88.9531C181.789 89.1719 181.383 89.5078 181.102 89.9609C180.836 90.3984 180.703 90.9375 180.703 91.5781V119ZM185.625 93.6406V99.125H169.102V93.6406H185.625ZM187.477 106.578V106.086C187.477 104.227 187.742 102.516 188.273 100.953C188.805 99.375 189.586 98.0078 190.617 96.8516C191.648 95.6953 192.922 94.7969 194.438 94.1562C195.953 93.5 197.703 93.1719 199.688 93.1719C201.688 93.1719 203.445 93.5 204.961 94.1562C206.492 94.7969 207.773 95.6953 208.805 96.8516C209.836 98.0078 210.617 99.375 211.148 100.953C211.68 102.516 211.945 104.227 211.945 106.086V106.578C211.945 108.422 211.68 110.133 211.148 111.711C210.617 113.273 209.836 114.641 208.805 115.812C207.773 116.969 206.5 117.867 204.984 118.508C203.469 119.148 201.719 119.469 199.734 119.469C197.75 119.469 195.992 119.148 194.461 118.508C192.93 117.867 191.648 116.969 190.617 115.812C189.586 114.641 188.805 113.273 188.273 111.711C187.742 110.133 187.477 108.422 187.477 106.578ZM195.375 106.086V106.578C195.375 107.531 195.445 108.422 195.586 109.25C195.727 110.078 195.961 110.805 196.289 111.43C196.617 112.039 197.062 112.516 197.625 112.859C198.188 113.203 198.891 113.375 199.734 113.375C200.562 113.375 201.25 113.203 201.797 112.859C202.359 112.516 202.805 112.039 203.133 111.43C203.461 110.805 203.695 110.078 203.836 109.25C203.977 108.422 204.047 107.531 204.047 106.578V106.086C204.047 105.164 203.977 104.297 203.836 103.484C203.695 102.656 203.461 101.93 203.133 101.305C202.805 100.664 202.359 100.164 201.797 99.8047C201.234 99.4453 200.531 99.2656 199.688 99.2656C198.859 99.2656 198.164 99.4453 197.602 99.8047C197.055 100.164 196.617 100.664 196.289 101.305C195.961 101.93 195.727 102.656 195.586 103.484C195.445 104.297 195.375 105.164 195.375 106.086ZM223.43 99.9219V119H215.531V93.6406H222.914L223.43 99.9219ZM230.93 93.4531L230.789 100.789C230.477 100.758 230.055 100.719 229.523 100.672C228.992 100.625 228.547 100.602 228.188 100.602C227.266 100.602 226.469 100.711 225.797 100.93C225.141 101.133 224.594 101.445 224.156 101.867C223.734 102.273 223.422 102.789 223.219 103.414C223.031 104.039 222.945 104.766 222.961 105.594L221.531 104.656C221.531 102.953 221.695 101.406 222.023 100.016C222.367 98.6094 222.852 97.3984 223.477 96.3828C224.102 95.3516 224.859 94.5625 225.75 94.0156C226.641 93.4531 227.641 93.1719 228.75 93.1719C229.141 93.1719 229.523 93.1953 229.898 93.2422C230.289 93.2891 230.633 93.3594 230.93 93.4531ZM241.617 99.0078V119H233.719V93.6406H241.125L241.617 99.0078ZM240.656 105.453L238.852 105.5C238.852 103.719 239.062 102.078 239.484 100.578C239.906 99.0781 240.531 97.7734 241.359 96.6641C242.188 95.5547 243.203 94.6953 244.406 94.0859C245.625 93.4766 247.031 93.1719 248.625 93.1719C249.734 93.1719 250.742 93.3438 251.648 93.6875C252.555 94.0156 253.336 94.5391 253.992 95.2578C254.648 95.9609 255.148 96.8828 255.492 98.0234C255.852 99.1484 256.031 100.5 256.031 102.078V119H248.133V103.086C248.133 102.008 248.008 101.195 247.758 100.648C247.523 100.102 247.18 99.7344 246.727 99.5469C246.273 99.3594 245.719 99.2656 245.062 99.2656C244.375 99.2656 243.758 99.4219 243.211 99.7344C242.664 100.047 242.195 100.484 241.805 101.047C241.43 101.594 241.141 102.242 240.938 102.992C240.75 103.742 240.656 104.562 240.656 105.453ZM255.141 105.453L252.938 105.5C252.938 103.719 253.133 102.078 253.523 100.578C253.93 99.0781 254.531 97.7734 255.328 96.6641C256.141 95.5547 257.148 94.6953 258.352 94.0859C259.555 93.4766 260.953 93.1719 262.547 93.1719C263.703 93.1719 264.766 93.3438 265.734 93.6875C266.703 94.0312 267.539 94.5859 268.242 95.3516C268.945 96.1172 269.492 97.1328 269.883 98.3984C270.273 99.6484 270.469 101.195 270.469 103.039V119H262.547V103.039C262.547 101.992 262.422 101.203 262.172 100.672C261.938 100.125 261.594 99.7578 261.141 99.5703C260.688 99.3672 260.148 99.2656 259.523 99.2656C258.773 99.2656 258.125 99.4219 257.578 99.7344C257.031 100.047 256.57 100.484 256.195 101.047C255.836 101.594 255.57 102.242 255.398 102.992C255.227 103.742 255.141 104.562 255.141 105.453ZM288.164 112.625V102.172C288.164 101.453 288.062 100.836 287.859 100.32C287.656 99.8047 287.336 99.4062 286.898 99.125C286.461 98.8281 285.875 98.6797 285.141 98.6797C284.547 98.6797 284.039 98.7812 283.617 98.9844C283.195 99.1875 282.875 99.4922 282.656 99.8984C282.438 100.305 282.328 100.82 282.328 101.445H274.43C274.43 100.273 274.688 99.1875 275.203 98.1875C275.734 97.1719 276.484 96.2891 277.453 95.5391C278.438 94.7891 279.609 94.2109 280.969 93.8047C282.344 93.3828 283.875 93.1719 285.562 93.1719C287.578 93.1719 289.375 93.5078 290.953 94.1797C292.547 94.8516 293.805 95.8594 294.727 97.2031C295.648 98.5312 296.109 100.203 296.109 102.219V112.602C296.109 114.258 296.203 115.516 296.391 116.375C296.578 117.219 296.844 117.961 297.188 118.602V119H289.266C288.891 118.219 288.609 117.266 288.422 116.141C288.25 115 288.164 113.828 288.164 112.625ZM289.125 103.508L289.172 107.727H285.68C284.945 107.727 284.32 107.828 283.805 108.031C283.305 108.234 282.898 108.516 282.586 108.875C282.289 109.219 282.07 109.609 281.93 110.047C281.805 110.484 281.742 110.945 281.742 111.43C281.742 111.898 281.852 112.32 282.07 112.695C282.305 113.055 282.617 113.336 283.008 113.539C283.398 113.742 283.836 113.844 284.32 113.844C285.195 113.844 285.938 113.68 286.547 113.352C287.172 113.008 287.648 112.594 287.977 112.109C288.305 111.625 288.469 111.172 288.469 110.75L290.203 113.984C289.891 114.609 289.531 115.242 289.125 115.883C288.734 116.523 288.242 117.117 287.648 117.664C287.07 118.195 286.359 118.633 285.516 118.977C284.672 119.305 283.648 119.469 282.445 119.469C280.883 119.469 279.445 119.148 278.133 118.508C276.836 117.867 275.797 116.977 275.016 115.836C274.234 114.68 273.844 113.352 273.844 111.852C273.844 110.539 274.078 109.367 274.547 108.336C275.031 107.305 275.758 106.43 276.727 105.711C277.695 104.992 278.93 104.445 280.43 104.07C281.93 103.695 283.695 103.508 285.727 103.508H289.125ZM308.25 99.0547V119H300.352V93.6406H307.758L308.25 99.0547ZM307.312 105.453L305.461 105.5C305.461 103.562 305.695 101.836 306.164 100.32C306.633 98.7891 307.297 97.4922 308.156 96.4297C309.016 95.3672 310.039 94.5625 311.227 94.0156C312.43 93.4531 313.766 93.1719 315.234 93.1719C316.406 93.1719 317.477 93.3438 318.445 93.6875C319.43 94.0312 320.273 94.5859 320.977 95.3516C321.695 96.1172 322.242 97.1328 322.617 98.3984C323.008 99.6484 323.203 101.195 323.203 103.039V119H315.258V103.016C315.258 102 315.117 101.227 314.836 100.695C314.555 100.148 314.148 99.7734 313.617 99.5703C313.086 99.3672 312.438 99.2656 311.672 99.2656C310.859 99.2656 310.172 99.4219 309.609 99.7344C309.047 100.047 308.594 100.484 308.25 101.047C307.922 101.594 307.68 102.242 307.523 102.992C307.383 103.742 307.312 104.562 307.312 105.453ZM338.297 113.375C339.031 113.375 339.656 113.242 340.172 112.977C340.703 112.695 341.102 112.305 341.367 111.805C341.648 111.289 341.781 110.672 341.766 109.953H349.195C349.211 111.859 348.742 113.531 347.789 114.969C346.852 116.391 345.57 117.5 343.945 118.297C342.336 119.078 340.516 119.469 338.484 119.469C336.5 119.469 334.766 119.148 333.281 118.508C331.797 117.852 330.555 116.945 329.555 115.789C328.57 114.617 327.828 113.25 327.328 111.688C326.844 110.125 326.602 108.43 326.602 106.602V106.062C326.602 104.234 326.844 102.539 327.328 100.977C327.828 99.3984 328.57 98.0312 329.555 96.875C330.555 95.7031 331.789 94.7969 333.258 94.1562C334.742 93.5 336.469 93.1719 338.438 93.1719C340.547 93.1719 342.406 93.5703 344.016 94.3672C345.641 95.1641 346.914 96.3203 347.836 97.8359C348.758 99.3516 349.211 101.188 349.195 103.344H341.766C341.781 102.578 341.664 101.891 341.414 101.281C341.164 100.672 340.773 100.188 340.242 99.8281C339.727 99.4531 339.062 99.2656 338.25 99.2656C337.438 99.2656 336.781 99.4453 336.281 99.8047C335.781 100.164 335.398 100.664 335.133 101.305C334.883 101.93 334.711 102.648 334.617 103.461C334.539 104.273 334.5 105.141 334.5 106.062V106.602C334.5 107.539 334.539 108.422 334.617 109.25C334.711 110.062 334.891 110.781 335.156 111.406C335.422 112.016 335.805 112.5 336.305 112.859C336.805 113.203 337.469 113.375 338.297 113.375ZM364.852 119.469C362.789 119.469 360.945 119.148 359.32 118.508C357.695 117.852 356.32 116.953 355.195 115.812C354.086 114.672 353.234 113.359 352.641 111.875C352.062 110.391 351.773 108.82 351.773 107.164V106.273C351.773 104.414 352.031 102.695 352.547 101.117C353.062 99.5234 353.828 98.1328 354.844 96.9453C355.859 95.7578 357.133 94.8359 358.664 94.1797C360.195 93.5078 361.977 93.1719 364.008 93.1719C365.805 93.1719 367.414 93.4609 368.836 94.0391C370.258 94.6172 371.461 95.4453 372.445 96.5234C373.445 97.6016 374.203 98.9062 374.719 100.438C375.25 101.969 375.516 103.688 375.516 105.594V108.805H354.797V103.859H367.805V103.25C367.82 102.406 367.672 101.688 367.359 101.094C367.062 100.5 366.625 100.047 366.047 99.7344C365.469 99.4219 364.766 99.2656 363.938 99.2656C363.078 99.2656 362.367 99.4531 361.805 99.8281C361.258 100.203 360.828 100.719 360.516 101.375C360.219 102.016 360.008 102.758 359.883 103.602C359.758 104.445 359.695 105.336 359.695 106.273V107.164C359.695 108.102 359.82 108.953 360.07 109.719C360.336 110.484 360.711 111.141 361.195 111.688C361.695 112.219 362.289 112.633 362.977 112.93C363.68 113.227 364.477 113.375 365.367 113.375C366.445 113.375 367.508 113.172 368.555 112.766C369.602 112.359 370.5 111.688 371.25 110.75L374.836 115.016C374.32 115.75 373.586 116.461 372.633 117.148C371.695 117.836 370.57 118.398 369.258 118.836C367.945 119.258 366.477 119.469 364.852 119.469Z" fill="#1D2126"/>
<path d="M1134 0H1348C1356.28 0 1363 6.71573 1363 15V148C1363 156.284 1356.28 163 1348 163H1134V0Z" fill="#FF8B13"/>
<path d="M1266.42 70.75L1255.51 87.1123C1253.98 89.4016 1250.55 89.1881 1249.32 86.7272L1247.68 83.4395C1246.45 80.9786 1243.02 80.7651 1241.49 83.0544L1230.58 99.4167" stroke="white" stroke-width="7.16667" stroke-linecap="round" stroke-linejoin="round"/>
<path d="M1273.58 49.25H1223.42C1219.46 49.25 1216.25 52.4586 1216.25 56.4167V106.583C1216.25 110.541 1219.46 113.75 1223.42 113.75H1273.58C1277.54 113.75 1280.75 110.541 1280.75 106.583V56.4167C1280.75 52.4586 1277.54 49.25 1273.58 49.25Z" stroke="white" stroke-width="7.16667"/>
<path d="M101.906 53.9219L94.3945 51.2383V48.0859L104.602 52.375V54.6367L101.906 53.9219ZM94.3945 56.1719L101.918 53.4297L104.602 52.7852V55.0352L94.3945 59.3242V56.1719ZM121.781 56.5352C121.781 56.2305 121.734 55.957 121.641 55.7148C121.555 55.4648 121.391 55.2383 121.148 55.0352C120.906 54.8242 120.566 54.6172 120.129 54.4141C119.691 54.2109 119.125 54 118.43 53.7812C117.656 53.5312 116.922 53.25 116.227 52.9375C115.539 52.625 114.93 52.2617 114.398 51.8477C113.875 51.4258 113.461 50.9375 113.156 50.3828C112.859 49.8281 112.711 49.1836 112.711 48.4492C112.711 47.7383 112.867 47.0938 113.18 46.5156C113.492 45.9297 113.93 45.4297 114.492 45.0156C115.055 44.5938 115.719 44.2695 116.484 44.043C117.258 43.8164 118.105 43.7031 119.027 43.7031C120.285 43.7031 121.383 43.9297 122.32 44.3828C123.258 44.8359 123.984 45.457 124.5 46.2461C125.023 47.0352 125.285 47.9375 125.285 48.9531H121.793C121.793 48.4531 121.688 48.0156 121.477 47.6406C121.273 47.2578 120.961 46.957 120.539 46.7383C120.125 46.5195 119.602 46.4102 118.969 46.4102C118.359 46.4102 117.852 46.5039 117.445 46.6914C117.039 46.8711 116.734 47.1172 116.531 47.4297C116.328 47.7344 116.227 48.0781 116.227 48.4609C116.227 48.75 116.297 49.0117 116.438 49.2461C116.586 49.4805 116.805 49.6992 117.094 49.9023C117.383 50.1055 117.738 50.2969 118.16 50.4766C118.582 50.6562 119.07 50.832 119.625 51.0039C120.555 51.2852 121.371 51.6016 122.074 51.9531C122.785 52.3047 123.379 52.6992 123.855 53.1367C124.332 53.5742 124.691 54.0703 124.934 54.625C125.176 55.1797 125.297 55.8086 125.297 56.5117C125.297 57.2539 125.152 57.918 124.863 58.5039C124.574 59.0898 124.156 59.5859 123.609 59.9922C123.062 60.3984 122.41 60.707 121.652 60.918C120.895 61.1289 120.047 61.2344 119.109 61.2344C118.266 61.2344 117.434 61.125 116.613 60.9062C115.793 60.6797 115.047 60.3398 114.375 59.8867C113.711 59.4336 113.18 58.8555 112.781 58.1523C112.383 57.4492 112.184 56.6172 112.184 55.6562H115.711C115.711 56.1875 115.793 56.6367 115.957 57.0039C116.121 57.3711 116.352 57.668 116.648 57.8945C116.953 58.1211 117.312 58.2852 117.727 58.3867C118.148 58.4883 118.609 58.5391 119.109 58.5391C119.719 58.5391 120.219 58.4531 120.609 58.2812C121.008 58.1094 121.301 57.8711 121.488 57.5664C121.684 57.2617 121.781 56.918 121.781 56.5352ZM133.688 48.3203V50.7109H126.305V48.3203H133.688ZM128.133 45.1914H131.508V57.1797C131.508 57.5469 131.555 57.8281 131.648 58.0234C131.75 58.2188 131.898 58.3555 132.094 58.4336C132.289 58.5039 132.535 58.5391 132.832 58.5391C133.043 58.5391 133.23 58.5312 133.395 58.5156C133.566 58.4922 133.711 58.4688 133.828 58.4453L133.84 60.9297C133.551 61.0234 133.238 61.0977 132.902 61.1523C132.566 61.207 132.195 61.2344 131.789 61.2344C131.047 61.2344 130.398 61.1133 129.844 60.8711C129.297 60.6211 128.875 60.2227 128.578 59.6758C128.281 59.1289 128.133 58.4102 128.133 57.5195V45.1914ZM134.766 54.7891V54.543C134.766 53.6133 134.898 52.7578 135.164 51.9766C135.43 51.1875 135.816 50.5039 136.324 49.9258C136.832 49.3477 137.457 48.8984 138.199 48.5781C138.941 48.25 139.793 48.0859 140.754 48.0859C141.715 48.0859 142.57 48.25 143.32 48.5781C144.07 48.8984 144.699 49.3477 145.207 49.9258C145.723 50.5039 146.113 51.1875 146.379 51.9766C146.645 52.7578 146.777 53.6133 146.777 54.543V54.7891C146.777 55.7109 146.645 56.5664 146.379 57.3555C146.113 58.1367 145.723 58.8203 145.207 59.4062C144.699 59.9844 144.074 60.4336 143.332 60.7539C142.59 61.0742 141.738 61.2344 140.777 61.2344C139.816 61.2344 138.961 61.0742 138.211 60.7539C137.469 60.4336 136.84 59.9844 136.324 59.4062C135.816 58.8203 135.43 58.1367 135.164 57.3555C134.898 56.5664 134.766 55.7109 134.766 54.7891ZM138.141 54.543V54.7891C138.141 55.3203 138.188 55.8164 138.281 56.2773C138.375 56.7383 138.523 57.1445 138.727 57.4961C138.938 57.8398 139.211 58.1094 139.547 58.3047C139.883 58.5 140.293 58.5977 140.777 58.5977C141.246 58.5977 141.648 58.5 141.984 58.3047C142.32 58.1094 142.59 57.8398 142.793 57.4961C142.996 57.1445 143.145 56.7383 143.238 56.2773C143.34 55.8164 143.391 55.3203 143.391 54.7891V54.543C143.391 54.0273 143.34 53.543 143.238 53.0898C143.145 52.6289 142.992 52.2227 142.781 51.8711C142.578 51.5117 142.309 51.2305 141.973 51.0273C141.637 50.8242 141.23 50.7227 140.754 50.7227C140.277 50.7227 139.871 50.8242 139.535 51.0273C139.207 51.2305 138.938 51.5117 138.727 51.8711C138.523 52.2227 138.375 52.6289 138.281 53.0898C138.188 53.543 138.141 54.0273 138.141 54.543ZM152.227 51.0859V61H148.852V48.3203H152.027L152.227 51.0859ZM156.047 48.2383L155.988 51.3672C155.824 51.3438 155.625 51.3242 155.391 51.3086C155.164 51.2852 154.957 51.2734 154.77 51.2734C154.293 51.2734 153.879 51.3359 153.527 51.4609C153.184 51.5781 152.895 51.7539 152.66 51.9883C152.434 52.2227 152.262 52.5078 152.145 52.8438C152.035 53.1797 151.973 53.5625 151.957 53.9922L151.277 53.7812C151.277 52.9609 151.359 52.207 151.523 51.5195C151.688 50.8242 151.926 50.2188 152.238 49.7031C152.559 49.1875 152.949 48.7891 153.41 48.5078C153.871 48.2266 154.398 48.0859 154.992 48.0859C155.18 48.0859 155.371 48.1016 155.566 48.1328C155.762 48.1562 155.922 48.1914 156.047 48.2383ZM164.086 58.1406V52.4922C164.086 52.0859 164.02 51.7383 163.887 51.4492C163.754 51.1523 163.547 50.9219 163.266 50.7578C162.992 50.5938 162.637 50.5117 162.199 50.5117C161.824 50.5117 161.5 50.5781 161.227 50.7109C160.953 50.8359 160.742 51.0195 160.594 51.2617C160.445 51.4961 160.371 51.7734 160.371 52.0938H156.996C156.996 51.5547 157.121 51.043 157.371 50.5586C157.621 50.0742 157.984 49.6484 158.461 49.2812C158.938 48.9062 159.504 48.6133 160.16 48.4023C160.824 48.1914 161.566 48.0859 162.387 48.0859C163.371 48.0859 164.246 48.25 165.012 48.5781C165.777 48.9062 166.379 49.3984 166.816 50.0547C167.262 50.7109 167.484 51.5312 167.484 52.5156V57.9414C167.484 58.6367 167.527 59.207 167.613 59.6523C167.699 60.0898 167.824 60.4727 167.988 60.8008V61H164.578C164.414 60.6562 164.289 60.2266 164.203 59.7109C164.125 59.1875 164.086 58.6641 164.086 58.1406ZM164.531 53.2773L164.555 55.1875H162.668C162.223 55.1875 161.836 55.2383 161.508 55.3398C161.18 55.4414 160.91 55.5859 160.699 55.7734C160.488 55.9531 160.332 56.1641 160.23 56.4062C160.137 56.6484 160.09 56.9141 160.09 57.2031C160.09 57.4922 160.156 57.7539 160.289 57.9883C160.422 58.2148 160.613 58.3945 160.863 58.5273C161.113 58.6523 161.406 58.7148 161.742 58.7148C162.25 58.7148 162.691 58.6133 163.066 58.4102C163.441 58.207 163.73 57.957 163.934 57.6602C164.145 57.3633 164.254 57.082 164.262 56.8164L165.152 58.2461C165.027 58.5664 164.855 58.8984 164.637 59.2422C164.426 59.5859 164.156 59.9102 163.828 60.2148C163.5 60.5117 163.105 60.7578 162.645 60.9531C162.184 61.1406 161.637 61.2344 161.004 61.2344C160.199 61.2344 159.469 61.0742 158.812 60.7539C158.164 60.4258 157.648 59.9766 157.266 59.4062C156.891 58.8281 156.703 58.1719 156.703 57.4375C156.703 56.7734 156.828 56.1836 157.078 55.668C157.328 55.1523 157.695 54.7188 158.18 54.3672C158.672 54.0078 159.285 53.7383 160.02 53.5586C160.754 53.3711 161.605 53.2773 162.574 53.2773H164.531ZM178.113 48.3203H181.172V60.5781C181.172 61.7344 180.914 62.7148 180.398 63.5195C179.891 64.332 179.18 64.9453 178.266 65.3594C177.352 65.7812 176.289 65.9922 175.078 65.9922C174.547 65.9922 173.984 65.9219 173.391 65.7812C172.805 65.6406 172.242 65.4219 171.703 65.125C171.172 64.8281 170.727 64.4531 170.367 64L171.855 62.0078C172.246 62.4609 172.699 62.8125 173.215 63.0625C173.73 63.3203 174.301 63.4492 174.926 63.4492C175.535 63.4492 176.051 63.3359 176.473 63.1094C176.895 62.8906 177.219 62.5664 177.445 62.1367C177.672 61.7148 177.785 61.2031 177.785 60.6016V51.25L178.113 48.3203ZM169.582 54.8125V54.5664C169.582 53.5977 169.699 52.7188 169.934 51.9297C170.176 51.1328 170.516 50.4492 170.953 49.8789C171.398 49.3086 171.938 48.8672 172.57 48.5547C173.203 48.2422 173.918 48.0859 174.715 48.0859C175.559 48.0859 176.266 48.2422 176.836 48.5547C177.406 48.8672 177.875 49.3125 178.242 49.8906C178.609 50.4609 178.895 51.1367 179.098 51.918C179.309 52.6914 179.473 53.5391 179.59 54.4609V55C179.473 55.8828 179.297 56.7031 179.062 57.4609C178.828 58.2188 178.52 58.8828 178.137 59.4531C177.754 60.0156 177.277 60.4531 176.707 60.7656C176.145 61.0781 175.473 61.2344 174.691 61.2344C173.91 61.2344 173.203 61.0742 172.57 60.7539C171.945 60.4336 171.41 59.9844 170.965 59.4062C170.52 58.8281 170.176 58.1484 169.934 57.3672C169.699 56.5859 169.582 55.7344 169.582 54.8125ZM172.957 54.5664V54.8125C172.957 55.3359 173.008 55.8242 173.109 56.2773C173.211 56.7305 173.367 57.1328 173.578 57.4844C173.797 57.8281 174.066 58.0977 174.387 58.293C174.715 58.4805 175.102 58.5742 175.547 58.5742C176.164 58.5742 176.668 58.4453 177.059 58.1875C177.449 57.9219 177.742 57.5586 177.938 57.0977C178.133 56.6367 178.246 56.1055 178.277 55.5039V53.9688C178.262 53.4766 178.195 53.0352 178.078 52.6445C177.961 52.2461 177.797 51.9062 177.586 51.625C177.375 51.3438 177.102 51.125 176.766 50.9688C176.43 50.8125 176.031 50.7344 175.57 50.7344C175.125 50.7344 174.738 50.8359 174.41 51.0391C174.09 51.2344 173.82 51.5039 173.602 51.8477C173.391 52.1914 173.23 52.5977 173.121 53.0664C173.012 53.5273 172.957 54.0273 172.957 54.5664ZM189.633 61.2344C188.648 61.2344 187.766 61.0781 186.984 60.7656C186.203 60.4453 185.539 60.0039 184.992 59.4414C184.453 58.8789 184.039 58.2266 183.75 57.4844C183.461 56.7344 183.316 55.9375 183.316 55.0938V54.625C183.316 53.6641 183.453 52.7852 183.727 51.9883C184 51.1914 184.391 50.5 184.898 49.9141C185.414 49.3281 186.039 48.8789 186.773 48.5664C187.508 48.2461 188.336 48.0859 189.258 48.0859C190.156 48.0859 190.953 48.2344 191.648 48.5312C192.344 48.8281 192.926 49.25 193.395 49.7969C193.871 50.3438 194.23 51 194.473 51.7656C194.715 52.5234 194.836 53.3672 194.836 54.2969V55.7031H184.758V53.4531H191.52V53.1953C191.52 52.7266 191.434 52.3086 191.262 51.9414C191.098 51.5664 190.848 51.2695 190.512 51.0508C190.176 50.832 189.746 50.7227 189.223 50.7227C188.777 50.7227 188.395 50.8203 188.074 51.0156C187.754 51.2109 187.492 51.4844 187.289 51.8359C187.094 52.1875 186.945 52.6016 186.844 53.0781C186.75 53.5469 186.703 54.0625 186.703 54.625V55.0938C186.703 55.6016 186.773 56.0703 186.914 56.5C187.062 56.9297 187.27 57.3008 187.535 57.6133C187.809 57.9258 188.137 58.168 188.52 58.3398C188.91 58.5117 189.352 58.5977 189.844 58.5977C190.453 58.5977 191.02 58.4805 191.543 58.2461C192.074 58.0039 192.531 57.6406 192.914 57.1562L194.555 58.9375C194.289 59.3203 193.926 59.6875 193.465 60.0391C193.012 60.3906 192.465 60.6797 191.824 60.9062C191.184 61.125 190.453 61.2344 189.633 61.2344ZM209.59 54.918H205.242V52.1758H209.59C210.262 52.1758 210.809 52.0664 211.23 51.8477C211.652 51.6211 211.961 51.3086 212.156 50.9102C212.352 50.5117 212.449 50.0625 212.449 49.5625C212.449 49.0547 212.352 48.582 212.156 48.1445C211.961 47.707 211.652 47.3555 211.23 47.0898C210.809 46.8242 210.262 46.6914 209.59 46.6914H206.461V61H202.945V43.9375H209.59C210.926 43.9375 212.07 44.1797 213.023 44.6641C213.984 45.1406 214.719 45.8008 215.227 46.6445C215.734 47.4883 215.988 48.4531 215.988 49.5391C215.988 50.6406 215.734 51.5938 215.227 52.3984C214.719 53.2031 213.984 53.8242 213.023 54.2617C212.07 54.6992 210.926 54.918 209.59 54.918ZM224.906 58.1406V52.4922C224.906 52.0859 224.84 51.7383 224.707 51.4492C224.574 51.1523 224.367 50.9219 224.086 50.7578C223.812 50.5938 223.457 50.5117 223.02 50.5117C222.645 50.5117 222.32 50.5781 222.047 50.7109C221.773 50.8359 221.562 51.0195 221.414 51.2617C221.266 51.4961 221.191 51.7734 221.191 52.0938H217.816C217.816 51.5547 217.941 51.043 218.191 50.5586C218.441 50.0742 218.805 49.6484 219.281 49.2812C219.758 48.9062 220.324 48.6133 220.98 48.4023C221.645 48.1914 222.387 48.0859 223.207 48.0859C224.191 48.0859 225.066 48.25 225.832 48.5781C226.598 48.9062 227.199 49.3984 227.637 50.0547C228.082 50.7109 228.305 51.5312 228.305 52.5156V57.9414C228.305 58.6367 228.348 59.207 228.434 59.6523C228.52 60.0898 228.645 60.4727 228.809 60.8008V61H225.398C225.234 60.6562 225.109 60.2266 225.023 59.7109C224.945 59.1875 224.906 58.6641 224.906 58.1406ZM225.352 53.2773L225.375 55.1875H223.488C223.043 55.1875 222.656 55.2383 222.328 55.3398C222 55.4414 221.73 55.5859 221.52 55.7734C221.309 55.9531 221.152 56.1641 221.051 56.4062C220.957 56.6484 220.91 56.9141 220.91 57.2031C220.91 57.4922 220.977 57.7539 221.109 57.9883C221.242 58.2148 221.434 58.3945 221.684 58.5273C221.934 58.6523 222.227 58.7148 222.562 58.7148C223.07 58.7148 223.512 58.6133 223.887 58.4102C224.262 58.207 224.551 57.957 224.754 57.6602C224.965 57.3633 225.074 57.082 225.082 56.8164L225.973 58.2461C225.848 58.5664 225.676 58.8984 225.457 59.2422C225.246 59.5859 224.977 59.9102 224.648 60.2148C224.32 60.5117 223.926 60.7578 223.465 60.9531C223.004 61.1406 222.457 61.2344 221.824 61.2344C221.02 61.2344 220.289 61.0742 219.633 60.7539C218.984 60.4258 218.469 59.9766 218.086 59.4062C217.711 58.8281 217.523 58.1719 217.523 57.4375C217.523 56.7734 217.648 56.1836 217.898 55.668C218.148 55.1523 218.516 54.7188 219 54.3672C219.492 54.0078 220.105 53.7383 220.84 53.5586C221.574 53.3711 222.426 53.2773 223.395 53.2773H225.352ZM234.281 51.0859V61H230.906V48.3203H234.082L234.281 51.0859ZM238.102 48.2383L238.043 51.3672C237.879 51.3438 237.68 51.3242 237.445 51.3086C237.219 51.2852 237.012 51.2734 236.824 51.2734C236.348 51.2734 235.934 51.3359 235.582 51.4609C235.238 51.5781 234.949 51.7539 234.715 51.9883C234.488 52.2227 234.316 52.5078 234.199 52.8438C234.09 53.1797 234.027 53.5625 234.012 53.9922L233.332 53.7812C233.332 52.9609 233.414 52.207 233.578 51.5195C233.742 50.8242 233.98 50.2188 234.293 49.7031C234.613 49.1875 235.004 48.7891 235.465 48.5078C235.926 48.2266 236.453 48.0859 237.047 48.0859C237.234 48.0859 237.426 48.1016 237.621 48.1328C237.816 48.1562 237.977 48.1914 238.102 48.2383ZM243.07 42.9883V61H239.695V42.9883H243.07ZM251.062 48.3203L245.555 54.6016L242.602 57.5898L241.371 55.1523L243.715 52.1758L247.008 48.3203H251.062ZM247.559 61L243.809 55.1406L246.141 53.1016L251.449 61H247.559Z" fill="#888888"/>
</g>
<defs>
<clipPath id="clip0_8_10">
<rect width="1363" height="163" fill="white"/>
</clipPath>
</defs>
</svg>
